<svg width="96" height="76" viewBox="0 0 96 76" fill="none" xmlns="http://www.w3.org/2000/svg">
<path d="M80.571 13.9402H77.892C73.1833 13.9402 68.6673 15.8331 65.3377 19.2025C62.0081 22.5718 60.1376 27.1417 60.1376 31.9067C60.1376 36.6717 62.0081 41.2416 65.3377 44.6109C68.6673 47.9803 73.1833 49.8732 77.892 49.8732H78.1953C75.0574 49.8482 72.0475 48.6112 69.7808 46.4153C67.5141 44.2194 66.1619 41.2302 66.0005 38.059C65.8391 34.8877 66.8808 31.7739 68.9126 29.354C70.9444 26.934 73.8129 25.3908 76.9317 25.0398C77.2459 24.9984 77.5625 24.9771 77.8794 24.9759H95.5706V13.9402H80.571Z" fill="white"/>
<path d="M33.6892 46.1649H22.7838V75.2693H33.6892V46.1649Z" fill="white"/>
<path d="M40.2349 13.9403H22.7711V38.8377H33.6892V24.9504H40.5256C42.2492 24.9643 43.9043 25.6353 45.1606 26.8296C46.4168 28.0239 47.1819 29.6536 47.3032 31.3936C47.4244 33.1336 46.8929 34.8558 45.8146 36.2167C44.7363 37.5775 43.1906 38.4769 41.486 38.7354C44.6244 38.4122 47.5201 36.8806 49.574 34.4574C51.6278 32.0343 52.6826 28.905 52.5203 25.7168C52.358 22.5287 50.9909 19.5256 48.7019 17.3289C46.4128 15.1322 43.377 13.9099 40.2223 13.9148L40.2349 13.9403Z" fill="white"/>
<path d="M40.197 38.8121H40.5256C40.8472 38.8125 41.1684 38.7868 41.486 38.7354C44.6245 38.4122 47.5201 36.8806 49.574 34.4574C51.6278 32.0343 52.6827 28.905 52.5203 25.7168C52.358 22.5287 50.991 19.5256 48.7019 17.3289C46.4129 15.1322 43.377 13.9099 40.2223 13.9148H40.5129C45.2217 13.9148 49.7377 15.8077 53.0673 19.177C56.3969 22.5464 58.2674 27.1162 58.2674 31.8812C58.2674 36.6462 56.3969 41.2161 53.0673 44.5855C49.7377 47.9548 45.2217 49.8477 40.5129 49.8477H14.5447V38.8121H40.197Z" fill="white"/>
<path d="M40.9173 55.7811H41.4228V60.3846H40.9173V55.7811Z" fill="white"/>
<path d="M42.737 55.7811H43.2172L46.0857 59.4767V55.7811H46.5785V60.3846H46.1741L43.2298 56.6123V60.3846H42.737V55.7811Z" fill="white"/>
<path d="M49.0679 56.267H47.5389V55.7811H51.1151V56.267H49.586V60.3846H49.0679V56.267Z" fill="white"/>
<path d="M52.0754 55.7811H55.3736V56.2542H52.5935V57.8271H55.1208V58.3003H52.5935V59.9754H55.3989V60.4486H52.0754V55.7811Z" fill="white"/>
<path d="M56.4351 55.781H58.3937C58.8573 55.7671 59.3089 55.9316 59.6574 56.2413C59.8893 56.4847 60.0165 56.8112 60.0112 57.1493C60.0197 57.3225 59.9934 57.4957 59.9337 57.6583C59.8741 57.8209 59.7824 57.9695 59.6642 58.0951C59.546 58.2207 59.4037 58.3207 59.2461 58.3889C59.0885 58.4571 58.9189 58.4922 58.7475 58.4919L60.1501 60.3717H59.5183L58.2547 58.5943H56.991V60.3717H56.4729L56.4351 55.781ZM58.3431 58.1339C59.0255 58.1339 59.5183 57.7759 59.5183 57.1876C59.5183 56.625 59.0887 56.2797 58.3558 56.2797H56.9531V58.1467L58.3431 58.1339Z" fill="white"/>
<path d="M61.1359 55.7811H61.6161L64.4846 59.4767V55.7811H64.9268V60.3846H64.5225L61.5781 56.6123V60.3846H61.1359V55.7811Z" fill="white"/>
<path d="M67.947 55.7555H68.4272L70.5122 60.3846H69.9814L69.4507 59.1698H66.9234L66.38 60.3846H65.8492L67.947 55.7555ZM69.2106 58.7094L68.1744 56.3565L67.1382 58.7094H69.2106Z" fill="white"/>
<path d="M72.016 56.267H70.4996V55.7811H74.0631V56.267H72.5088V60.3846H71.9781L72.016 56.267Z" fill="white"/>
<path d="M75.0361 55.7811H75.5542V60.3846H75.0361V55.7811Z" fill="white"/>
<path d="M76.7168 58.0956C76.7117 57.784 76.7682 57.4745 76.8829 57.1853C76.9976 56.8961 77.1683 56.633 77.3849 56.4115C77.6015 56.1899 77.8596 56.0144 78.1442 55.8951C78.4287 55.7759 78.7339 55.7154 79.0419 55.7171C79.3491 55.7118 79.6543 55.7696 79.9389 55.8869C80.2235 56.0042 80.4817 56.1787 80.6978 56.3998C80.9139 56.6209 81.0835 56.884 81.1964 57.1733C81.3092 57.4625 81.363 57.7719 81.3544 58.0828C81.3779 58.4055 81.3354 58.7297 81.2296 59.035C81.1237 59.3404 80.9568 59.6203 80.7391 59.8574C80.5215 60.0945 80.2579 60.2837 79.9648 60.413C79.6716 60.5423 79.3553 60.609 79.0355 60.609C78.7158 60.609 78.3994 60.5423 78.1063 60.413C77.8132 60.2837 77.5496 60.0945 77.3319 59.8574C77.1143 59.6203 76.9473 59.3404 76.8415 59.035C76.7356 58.7297 76.6932 58.4055 76.7168 58.0828V58.0956ZM80.8237 58.0956C80.8445 57.8452 80.8137 57.5931 80.7333 57.3554C80.6529 57.1176 80.5246 56.8994 80.3565 56.7144C80.1884 56.5294 79.9843 56.3817 79.7569 56.2807C79.5295 56.1797 79.2839 56.1275 79.0355 56.1275C78.7872 56.1275 78.5416 56.1797 78.3142 56.2807C78.0869 56.3817 77.8827 56.5294 77.7147 56.7144C77.5466 56.8994 77.4182 57.1176 77.3378 57.3554C77.2574 57.5931 77.2267 57.8452 77.2475 58.0956C77.2391 58.3406 77.279 58.5848 77.3651 58.814C77.4512 59.0432 77.5817 59.2526 77.7488 59.4301C77.916 59.6075 78.1164 59.7495 78.3385 59.8475C78.5605 59.9455 78.7996 59.9977 79.0419 60.0009C79.2846 60.0013 79.5249 59.9515 79.7479 59.8546C79.9709 59.7576 80.1721 59.6156 80.3389 59.4372C80.5058 59.2588 80.6348 59.0477 80.7182 58.817C80.8015 58.5863 80.8374 58.3408 80.8237 58.0956Z" fill="white"/>
<path d="M82.4412 55.7811H82.9214L85.7899 59.4767V55.7811H86.2953V60.3846H85.891L82.9467 56.6123V60.3846H82.4412V55.7811Z" fill="white"/>
<path d="M89.265 55.7555H89.7452L91.8176 60.3846H91.2616L90.7308 59.1698H88.2035L87.6727 60.3846H87.142L89.265 55.7555ZM90.5286 58.7094L89.4924 56.3565L88.4562 58.7094H90.5286Z" fill="white"/>
<path d="M92.7274 55.7811H93.2454V59.9754H95.7727V60.4486H92.7274V55.7811Z" fill="white"/>
<path d="M40.9932 62.0853H43.2172C44.5567 62.0853 45.4413 62.8014 45.4413 63.9906C45.4413 65.2694 44.3671 65.9599 43.1035 65.9599H41.6629V68.0826H40.9932V62.0853ZM43.1288 65.3589C44.1144 65.3589 44.7588 64.8218 44.7588 64.0801C44.7588 63.2234 44.1271 62.8014 43.1667 62.8014H41.6629V65.4484L43.1288 65.3589Z" fill="white"/>
<path d="M46.6669 62.0853H49.1943C49.5017 62.0677 49.8096 62.1117 50.1002 62.2149C50.3908 62.318 50.6584 62.4782 50.8876 62.6863C51.1848 63.0088 51.3477 63.4347 51.3425 63.8756C51.3435 64.3209 51.1767 64.75 50.8763 65.0754C50.5758 65.4008 50.1641 65.5982 49.725 65.6275L51.5573 68.0827H50.7233L49.0048 65.7426H47.3114V68.0827H46.6417L46.6669 62.0853ZM49.1943 65.1543C50.0915 65.1543 50.7233 64.6812 50.7233 63.8756C50.7233 63.1339 50.1673 62.6863 49.2069 62.6863H47.3746V65.1288L49.1943 65.1543Z" fill="white"/>
<path d="M52.5303 65.0904C52.5218 64.6821 52.5946 64.2763 52.7443 63.8971C52.894 63.5179 53.1176 63.173 53.4018 62.8831C53.686 62.5931 54.0249 62.364 54.3984 62.2094C54.7719 62.0548 55.1722 61.9778 55.5757 61.983C55.9791 61.9759 56.3798 62.0517 56.7535 62.2059C57.1271 62.36 57.4659 62.5893 57.7494 62.8798C58.0329 63.1703 58.2553 63.516 58.403 63.8959C58.5507 64.2759 58.6206 64.6823 58.6085 65.0904C58.6085 65.4934 58.5301 65.8925 58.3777 66.2648C58.2253 66.6372 58.0019 66.9755 57.7203 67.2605C57.4386 67.5455 57.1043 67.7716 56.7363 67.9258C56.3684 68.08 55.974 68.1594 55.5757 68.1594C55.1774 68.1594 54.7831 68.08 54.4152 67.9258C54.0472 67.7716 53.7129 67.5455 53.4313 67.2605C53.1496 66.9755 52.9262 66.6372 52.7738 66.2648C52.6214 65.8925 52.543 65.4934 52.543 65.0904H52.5303ZM57.9009 65.0904C57.9127 64.7711 57.8612 64.4526 57.7493 64.1537C57.6375 63.8549 57.4676 63.5818 57.2496 63.3505C57.0317 63.1192 56.7702 62.9345 56.4805 62.8073C56.1908 62.68 55.8789 62.6128 55.5631 62.6096C55.248 62.6092 54.936 62.6737 54.6463 62.7991C54.3565 62.9244 54.0949 63.1081 53.8774 63.3389C53.66 63.5698 53.4911 63.8429 53.3812 64.1418C53.2713 64.4407 53.2226 64.7591 53.238 65.0776C53.2144 65.402 53.2571 65.7279 53.3635 66.0349C53.47 66.3418 53.6379 66.6233 53.8567 66.8616C54.0755 67.0999 54.3405 67.29 54.6352 67.42C54.9299 67.55 55.2479 67.6171 55.5694 67.6171C55.8909 67.6171 56.209 67.55 56.5036 67.42C56.7983 67.29 57.0634 67.0999 57.2822 66.8616C57.501 66.6233 57.6688 66.3418 57.7752 66.0349C57.8817 65.7279 57.9245 65.402 57.9009 65.0776V65.0904Z" fill="white"/>
<path d="M60.0112 62.0853H60.6936L62.8544 65.3717L65.0153 62.0853H65.6976V68.0954H65.0279V63.2234L62.8671 66.4458L60.7062 63.2362V68.0954H60.0491L60.0112 62.0853Z" fill="white"/>
<path d="M67.113 65.0903C67.1045 64.6821 67.1773 64.2763 67.327 63.8971C67.4767 63.5178 67.7003 63.173 67.9844 62.883C68.2686 62.5931 68.6075 62.364 68.981 62.2094C69.3545 62.0547 69.7549 61.9777 70.1584 61.983C70.5597 61.9777 70.9579 62.0544 71.3292 62.2085C71.7004 62.3627 72.0372 62.591 72.3192 62.88C72.6012 63.1689 72.8226 63.5125 72.9703 63.8901C73.1179 64.2677 73.1888 64.6716 73.1786 65.0775C73.1871 65.4858 73.1143 65.8917 72.9646 66.2709C72.8149 66.6501 72.5913 66.9949 72.3071 67.2849C72.023 67.5748 71.6841 67.8039 71.3106 67.9586C70.9371 68.1132 70.5366 68.1902 70.1331 68.1849C69.7319 68.1902 69.3337 68.1135 68.9624 67.9594C68.5911 67.8053 68.2544 67.5769 67.9724 67.2879C67.6904 66.999 67.469 66.6554 67.3213 66.2778C67.1736 65.9002 67.1027 65.4963 67.113 65.0903ZM72.4835 65.0903C72.4954 64.7699 72.4435 64.4504 72.3308 64.1507C72.2182 63.851 72.0471 63.5773 71.8279 63.3459C71.6086 63.1144 71.3456 62.93 71.0544 62.8035C70.7633 62.677 70.45 62.611 70.1331 62.6096C69.8185 62.611 69.5074 62.6767 69.2185 62.8027C68.9295 62.9287 68.6686 63.1124 68.4515 63.3428C68.2344 63.5733 68.0656 63.8457 67.955 64.1438C67.8444 64.4418 67.7944 64.7595 67.808 65.0775C67.7962 65.3979 67.848 65.7175 67.9607 66.0172C68.0733 66.3169 68.2444 66.5906 68.4637 66.822C68.683 67.0535 68.946 67.2379 69.2371 67.3644C69.5283 67.4909 69.8416 67.5568 70.1584 67.5583C70.4752 67.5604 70.789 67.4972 71.081 67.3728C71.3729 67.2483 71.6367 67.0651 71.8566 66.8343C72.0764 66.6035 72.2475 66.3299 72.3597 66.0301C72.4718 65.7303 72.5225 65.4106 72.5088 65.0903H72.4835Z" fill="white"/>
<path d="M75.7565 62.7119H73.7725V62.0853H78.4354V62.7119H76.4515V68.0954H75.7691L75.7565 62.7119Z" fill="white"/>
<path d="M79.6865 62.0853H83.9829V62.6991H80.3562V64.7579H83.5912V65.3717H80.3562V67.4816H84.0208V68.0954H79.6865V62.0853Z" fill="white"/>
<path d="M85.3729 62.0853H87.9002C88.2077 62.0677 88.5156 62.1117 88.8062 62.2149C89.0967 62.318 89.3643 62.4782 89.5936 62.6863C89.8907 63.0088 90.0537 63.4347 90.0485 63.8756C90.0494 64.3209 89.8827 64.75 89.5822 65.0754C89.2818 65.4008 88.8701 65.5982 88.4309 65.6275L90.2633 68.0827H89.4419L87.7107 65.7426H86.0174V68.0827H85.3476L85.3729 62.0853ZM87.9002 65.1543C88.7974 65.1543 89.4293 64.6812 89.4293 63.8756C89.4293 63.1339 88.8732 62.6863 87.9129 62.6863H86.0805V65.1288L87.9002 65.1543Z" fill="white"/>
<path d="M91.1099 67.2259L91.5269 66.7272C91.7952 66.999 92.1145 67.2138 92.4661 67.3587C92.8177 67.5037 93.1944 67.5759 93.574 67.5711C94.3701 67.5711 94.8377 67.1492 94.8377 66.5482C94.8377 65.9855 94.5471 65.6658 93.296 65.4101C92.045 65.1543 91.2994 64.6556 91.2994 63.671C91.315 63.4302 91.3787 63.1952 91.4869 62.9802C91.595 62.7652 91.7453 62.5747 91.9286 62.4203C92.1118 62.266 92.3242 62.1511 92.5528 62.0825C92.7813 62.0139 93.0213 61.9931 93.2581 62.0214C94.0191 62.0042 94.7602 62.2678 95.3432 62.763L94.9514 63.2873C94.4796 62.8597 93.8663 62.6269 93.2329 62.6351C92.462 62.6351 91.9692 63.0699 91.9692 63.607C91.9692 64.1824 92.2725 64.4893 93.5867 64.7707C94.9009 65.052 95.5201 65.5635 95.5201 66.4714C95.5201 67.4944 94.6734 68.1722 93.4982 68.1722C92.6129 68.1714 91.7603 67.8336 91.1099 67.2259Z" fill="white"/>
<path d="M43.2172 69.5532H43.7859L46.3132 75.0646H45.6561L45.0242 73.6196H42.0799L41.4354 75.0646H40.8162L43.2172 69.5532ZM44.721 73.0697L43.4573 70.2821L42.1936 73.0697H44.721Z" fill="white"/>
<path d="M46.8565 74.2718L47.2356 73.8242C47.4756 74.0721 47.7629 74.2679 48.0801 74.3998C48.3972 74.5317 48.7377 74.5969 49.0806 74.5915C49.8135 74.5915 50.3442 74.2079 50.3442 73.658C50.3442 73.1465 50.0662 72.8652 48.9289 72.6222C47.7916 72.3793 47.1218 71.9445 47.1218 71.0365C47.1358 70.8188 47.1934 70.6063 47.291 70.4118C47.3886 70.2173 47.5243 70.0448 47.6897 69.9049C47.8551 69.765 48.0469 69.6606 48.2534 69.5979C48.4599 69.5353 48.6768 69.5157 48.891 69.5404C49.5878 69.5209 50.2672 69.7622 50.7991 70.2182L50.4453 70.6913C50.0088 70.3126 49.4532 70.1041 48.8783 70.1031C48.1707 70.1031 47.7284 70.4867 47.7284 70.9854C47.7284 71.4969 48.0064 71.791 49.1942 72.0468C50.3821 72.3025 50.9634 72.7629 50.9634 73.594C50.9634 74.5403 50.1799 75.1541 49.1058 75.1541C48.6919 75.164 48.2802 75.0912 47.8943 74.9398C47.5083 74.7884 47.1556 74.5614 46.8565 74.2718Z" fill="white"/>
<path d="M51.7216 74.2718L52.1006 73.8242C52.3406 74.0721 52.628 74.2679 52.9452 74.3998C53.2624 74.5317 53.6027 74.5969 53.9456 74.5915C54.6785 74.5915 55.2093 74.2079 55.2093 73.658C55.2093 73.1465 54.9313 72.8652 53.794 72.6222C52.6567 72.3793 51.987 71.9444 51.987 71.0365C52.001 70.8188 52.0585 70.6063 52.1561 70.4118C52.2537 70.2173 52.3893 70.0448 52.5548 69.9049C52.7202 69.765 52.9119 69.6606 53.1184 69.5979C53.3249 69.5353 53.5418 69.5157 53.756 69.5404C54.4528 69.5209 55.1323 69.7622 55.6642 70.2182L55.3104 70.6913C54.874 70.3126 54.3183 70.1041 53.7435 70.1031C53.0484 70.1031 52.5935 70.4867 52.5935 70.9854C52.5935 71.4969 52.8715 71.791 54.0594 72.0468C55.2472 72.3025 55.8285 72.7629 55.8285 73.594C55.8285 74.5403 55.0577 75.1541 53.9836 75.1541C53.5677 75.165 53.1537 75.0927 52.7656 74.9412C52.3774 74.7898 52.0226 74.5623 51.7216 74.2718Z" fill="white"/>
<path d="M56.7763 72.3537C56.7507 71.9709 56.8031 71.5868 56.9302 71.2254C57.0574 70.8639 57.2566 70.5327 57.5155 70.2524C57.7744 69.9721 58.0875 69.7486 58.4353 69.5958C58.7831 69.443 59.1582 69.3641 59.5374 69.3641C59.9165 69.3641 60.2916 69.443 60.6395 69.5958C60.9873 69.7486 61.3004 69.9721 61.5593 70.2524C61.8182 70.5327 62.0174 70.8639 62.1445 71.2254C62.2717 71.5868 62.3241 71.9709 62.2985 72.3537C62.3052 72.7252 62.2385 73.0942 62.1023 73.4392C61.9661 73.7842 61.7631 74.0982 61.5053 74.3627C61.2475 74.6271 60.94 74.8368 60.601 74.9793C60.2619 75.1218 59.8982 75.1943 59.531 75.1925C59.1635 75.1979 58.7988 75.1278 58.4588 74.9864C58.1189 74.845 57.8107 74.6352 57.5532 74.3698C57.2956 74.1044 57.094 73.7889 56.9605 73.4424C56.8269 73.0958 56.7643 72.7255 56.7763 72.3537ZM61.6666 72.3537C61.6893 72.0568 61.651 71.7583 61.5543 71.4771C61.4575 71.1959 61.3044 70.9379 61.1045 70.7194C60.9045 70.5009 60.6621 70.3265 60.3924 70.2073C60.1227 70.0881 59.8317 70.0265 59.5374 70.0265C59.2431 70.0265 58.952 70.0881 58.6823 70.2073C58.4127 70.3265 58.1703 70.5009 57.9704 70.7194C57.7704 70.9379 57.6172 71.1959 57.5205 71.4771C57.4237 71.7583 57.3855 72.0568 57.4081 72.3537C57.3962 72.6456 57.4426 72.9369 57.5444 73.2102C57.6462 73.4835 57.8014 73.7332 58.0008 73.9445C58.2001 74.1557 58.4395 74.3242 58.7045 74.4398C58.9696 74.5553 59.2551 74.6157 59.5437 74.6171C59.8323 74.6176 60.118 74.5584 60.3833 74.4433C60.6486 74.3282 60.8879 74.1596 61.0866 73.9477C61.2853 73.7359 61.4392 73.4853 61.5389 73.2112C61.6387 72.9372 61.6821 72.6454 61.6666 72.3537Z" fill="white"/>
<path d="M63.3473 72.3536C63.3371 71.9851 63.4003 71.6182 63.5331 71.2749C63.6659 70.9316 63.8655 70.6188 64.1201 70.3551C64.3748 70.0915 64.6793 69.8823 65.0154 69.7402C65.3516 69.598 65.7125 69.5257 66.0768 69.5276C66.4689 69.5166 66.859 69.5883 67.2223 69.738C67.5856 69.8877 67.9141 70.1121 68.1871 70.3971L67.7701 70.8447C67.5524 70.6113 67.2899 70.4251 66.9988 70.2976C66.7077 70.1701 66.394 70.1039 66.0768 70.103C65.7925 70.1062 65.5118 70.1671 65.2513 70.2821C64.9907 70.3972 64.7556 70.564 64.56 70.7727C64.3643 70.9814 64.2121 71.2277 64.1123 71.4971C64.0125 71.7665 63.9673 72.0534 63.9791 72.3408C63.9656 72.6299 64.0095 72.9188 64.1083 73.1904C64.2072 73.462 64.3589 73.7106 64.5546 73.9217C64.7502 74.1328 64.9858 74.302 65.2473 74.4193C65.5087 74.5365 65.7908 74.5994 66.0768 74.6042C66.4064 74.6047 66.7324 74.5342 67.033 74.3975C67.3336 74.2608 67.6021 74.0611 67.8206 73.8114L68.225 74.2206C67.9523 74.5293 67.6169 74.7748 67.2418 74.9403C66.8667 75.1058 66.4607 75.1875 66.0516 75.1797C65.6884 75.1816 65.3285 75.1092 64.9937 74.9667C64.6589 74.8243 64.356 74.6147 64.1034 74.3507C63.8507 74.0866 63.6535 73.7736 63.5235 73.4304C63.3936 73.0872 63.3337 72.7209 63.3473 72.3536Z" fill="white"/>
<path d="M69.337 69.5916H69.9815V75.0646H69.375L69.337 69.5916Z" fill="white"/>
<path d="M73.5324 69.5532H74.1011L76.6284 75.0646H75.9712L75.3394 73.6196H72.3951L71.7632 75.0646H71.1314L73.5324 69.5532ZM75.0362 73.0697L73.7725 70.2821L72.5088 73.0697H75.0362Z" fill="white"/>
<path d="M78.3722 70.2054H76.5526V69.63H80.7984V70.2054H78.9914V75.103H78.3722V70.2054Z" fill="white"/>
<path d="M81.999 69.5916H82.6181V75.0646H82.0116L81.999 69.5916Z" fill="white"/>
<path d="M83.9575 72.3536C83.9575 71.6143 84.2477 70.9053 84.7644 70.3825C85.281 69.8597 85.9817 69.566 86.7123 69.566C87.4429 69.566 88.1436 69.8597 88.6602 70.3825C89.1769 70.9053 89.4671 71.6143 89.4671 72.3536C89.4756 72.7255 89.4101 73.0954 89.2745 73.4412C89.1389 73.7869 88.936 74.1016 88.6778 74.3665C88.4196 74.6313 88.1115 74.8409 87.7716 74.9828C87.4318 75.1247 87.0673 75.196 86.6997 75.1925C86.3327 75.1979 85.9685 75.1278 85.6292 74.9862C85.2899 74.8447 84.9826 74.6347 84.726 74.3691C84.4695 74.1035 84.269 73.7879 84.1369 73.4414C84.0048 73.0949 83.9438 72.7248 83.9575 72.3536ZM88.8352 72.3536C88.8454 72.0628 88.7978 71.773 88.6952 71.5011C88.5926 71.2293 88.437 70.9811 88.2379 70.7712C88.0387 70.5613 87.7999 70.3941 87.5357 70.2793C87.2715 70.1645 86.9872 70.1046 86.6997 70.103C86.4143 70.1045 86.1322 70.1641 85.8702 70.2784C85.6082 70.3927 85.3716 70.5593 85.1746 70.7682C84.9776 70.9771 84.8243 71.224 84.7237 71.4942C84.6232 71.7644 84.5775 72.0524 84.5894 72.3409C84.5775 72.6327 84.6238 72.924 84.7256 73.1973C84.8275 73.4706 84.9827 73.7204 85.182 73.9316C85.3813 74.1429 85.6207 74.3113 85.8858 74.4269C86.1509 74.5424 86.4363 74.6028 86.7249 74.6042C87.0114 74.6028 87.2946 74.5428 87.5575 74.4277C87.8204 74.3127 88.0575 74.1449 88.2547 73.9347C88.4519 73.7244 88.605 73.4759 88.7047 73.2042C88.8045 72.9325 88.8489 72.6432 88.8352 72.3536Z" fill="white"/>
<path d="M90.7561 69.5916H91.3248L94.7367 73.9777V69.5916H95.3305V75.0646H94.8504L91.35 70.5762V75.0646H90.7561V69.5916Z" fill="white"/>
<path d="M77.8921 38.812C76.1544 38.8171 74.4798 38.1536 73.2074 36.9559C71.9351 35.7583 71.1602 34.116 71.0398 32.3618C70.9193 30.6076 71.4621 28.8726 72.5585 27.5083C73.6548 26.1441 75.2227 25.2525 76.9443 25.0143C73.8256 25.3653 70.9571 26.9085 68.9253 29.3284C66.8935 31.7484 65.8518 34.8622 66.0132 38.0335C66.1746 41.2047 67.5268 44.1938 69.7935 46.3898C72.0602 48.5857 75.0701 49.8226 78.208 49.8476H81.1271V38.812H77.8921Z" fill="white"/>
<path d="M13.9129 20.3979C12.9519 18.6987 11.6181 17.2454 10.0143 16.1502C8.4106 15.055 6.57973 14.347 4.66291 14.0809C4.19396 14.0146 3.72112 13.9804 3.24762 13.9786L0 25.0014H3.44981C3.85418 25.0014 4.25855 25.0014 4.71347 25.1165C7.66523 25.5279 10.3784 26.9816 12.3738 29.2208C14.3693 31.46 15.5186 34.3407 15.6188 37.3542V26.0628C15.496 24.0655 14.9118 22.1251 13.9129 20.3979Z" fill="white"/>
<path d="M15.5683 37.3542C15.468 34.3407 14.3187 31.4599 12.3233 29.2207C10.3279 26.9815 7.61466 25.5279 4.6629 25.1165V49.8732H15.5683V38.2365C15.5683 38.0958 15.5683 37.9552 15.5683 37.8145C15.5683 37.6739 15.5683 37.4948 15.5683 37.3542Z" fill="white"/>
<path d="M84.741 24.9502V26.7917V38.569V38.8247V49.8476H95.6464V38.8247V24.9502H84.741Z" fill="white"/>
<path d="M10.1092 0.385452C11.2033 0.385833 12.279 0.669152 13.2345 1.20852C14.1899 1.74788 14.9932 2.5254 15.5683 3.46725C14.9928 2.64948 14.1474 2.0669 13.1846 1.82471C12.2219 1.58253 11.2053 1.6967 10.3184 2.14663C9.43156 2.59655 8.73296 3.35255 8.34872 4.2781C7.96449 5.20365 7.91998 6.23773 8.22324 7.19358C8.52649 8.14943 9.15751 8.96404 10.0023 9.49028C10.8472 10.0165 11.8502 10.2197 12.8301 10.0632C13.81 9.9066 14.7022 9.40059 15.3457 8.63655C15.9893 7.8725 16.3416 6.90078 16.3391 5.89687C16.3358 5.50751 16.2805 5.12039 16.1748 4.74601C16.4201 5.43494 16.5441 6.16203 16.5413 6.8943C16.5413 8.18163 16.164 9.44005 15.4573 10.5104C14.7505 11.5808 13.746 12.4151 12.5707 12.9077C11.3954 13.4003 10.1021 13.5293 8.85441 13.2781C7.60672 13.027 6.46063 12.407 5.5611 11.4968C4.66156 10.5865 4.04899 9.42671 3.80081 8.16412C3.55263 6.90152 3.68 5.59282 4.16682 4.40349C4.65365 3.21415 5.47806 2.19759 6.5358 1.48239C7.59354 0.767188 8.83711 0.385452 10.1092 0.385452Z" fill="white"/>
<path d="M12.169 10.104C11.4525 10.1057 10.7476 9.92066 10.1223 9.56655C9.49702 9.21245 8.97242 8.70128 8.59915 8.08233C8.22589 7.46338 8.01654 6.75754 7.99127 6.03289C7.96601 5.30823 8.12569 4.58919 8.45492 3.94516C8.78416 3.30112 9.2718 2.75382 9.87087 2.356C10.4699 1.95818 11.1602 1.72329 11.8751 1.67397C12.59 1.62465 13.3054 1.76258 13.9523 2.07444C14.5992 2.3863 15.1557 2.86157 15.5683 3.45442C15.8207 3.85436 16.0244 4.28373 16.1748 4.73318C16.2806 5.10756 16.3358 5.49472 16.3391 5.88409C16.3391 6.43825 16.2313 6.98698 16.0217 7.49896C15.8122 8.01094 15.5049 8.47612 15.1177 8.86797C14.7305 9.25983 14.2708 9.57068 13.7649 9.78275C13.259 9.99481 12.7167 10.104 12.169 10.104Z" fill="white"/>
</svg>
