<svg width="346" height="93" viewBox="0 0 346 93" fill="none" xmlns="http://www.w3.org/2000/svg">
<path d="M8.10186e-05 92.65H120.1V2.1268e-10H15.4301C13.3996 -1.06605e-05 11.389 0.400751 9.51371 1.17931C7.63839 1.95786 5.93516 3.09889 4.5017 4.537C3.06824 5.97511 1.93272 7.682 1.16024 9.55983C0.387754 11.4377 -0.00649873 13.4495 8.10186e-05 15.48V92.65Z" fill="white"/>
<path d="M344.43 90.42H120.1V92.65H344.43V90.42Z" fill="white"/>
<path d="M88.3101 56.09H91.3101V46.09H88.3101C86.7277 46.0763 85.2086 45.4667 84.0557 44.3828C82.9028 43.2988 82.2009 41.8201 82.0898 40.2416C81.9788 38.663 82.4668 37.1006 83.4566 35.866C84.4464 34.6313 85.8652 33.815 87.4301 33.58C87.8221 33.5398 88.216 33.5198 88.6101 33.52H94.6101V46.09V56.09H104.61V46.09V23.48H88.3101C84.0609 23.5853 80.0212 25.3472 77.0531 28.3898C74.085 31.4323 72.4236 35.5145 72.4236 39.765C72.4236 44.0155 74.085 48.0976 77.0531 51.1402C80.0212 54.1827 84.0609 55.9447 88.3101 56.05V56.09Z" fill="#1E3A81"/>
<path d="M70.3201 39.8C70.3253 37.6587 69.9081 35.5374 69.0923 33.5576C68.2765 31.5778 67.0782 29.7784 65.5659 28.2624C64.0537 26.7464 62.2572 25.5437 60.2794 24.723C58.3016 23.9024 56.1814 23.48 54.0401 23.48H37.7901V46.05H31.1801V45.49C31.1801 45.36 31.1801 45.24 31.1801 45.11C31.1801 44.98 31.1801 44.85 31.1801 44.72V34.54C31.0433 31.8461 29.9687 29.2848 28.1425 27.2997C26.3162 25.3145 23.8533 24.0305 21.1801 23.67C20.7525 23.6111 20.3217 23.5777 19.8901 23.57L16.8901 33.57H20.0601C20.4283 33.583 20.7955 33.6164 21.1601 33.67V56.12H31.1601H37.7901V79.12H47.7901V56.12H54.0801C56.218 56.1147 58.334 55.6884 60.3071 54.8654C62.2803 54.0424 64.0721 52.8389 65.5801 51.3234C67.0881 49.808 68.2829 48.0103 69.0962 46.0331C69.9095 44.0559 70.3253 41.9379 70.3201 39.8ZM53.6001 46.09H47.7901V33.48H54.0701C55.6617 33.4764 57.1953 34.0773 58.3609 35.1613C59.5264 36.2452 60.2369 37.7312 60.3487 39.3189C60.4604 40.9067 59.9652 42.4776 58.963 43.7141C57.9608 44.9507 56.5265 45.7605 54.9501 45.98C54.5586 46.0285 54.1645 46.0519 53.7701 46.05L53.6001 46.09Z" fill="#1E3A81"/>
<path d="M54.83 61.48H54.36V65.65H54.83V61.48Z" fill="#1E3A81"/>
<path d="M59.1201 64.82L56.4901 61.48H56.0501V65.65H56.5101V62.23L59.2101 65.65H59.5801V61.48H59.1201V64.82Z" fill="#1E3A81"/>
<path d="M62.3501 65.65V61.91H63.7401V61.48H60.4701V61.91H61.8701V65.65H62.3501Z" fill="#1E3A81"/>
<path d="M67.6401 61.91V61.48H64.6301V65.65H67.6701V65.22H65.1001V63.76H67.3801V63.33H65.1001V61.91H67.6401Z" fill="#1E3A81"/>
<path d="M68.6301 65.65H69.1001V64.03H70.2901L71.4901 65.65H72.0701L70.7901 63.95C71.0978 63.9272 71.3854 63.7887 71.5951 63.5623C71.8048 63.3359 71.9209 63.0385 71.9201 62.73C71.9255 62.5787 71.8998 62.4279 71.8448 62.2869C71.7898 62.1459 71.7065 62.0176 71.6001 61.91C71.2778 61.6194 70.8535 61.4683 70.4201 61.49H68.6301V65.65ZM69.1001 61.92H70.3801C71.0601 61.92 71.4501 62.23 71.4501 62.74C71.4501 63.28 71.0001 63.6 70.3801 63.6H69.1001V61.92Z" fill="#1E3A81"/>
<path d="M73.3801 61.48H72.9301V65.65H73.4001V62.23L76.0901 65.65H76.4601V61.48H76.0001V64.82L73.3801 61.48Z" fill="#1E3A81"/>
<path d="M79.1901 61.48L77.2901 65.68H77.7901L78.2901 64.58H80.5601L81.0501 65.68H81.5501L79.6501 61.48H79.1901ZM78.4501 64.16L79.4501 62.03L80.3901 64.16H78.4501Z" fill="#1E3A81"/>
<path d="M83.4001 65.65V61.91H84.8001V61.48H81.5201V61.91H82.9201V65.65H83.4001Z" fill="#1E3A81"/>
<path d="M86.2001 61.48H85.7301V65.65H86.2001V61.48Z" fill="#1E3A81"/>
<path d="M91.4901 63.57C91.5101 63.2787 91.47 62.9864 91.3722 62.7112C91.2745 62.4361 91.1212 62.184 90.922 61.9705C90.7227 61.7571 90.4816 61.5869 90.2138 61.4706C89.946 61.3542 89.6571 61.2942 89.3651 61.2942C89.0731 61.2942 88.7842 61.3542 88.5164 61.4706C88.2486 61.5869 88.0075 61.7571 87.8083 61.9705C87.609 62.184 87.4557 62.4361 87.358 62.7112C87.2602 62.9864 87.2201 63.2787 87.2401 63.57C87.2201 63.8614 87.2602 64.1537 87.358 64.4288C87.4557 64.704 87.609 64.9561 87.8083 65.1696C88.0075 65.383 88.2486 65.5532 88.5164 65.6695C88.7842 65.7859 89.0731 65.8459 89.3651 65.8459C89.6571 65.8459 89.946 65.7859 90.2138 65.6695C90.4816 65.5532 90.7227 65.383 90.922 65.1696C91.1212 64.9561 91.2745 64.704 91.3722 64.4288C91.47 64.1537 91.5101 63.8614 91.4901 63.57ZM87.7301 63.57C87.7193 63.3489 87.7534 63.1278 87.8303 62.9202C87.9073 62.7125 88.0254 62.5226 88.1778 62.3619C88.3301 62.2012 88.5133 62.073 88.7165 61.985C88.9197 61.897 89.1387 61.8511 89.3601 61.85C89.5824 61.8525 89.802 61.8996 90.0057 61.9886C90.2095 62.0776 90.3933 62.2065 90.5463 62.3679C90.6993 62.5292 90.8183 62.7197 90.8962 62.9279C90.9742 63.1361 91.0095 63.3579 91.0001 63.58C91.0095 63.8004 90.9744 64.0204 90.8968 64.2268C90.8193 64.4333 90.7008 64.622 90.5487 64.7816C90.3965 64.9413 90.2137 65.0686 90.0112 65.1559C89.8087 65.2433 89.5906 65.2889 89.3701 65.29C89.1486 65.2875 88.9299 65.2407 88.7269 65.1524C88.5238 65.064 88.3404 64.936 88.1876 64.7757C88.0348 64.6154 87.9156 64.4262 87.837 64.2191C87.7584 64.012 87.7221 63.7914 87.7301 63.57Z" fill="#1E3A81"/>
<path d="M96.0201 65.65V61.48H95.56V64.82L92.9301 61.48H92.4901V65.65H92.95V62.23L95.64 65.65H96.0201Z" fill="#1E3A81"/>
<path d="M101.08 65.6499L99.1801 61.45H98.7901L96.8901 65.6499H97.3701L97.8601 64.55H100.13L100.62 65.6499H101.08ZM98.0101 64.1299L98.9601 62L99.9101 64.1299H98.0101Z" fill="#1E3A81"/>
<path d="M102.38 65.21V61.48H101.91V65.65H104.73V65.21H102.38Z" fill="#1E3A81"/>
<path d="M54.4601 72.64H55.0801V70.72H56.4001C57.5601 70.72 58.5401 70.1099 58.5401 68.9299C58.5401 67.8499 57.7301 67.2 56.5401 67.2H54.5401L54.4601 72.64ZM55.0801 67.7599H56.4501C57.3301 67.7599 57.9201 68.16 57.9201 68.94C57.9201 69.65 57.3301 70.1299 56.4201 70.1299H55.0801V67.7599Z" fill="#1E3A81"/>
<path d="M63.9801 68.82C63.985 68.4193 63.8345 68.0322 63.5601 67.74C63.1341 67.364 62.5775 67.1701 62.0101 67.2H59.6601V72.65H60.2801V70.48H61.7901L63.3801 72.6H64.1301L62.4601 70.37C62.8627 70.3524 63.2436 70.1825 63.5258 69.8948C63.808 69.6071 63.9703 69.2229 63.9801 68.82ZM60.2801 69.97V67.76H61.9601C62.8401 67.76 63.3501 68.16 63.3501 68.83C63.3501 69.53 62.7701 69.95 61.9501 69.95L60.2801 69.97Z" fill="#1E3A81"/>
<path d="M67.7901 72.73C68.1602 72.7341 68.5273 72.6638 68.8696 72.5231C69.212 72.3825 69.5225 72.1744 69.7828 71.9113C70.0431 71.6482 70.2478 71.3355 70.3848 70.9917C70.5217 70.6479 70.5882 70.28 70.5801 69.91C70.5801 69.1727 70.2872 68.4656 69.7659 67.9443C69.2445 67.4229 68.5374 67.13 67.8001 67.13C67.0628 67.13 66.3557 67.4229 65.8343 67.9443C65.313 68.4656 65.0201 69.1727 65.0201 69.91C65.0079 70.2794 65.0708 70.6475 65.205 70.9918C65.3393 71.3362 65.542 71.6497 65.801 71.9134C66.06 72.1771 66.3699 72.3854 66.7118 72.5258C67.0537 72.6661 67.4205 72.7356 67.7901 72.73ZM65.6601 69.9C65.6466 69.6115 65.6916 69.3233 65.7925 69.0527C65.8933 68.782 66.0479 68.5346 66.2469 68.3253C66.446 68.1161 66.6853 67.9492 66.9505 67.8349C67.2157 67.7205 67.5013 67.661 67.7901 67.66C68.0802 67.6625 68.3669 67.7231 68.6332 67.8383C68.8995 67.9535 69.14 68.121 69.3405 68.3308C69.5409 68.5405 69.6973 68.7884 69.8003 69.0596C69.9033 69.3309 69.9508 69.6201 69.9401 69.91C69.9522 70.1977 69.9061 70.4848 69.8047 70.7543C69.7032 71.0237 69.5484 71.2699 69.3495 71.4781C69.1506 71.6863 68.9118 71.8523 68.6473 71.966C68.3828 72.0797 68.098 72.1389 67.8101 72.14C67.5195 72.1389 67.2322 72.0792 66.9653 71.9645C66.6983 71.8498 66.4573 71.6823 66.2566 71.4723C66.0558 71.2622 65.8995 71.0138 65.7971 70.7419C65.6946 70.4701 65.648 70.1803 65.6601 69.89V69.9Z" fill="#1E3A81"/>
<path d="M76.5101 72.6301H77.1201V67.1801H76.5001L74.5201 70.1601L72.5301 67.1801H71.9101V72.6301H72.5101V68.2301L74.4901 71.1401H74.5201L76.5101 68.2201V72.6301Z" fill="#1E3A81"/>
<path d="M83.9901 69.91C83.9901 69.1727 83.6972 68.4656 83.1758 67.9443C82.6545 67.4229 81.9474 67.13 81.2101 67.13C80.4728 67.13 79.7657 67.4229 79.2444 67.9443C78.723 68.4656 78.4301 69.1727 78.4301 69.91C78.4301 70.6473 78.723 71.3544 79.2444 71.8758C79.7657 72.3971 80.4728 72.69 81.2101 72.69C81.9474 72.69 82.6545 72.3971 83.1758 71.8758C83.6972 71.3544 83.9901 70.6473 83.9901 69.91ZM81.2101 72.16C80.9204 72.1576 80.6341 72.0969 80.3684 71.9816C80.1026 71.8662 79.8627 71.6986 79.6631 71.4887C79.4634 71.2788 79.308 71.0308 79.2062 70.7596C79.1043 70.4884 79.058 70.1995 79.0701 69.91C79.0566 69.6215 79.1016 69.3333 79.2025 69.0627C79.3033 68.792 79.4579 68.5446 79.657 68.3353C79.856 68.1261 80.0953 67.9592 80.3605 67.8449C80.6257 67.7305 80.9113 67.671 81.2001 67.67C81.4898 67.6739 81.7759 67.7354 82.0416 67.8511C82.3072 67.9668 82.5472 68.1343 82.7473 68.3438C82.9475 68.5532 83.1039 68.8006 83.2074 69.0712C83.3109 69.3418 83.3594 69.6304 83.3501 69.92C83.3636 70.2093 83.3183 70.4984 83.2168 70.7697C83.1154 71.041 82.9599 71.2889 82.7598 71.4983C82.5597 71.7077 82.3192 71.8744 82.0528 71.9881C81.7864 72.1018 81.4998 72.1603 81.2101 72.16Z" fill="#1E3A81"/>
<path d="M86.9701 72.6301V67.7501H88.8001V67.1801H84.5201V67.7501H86.3501V72.6301H86.9701Z" fill="#1E3A81"/>
<path d="M93.9401 72.0701H90.5701V70.1701H93.5501V69.6101H90.5701V67.7401H93.9001V67.1801H89.9601V72.6301H93.9401V72.0701Z" fill="#1E3A81"/>
<path d="M99.4901 68.82C99.495 68.4193 99.3445 68.0322 99.0701 67.74C98.6441 67.364 98.0876 67.1701 97.5201 67.2H95.1701V72.65H95.7901V70.48H97.3501L98.9301 72.6H99.6801L98.0101 70.37C98.4056 70.3427 98.7767 70.1686 99.0505 69.8818C99.3243 69.5951 99.4811 69.2164 99.4901 68.82ZM95.7901 69.97V67.76H97.4701C98.3501 67.76 98.8601 68.16 98.8601 68.83C98.8601 69.53 98.2801 69.95 97.4601 69.95L95.7901 69.97Z" fill="#1E3A81"/>
<path d="M102.79 69.62C101.59 69.36 101.31 69.07 101.31 68.56C101.31 68.07 101.76 67.68 102.47 67.68C103.049 67.6815 103.608 67.895 104.04 68.28L104.4 67.8C103.863 67.3507 103.18 67.1125 102.48 67.13C102.264 67.1052 102.045 67.1245 101.836 67.1867C101.628 67.2489 101.434 67.3528 101.266 67.4921C101.099 67.6314 100.962 67.8032 100.863 67.997C100.764 68.1909 100.705 68.4028 100.69 68.62C100.69 69.52 101.27 69.92 102.52 70.2C103.77 70.48 103.94 70.73 103.94 71.2C103.94 71.74 103.45 72.12 102.72 72.12C102.374 72.1246 102.031 72.0587 101.711 71.9263C101.391 71.794 101.102 71.5979 100.86 71.35L100.47 71.8C101.071 72.3713 101.871 72.6867 102.7 72.68C103.78 72.68 104.56 72.07 104.56 71.13C104.53 70.33 103.97 69.88 102.79 69.62Z" fill="#1E3A81"/>
<path d="M56.5001 73.96L54.2301 78.96H54.7901L55.3801 77.65H58.0801L58.6601 78.96H59.2601L57.0001 73.96H56.5001ZM55.6201 77.15L56.7501 74.61L57.8801 77.15H55.6201Z" fill="#1E3A81"/>
<path d="M61.9401 76.21C60.8501 75.98 60.5901 75.71 60.5901 75.21C60.5901 74.77 61.0001 74.41 61.6501 74.41C62.1768 74.4087 62.6857 74.6009 63.0801 74.95L63.4101 74.52C62.9224 74.1069 62.2988 73.8896 61.6601 73.91C61.4635 73.8865 61.2642 73.9032 61.0743 73.9591C60.8844 74.015 60.7079 74.109 60.5554 74.2352C60.4029 74.3615 60.2777 74.5175 60.1874 74.6936C60.0971 74.8698 60.0436 75.0625 60.0301 75.26C60.0301 76.07 60.5601 76.44 61.7001 76.69C62.8401 76.94 62.9901 77.17 62.9901 77.63C62.9901 78.11 62.5501 78.47 61.8801 78.47C61.5636 78.4717 61.25 78.4097 60.9579 78.2877C60.6659 78.1658 60.4014 77.9863 60.1801 77.76L59.8301 78.18C60.372 78.6882 61.0872 78.9707 61.8301 78.97C62.8301 78.97 63.5301 78.42 63.5301 77.57C63.5601 76.85 63.0501 76.48 61.9401 76.21Z" fill="#1E3A81"/>
<path d="M66.4101 76.21C65.3101 75.98 65.0601 75.71 65.0601 75.21C65.0601 74.77 65.4701 74.41 66.1101 74.41C66.6394 74.4109 67.1507 74.6026 67.5501 74.95L67.8701 74.52C67.3865 74.1067 66.7659 73.8892 66.1301 73.91C65.9335 73.8865 65.7342 73.9032 65.5443 73.9591C65.3544 74.015 65.1779 74.109 65.0254 74.2352C64.873 74.3615 64.7478 74.5175 64.6575 74.6936C64.5672 74.8698 64.5136 75.0625 64.5001 75.26C64.5001 76.07 65.0201 76.44 66.1601 76.69C67.3001 76.94 67.4501 77.17 67.4501 77.63C67.4501 78.11 67.0101 78.47 66.3501 78.47C66.0334 78.4728 65.7195 78.4114 65.4273 78.2893C65.1351 78.1673 64.8707 77.9872 64.6501 77.76L64.3001 78.18C64.8409 78.6899 65.5568 78.9727 66.3001 78.97C67.3001 78.97 67.9901 78.42 67.9901 77.57C68.0201 76.85 67.5101 76.48 66.4101 76.21Z" fill="#1E3A81"/>
<path d="M71.4801 73.91C71.1432 73.9072 70.8092 73.9721 70.4978 74.1006C70.1865 74.2292 69.904 74.4189 69.6672 74.6585C69.4304 74.8981 69.2441 75.1827 69.1192 75.4956C68.9943 75.8085 68.9334 76.1432 68.9401 76.48C68.9401 77.151 69.2066 77.7945 69.6811 78.269C70.1556 78.7434 70.7991 79.01 71.4701 79.01C72.1411 79.01 72.7846 78.7434 73.2591 78.269C73.7335 77.7945 74.0001 77.151 74.0001 76.48C74.0109 76.1438 73.9535 75.8089 73.8313 75.4955C73.7092 75.1821 73.5248 74.8967 73.2893 74.6565C73.0538 74.4163 72.772 74.2263 72.4611 74.098C72.1502 73.9697 71.8164 73.9058 71.4801 73.91ZM73.4201 76.49C73.4868 76.7829 73.4868 77.0871 73.4198 77.3799C73.3529 77.6728 73.2209 77.9468 73.0335 78.1816C72.8462 78.4165 72.6084 78.6061 72.3377 78.7364C72.067 78.8667 71.7705 78.9344 71.4701 78.9344C71.1697 78.9344 70.8731 78.8667 70.6025 78.7364C70.3318 78.6061 70.094 78.4165 69.9066 78.1816C69.7193 77.9468 69.5873 77.6728 69.5203 77.3799C69.4534 77.0871 69.4533 76.7829 69.5201 76.49C69.4533 76.1971 69.4534 75.8929 69.5203 75.6001C69.5873 75.3072 69.7193 75.0332 69.9066 74.7984C70.094 74.5635 70.3318 74.3739 70.6025 74.2436C70.8731 74.1133 71.1697 74.0456 71.4701 74.0456C71.7705 74.0456 72.067 74.1133 72.3377 74.2436C72.6084 74.3739 72.8462 74.5635 73.0335 74.7984C73.2209 75.0332 73.3529 75.3072 73.4198 75.6001C73.4868 75.8929 73.4868 76.1971 73.4201 76.49Z" fill="#1E3A81"/>
<path d="M77.4701 78.53C76.9449 78.5091 76.449 78.2824 76.0897 77.8987C75.7304 77.5151 75.5365 77.0054 75.5501 76.48C75.5421 76.2219 75.5857 75.9648 75.6784 75.7238C75.771 75.4827 75.9109 75.2626 76.0897 75.0764C76.2685 74.8901 76.4827 74.7414 76.7198 74.639C76.9568 74.5366 77.2119 74.4825 77.4701 74.48C77.7627 74.4812 78.052 74.5421 78.3202 74.6591C78.5885 74.776 78.83 74.9464 79.0301 75.16L79.4101 74.75C79.1607 74.4917 78.8604 74.2881 78.5281 74.1521C78.1959 74.0161 77.839 73.9507 77.4801 73.96C77.145 73.9585 76.813 74.0244 76.5038 74.1538C76.1947 74.2832 75.9147 74.4734 75.6806 74.7132C75.4464 74.9529 75.2629 75.2373 75.1408 75.5494C75.0188 75.8615 74.9607 76.195 74.9701 76.53C74.958 76.8627 75.0132 77.1944 75.1325 77.5052C75.2518 77.816 75.4327 78.0995 75.6644 78.3386C75.896 78.5777 76.1736 78.7676 76.4805 78.8967C76.7874 79.0258 77.1172 79.0915 77.4501 79.09C77.8274 79.0979 78.202 79.0232 78.5474 78.8712C78.8929 78.7192 79.201 78.4935 79.4501 78.21L79.0801 77.85C78.8755 78.0712 78.626 78.2463 78.3484 78.3636C78.0708 78.4809 77.7714 78.5376 77.4701 78.53Z" fill="#1E3A81"/>
<path d="M81.0201 73.99H80.4601V78.95H81.0201V73.99Z" fill="#1E3A81"/>
<path d="M84.3101 73.96L82.0501 78.96H82.6301L83.2101 77.65H85.9201L86.5001 78.96H87.1001L84.8401 73.96H84.3101ZM83.4301 77.15L84.5701 74.61L85.7001 77.15H83.4301Z" fill="#1E3A81"/>
<path d="M87.0801 74.51H88.7501V78.96H89.3101V74.51H90.9801V73.99H87.0801V74.51Z" fill="#1E3A81"/>
<path d="M92.6401 73.99H92.0801V78.95H92.6401V73.99Z" fill="#1E3A81"/>
<path d="M96.4101 73.91C96.0732 73.9072 95.7392 73.9721 95.4279 74.1006C95.1165 74.2292 94.834 74.4189 94.5972 74.6585C94.3604 74.8981 94.1741 75.1827 94.0492 75.4956C93.9243 75.8085 93.8634 76.1432 93.8701 76.48C93.8483 76.8263 93.8977 77.1734 94.0153 77.4998C94.1328 77.8263 94.316 78.1252 94.5536 78.3781C94.7911 78.631 95.0779 78.8326 95.3964 78.9704C95.7148 79.1082 96.0581 79.1793 96.4051 79.1793C96.752 79.1793 97.0953 79.1082 97.4138 78.9704C97.7322 78.8326 98.0191 78.631 98.2566 78.3781C98.4941 78.1252 98.6773 77.8263 98.7949 77.4998C98.9124 77.1734 98.9618 76.8263 98.9401 76.48C98.9495 76.1433 98.8909 75.8082 98.7676 75.4947C98.6443 75.1813 98.4589 74.896 98.2226 74.656C97.9863 74.4159 97.704 74.2261 97.3925 74.0979C97.081 73.9697 96.7469 73.9058 96.4101 73.91ZM98.3501 76.49C98.3503 77.0102 98.1478 77.51 97.7856 77.8834C97.4234 78.2568 96.93 78.4744 96.4101 78.49C96.1432 78.4901 95.8789 78.4367 95.633 78.3331C95.387 78.2295 95.1643 78.0777 94.9779 77.8866C94.7915 77.6956 94.6452 77.4692 94.5477 77.2207C94.4502 76.9723 94.4034 76.7068 94.4101 76.44C94.3433 76.1471 94.3434 75.8429 94.4103 75.5501C94.4772 75.2572 94.6093 74.9832 94.7966 74.7483C94.9839 74.5135 95.2218 74.3239 95.4925 74.1936C95.7631 74.0632 96.0597 73.9956 96.3601 73.9956C96.6605 73.9956 96.957 74.0632 97.2277 74.1936C97.4984 74.3239 97.7362 74.5135 97.9235 74.7483C98.1109 74.9832 98.2429 75.2572 98.3098 75.5501C98.3767 75.8429 98.3768 76.1471 98.3101 76.44L98.3501 76.49Z" fill="#1E3A81"/>
<path d="M103.77 77.97L100.64 73.99H100.12V78.96H100.66V74.89L103.87 78.96H104.31V73.99H103.77V77.97Z" fill="#1E3A81"/>
<path d="M26.1301 23.05C27.6949 23.05 29.1956 22.4284 30.302 21.3219C31.4085 20.2154 32.0301 18.7147 32.0301 17.15C32.0255 16.4856 31.9106 15.8267 31.6901 15.2C31.5496 14.7976 31.3651 14.4119 31.1401 14.05C30.5994 13.1744 29.839 12.4554 28.9346 11.9645C28.0301 11.4736 27.0129 11.2278 25.9841 11.2516C24.9553 11.2753 23.9505 11.5677 23.0697 12.0998C22.1888 12.6319 21.4624 13.3851 20.9626 14.2847C20.4629 15.1843 20.2071 16.199 20.2207 17.228C20.2343 18.257 20.5168 19.2646 21.0402 20.1506C21.5636 21.0367 22.3096 21.7705 23.2043 22.2791C24.0989 22.7877 25.111 23.0534 26.1401 23.05H26.1301Z" fill="#1E3A81"/>
<path d="M133.06 41.3V41.2C133.06 31.82 140.06 24.05 149.83 24.05C152.238 23.9739 154.635 24.4025 156.867 25.3084C159.099 26.2143 161.117 27.5774 162.79 29.31L160.24 32.06C157.44 29.41 154.31 27.51 149.81 27.51C142.47 27.51 136.97 33.51 136.97 41.11V41.2C136.97 48.88 142.52 54.9 149.81 54.9C154.36 54.9 157.35 53.14 160.52 50.11L162.98 52.53C159.52 56.03 155.73 58.36 149.72 58.36C140.12 58.36 133.06 50.82 133.06 41.3Z" fill="white"/>
<path d="M162.34 41.3V41.2C162.34 32.06 169.21 24.05 179.34 24.05C189.47 24.05 196.21 31.96 196.21 41.11C196.26 41.16 196.26 41.16 196.21 41.2C196.21 50.35 189.34 58.36 179.21 58.36C169.08 58.36 162.34 50.48 162.34 41.3ZM192.29 41.3V41.2C192.29 33.67 186.79 27.51 179.21 27.51C171.63 27.51 166.21 33.58 166.21 41.11V41.2C166.21 48.74 171.7 54.9 179.28 54.9C186.86 54.9 192.29 48.83 192.29 41.3Z" fill="white"/>
<path d="M199.35 24.62H202.86L223.79 51.2V24.62H227.44V57.79H224.44L203.03 30.59V57.79H199.38L199.35 24.62Z" fill="white"/>
<path d="M259.56 57.79H255.91V30.59L234.49 57.79H231.49V24.62H235.14V51.2L256.03 24.62H259.54L259.56 57.79Z" fill="white"/>
<path d="M264.54 24.62H288.54V28.03H268.28V39.36H286.38V42.77H268.28V54.38H288.79V57.79H264.54V24.62Z" fill="white"/>
<path d="M290.08 41.3V41.2C290.08 31.82 297.08 24.05 306.85 24.05C309.254 23.9791 311.647 24.4103 313.875 25.316C316.103 26.2216 318.117 27.5819 319.79 29.31L317.23 32.06C314.43 29.41 311.31 27.51 306.8 27.51C299.46 27.51 293.96 33.51 293.96 41.11V41.2C293.96 48.88 299.51 54.9 306.8 54.9C311.35 54.9 314.34 53.14 317.51 50.11L319.98 52.53C316.52 56.03 312.73 58.36 306.71 58.36C297.14 58.36 290.08 50.82 290.08 41.3Z" fill="white"/>
<path d="M330.55 28.08H319.41V24.62H345.47V28.08H334.34V57.79H330.55V28.08Z" fill="white"/>
<path d="M134.01 74.85V70.48H134.86V74.83C134.86 76.46 135.73 77.38 137.17 77.38C137.494 77.4 137.819 77.3472 138.121 77.2255C138.422 77.1038 138.692 76.9163 138.912 76.6766C139.131 76.437 139.295 76.1512 139.389 75.8404C139.484 75.5295 139.508 75.2014 139.46 74.88V70.48H140.31V74.82C140.31 77.02 139.04 78.17 137.15 78.17C136.716 78.1928 136.282 78.1211 135.879 77.9597C135.475 77.7984 135.112 77.5513 134.813 77.2355C134.514 76.9198 134.288 76.5429 134.149 76.131C134.011 75.7191 133.963 75.282 134.01 74.85Z" fill="white"/>
<path d="M142.2 72.4801H143.03V73.4801C143.216 73.1385 143.493 72.855 143.83 72.6608C144.167 72.4667 144.551 72.3695 144.94 72.3801C145.236 72.357 145.533 72.4001 145.81 72.506C146.087 72.6119 146.337 72.7781 146.541 72.9925C146.746 73.2069 146.901 73.4641 146.994 73.7456C147.087 74.0271 147.117 74.3258 147.08 74.6201V78.0901H146.25V74.8301C146.28 74.614 146.261 74.3941 146.196 74.1859C146.132 73.9777 146.022 73.7863 145.875 73.6251C145.728 73.464 145.548 73.337 145.346 73.2532C145.145 73.1693 144.928 73.1307 144.71 73.1401C144.482 73.134 144.255 73.1756 144.043 73.2624C143.832 73.3491 143.641 73.479 143.483 73.6437C143.325 73.8085 143.203 74.0044 143.125 74.219C143.047 74.4337 143.015 74.6622 143.03 74.8901V78.0901H142.2V72.4801Z" fill="white"/>
<path d="M148.94 70.13H149.79V78.02H148.96L148.94 70.13Z" fill="white"/>
<path d="M151.37 75.25C151.37 74.4782 151.677 73.738 152.222 73.1923C152.768 72.6466 153.508 72.34 154.28 72.34C155.052 72.34 155.792 72.6466 156.338 73.1923C156.883 73.738 157.19 74.4782 157.19 75.25C157.193 75.635 157.119 76.0167 156.972 76.3729C156.826 76.729 156.61 77.0524 156.337 77.3242C156.065 77.596 155.74 77.8108 155.384 77.956C155.027 78.1012 154.645 78.174 154.26 78.17C153.877 78.1741 153.497 78.1011 153.142 77.9554C152.788 77.8098 152.466 77.5944 152.197 77.322C151.927 77.0496 151.715 76.7258 151.573 76.3699C151.431 76.0139 151.362 75.6331 151.37 75.25ZM156.37 75.25C156.379 74.9696 156.333 74.6901 156.233 74.4279C156.133 74.1658 155.982 73.9262 155.788 73.7232C155.594 73.5202 155.362 73.3579 155.105 73.2457C154.848 73.1335 154.571 73.0738 154.29 73.07C154.016 73.0776 153.746 73.1399 153.497 73.2532C153.247 73.3664 153.022 73.5284 152.836 73.7296C152.65 73.9308 152.506 74.1671 152.412 74.4247C152.318 74.6824 152.277 74.9561 152.29 75.23C152.279 75.5086 152.325 75.7865 152.423 76.0474C152.521 76.3083 152.671 76.5469 152.863 76.7491C153.055 76.9513 153.285 77.1131 153.541 77.2249C153.796 77.3366 154.071 77.3962 154.35 77.4C154.622 77.3897 154.889 77.3259 155.136 77.2122C155.384 77.0985 155.606 76.9372 155.791 76.7375C155.976 76.5379 156.119 76.3037 156.214 76.0484C156.308 75.7932 156.351 75.5219 156.34 75.25H156.37Z" fill="white"/>
<path d="M158.36 75.2501C158.359 74.6577 158.539 74.0792 158.876 73.5919C159.213 73.1046 159.69 72.7316 160.245 72.5229C160.799 72.3142 161.404 72.2796 161.979 72.4239C162.553 72.5681 163.07 72.8843 163.46 73.3301L162.91 73.9101C162.703 73.6572 162.444 73.4516 162.151 73.3067C161.858 73.1619 161.537 73.0812 161.21 73.0701C160.936 73.0777 160.666 73.14 160.417 73.2533C160.167 73.3665 159.942 73.5285 159.756 73.7297C159.57 73.9309 159.426 74.1672 159.332 74.4248C159.238 74.6825 159.197 74.9562 159.21 75.2301C159.198 75.5082 159.242 75.7859 159.339 76.0467C159.436 76.3076 159.585 76.5463 159.776 76.7486C159.967 76.951 160.197 77.1129 160.452 77.2248C160.707 77.3367 160.982 77.3963 161.26 77.4001C161.588 77.3929 161.911 77.315 162.206 77.1718C162.501 77.0285 162.762 76.8233 162.97 76.5701L163.5 77.0701C163.125 77.536 162.614 77.8738 162.038 78.0369C161.462 78.2 160.85 78.1804 160.285 77.9806C159.721 77.7809 159.233 77.4109 158.888 76.9218C158.543 76.4326 158.359 75.8485 158.36 75.2501Z" fill="white"/>
<path d="M164.88 70.13H165.71V75.58L168.71 72.43H169.71L167.37 74.83L169.79 78.02H168.79L166.79 75.42L165.65 76.56V78.02H164.82L164.88 70.13Z" fill="white"/>
<path d="M174.09 74.26C174.09 73.2363 174.497 72.2545 175.221 71.5306C175.945 70.8067 176.926 70.4 177.95 70.4C178.974 70.4 179.956 70.8067 180.679 71.5306C181.403 72.2545 181.81 73.2363 181.81 74.26C181.819 74.7727 181.726 75.2821 181.535 75.758C181.345 76.234 181.061 76.667 180.7 77.0314C180.339 77.3959 179.909 77.6844 179.435 77.8799C178.961 78.0755 178.453 78.1741 177.94 78.17C177.427 78.177 176.919 78.0802 176.445 77.8854C175.97 77.6906 175.54 77.4018 175.181 77.0365C174.821 76.6712 174.539 76.2369 174.352 75.7598C174.164 75.2826 174.075 74.7725 174.09 74.26ZM180.92 74.26C180.975 73.837 180.939 73.4071 180.815 72.999C180.69 72.5909 180.48 72.2141 180.199 71.8936C179.917 71.5731 179.571 71.3163 179.182 71.1404C178.793 70.9645 178.372 70.8735 177.945 70.8735C177.518 70.8735 177.097 70.9645 176.708 71.1404C176.319 71.3163 175.973 71.5731 175.691 71.8936C175.41 72.2141 175.2 72.5909 175.075 72.999C174.951 73.4071 174.915 73.837 174.97 74.26C174.954 74.664 175.02 75.067 175.163 75.445C175.307 75.8229 175.525 76.1679 175.805 76.4594C176.085 76.7508 176.422 76.9825 176.794 77.1407C177.166 77.299 177.566 77.3803 177.97 77.38C178.37 77.3737 178.765 77.2874 179.131 77.1262C179.497 76.965 179.827 76.7322 180.102 76.4415C180.377 76.1508 180.591 75.808 180.732 75.4334C180.872 75.0587 180.936 74.6598 180.92 74.26Z" fill="white"/>
<path d="M183.48 72.48H184.31V73.61C184.53 73.2362 184.843 72.9251 185.217 72.7063C185.592 72.4875 186.016 72.3682 186.45 72.36C186.818 72.3674 187.181 72.4491 187.517 72.6004C187.853 72.7517 188.154 72.9694 188.404 73.2403C188.653 73.5113 188.845 73.8298 188.968 74.1769C189.091 74.524 189.143 74.8924 189.12 75.26C189.143 75.628 189.091 75.9969 188.969 76.3446C188.846 76.6922 188.654 77.0115 188.404 77.2832C188.155 77.5549 187.853 77.7735 187.518 77.9259C187.182 78.0783 186.819 78.1613 186.45 78.17C186.022 78.168 185.601 78.0579 185.227 77.8499C184.853 77.6418 184.538 77.3426 184.31 76.98V79.78H183.48V72.48ZM188.27 75.29C188.292 75.0142 188.257 74.7368 188.166 74.4754C188.076 74.214 187.932 73.9742 187.744 73.7711C187.556 73.5681 187.328 73.4063 187.074 73.296C186.821 73.1856 186.547 73.1291 186.27 73.13C185.72 73.1508 185.201 73.3888 184.826 73.7918C184.451 74.1948 184.251 74.7299 184.27 75.28C184.258 75.5535 184.3 75.8267 184.395 76.0837C184.489 76.3408 184.633 76.5766 184.819 76.7775C185.005 76.9784 185.229 77.1404 185.478 77.2541C185.727 77.3678 185.996 77.431 186.27 77.44C186.55 77.4414 186.828 77.3838 187.085 77.2711C187.341 77.1583 187.571 76.9928 187.76 76.7854C187.949 76.5779 188.091 76.3331 188.179 76.0669C188.267 75.8007 188.298 75.5189 188.27 75.24V75.29Z" fill="white"/>
<path d="M190.67 72.48H191.5V73.61C191.718 73.2343 192.03 72.9215 192.405 72.7024C192.78 72.4833 193.206 72.3653 193.64 72.36C194.008 72.3674 194.371 72.4491 194.707 72.6004C195.043 72.7517 195.344 72.9694 195.594 73.2403C195.843 73.5113 196.035 73.8298 196.158 74.1769C196.281 74.524 196.333 74.8924 196.31 75.26C196.333 75.628 196.281 75.9969 196.159 76.3446C196.036 76.6922 195.844 77.0115 195.594 77.2832C195.345 77.5549 195.043 77.7735 194.708 77.9259C194.372 78.0783 194.009 78.1613 193.64 78.17C193.211 78.1709 192.79 78.0619 192.415 77.8536C192.041 77.6453 191.725 77.3446 191.5 76.98V79.78H190.67V72.48ZM195.45 75.29C195.472 75.0142 195.437 74.7368 195.346 74.4754C195.256 74.214 195.112 73.9742 194.924 73.7711C194.736 73.5681 194.508 73.4063 194.254 73.296C194.001 73.1856 193.727 73.1291 193.45 73.13C192.9 73.1508 192.381 73.3888 192.006 73.7918C191.631 74.1948 191.431 74.7299 191.45 75.28C191.438 75.5535 191.48 75.8267 191.575 76.0837C191.669 76.3408 191.813 76.5766 191.999 76.7775C192.185 76.9784 192.409 77.1404 192.658 77.2541C192.907 77.3678 193.176 77.431 193.45 77.44C193.73 77.4414 194.008 77.3838 194.265 77.2711C194.521 77.1583 194.751 76.9928 194.94 76.7854C195.129 76.5779 195.271 76.3331 195.359 76.0669C195.447 75.8007 195.478 75.5189 195.45 75.24V75.29Z" fill="white"/>
<path d="M197.51 75.25C197.51 74.4782 197.817 73.738 198.362 73.1923C198.908 72.6466 199.648 72.34 200.42 72.34C201.192 72.34 201.932 72.6466 202.478 73.1923C203.023 73.738 203.33 74.4782 203.33 75.25C203.333 75.635 203.259 76.0167 203.112 76.3729C202.966 76.729 202.75 77.0524 202.477 77.3242C202.204 77.596 201.88 77.8108 201.524 77.956C201.167 78.1012 200.785 78.174 200.4 78.17C200.017 78.1741 199.637 78.1011 199.282 77.9554C198.928 77.8098 198.606 77.5944 198.337 77.322C198.067 77.0496 197.855 76.7258 197.713 76.3699C197.571 76.0139 197.502 75.6331 197.51 75.25ZM202.51 75.25C202.519 74.9696 202.473 74.6901 202.373 74.4279C202.273 74.1658 202.122 73.9262 201.928 73.7232C201.734 73.5202 201.502 73.3579 201.245 73.2457C200.988 73.1335 200.711 73.0738 200.43 73.07C200.156 73.0776 199.886 73.1399 199.637 73.2532C199.387 73.3664 199.162 73.5284 198.976 73.7296C198.79 73.9308 198.646 74.1671 198.552 74.4247C198.458 74.6824 198.417 74.9561 198.43 75.23C198.421 75.5082 198.467 75.7856 198.566 76.0459C198.665 76.3062 198.814 76.5442 199.006 76.7461C199.198 76.9481 199.428 77.1099 199.682 77.2221C199.937 77.3344 200.212 77.3948 200.49 77.4C200.762 77.3897 201.029 77.3259 201.276 77.2122C201.524 77.0985 201.746 76.9372 201.931 76.7375C202.116 76.5379 202.259 76.3037 202.354 76.0484C202.448 75.7932 202.491 75.5219 202.48 75.25H202.51Z" fill="white"/>
<path d="M204.84 72.48H205.67V73.94C205.844 73.4778 206.156 73.0807 206.564 72.8031C206.972 72.5256 207.456 72.3813 207.95 72.39V73.28H207.89C207.57 73.2829 207.253 73.3538 206.963 73.4882C206.672 73.6225 206.413 73.8172 206.203 74.0593C205.993 74.3014 205.837 74.5854 205.745 74.8924C205.653 75.1994 205.628 75.5224 205.67 75.84V78.07H204.84V72.48Z" fill="white"/>
<path d="M209.52 76.54V73.17H208.79V72.48H209.57V70.8H210.4V72.48H212.17V73.22H210.4V76.48C210.383 76.607 210.396 76.7361 210.438 76.8573C210.479 76.9784 210.548 77.0883 210.639 77.1784C210.73 77.2684 210.841 77.3362 210.962 77.3764C211.084 77.4166 211.213 77.4281 211.34 77.41C211.621 77.4131 211.899 77.3479 212.15 77.22V77.93C211.841 78.0909 211.498 78.1733 211.15 78.17C210.928 78.2063 210.7 78.1891 210.486 78.12C210.272 78.0509 210.077 77.9319 209.917 77.7726C209.758 77.6134 209.639 77.4186 209.57 77.2043C209.501 76.99 209.484 76.7623 209.52 76.54Z" fill="white"/>
<path d="M213.51 75.9V72.48H214.34V75.75C214.312 75.9661 214.332 76.1858 214.398 76.3935C214.464 76.6012 214.575 76.7919 214.723 76.9521C214.87 77.1123 215.052 77.2381 215.253 77.3207C215.455 77.4033 215.672 77.4406 215.89 77.43C216.118 77.4347 216.343 77.392 216.554 77.3046C216.764 77.2172 216.953 77.0871 217.11 76.9225C217.267 76.758 217.388 76.5625 217.466 76.3486C217.543 76.1347 217.575 75.907 217.56 75.68V72.48H218.38V78.07H217.56V77.07C217.37 77.4075 217.092 77.6871 216.756 77.8791C216.419 78.071 216.037 78.1681 215.65 78.16C215.353 78.1835 215.054 78.1402 214.775 78.0331C214.496 77.9261 214.245 77.7581 214.04 77.5414C213.835 77.3246 213.681 77.0647 213.589 76.7807C213.497 76.4967 213.47 76.1958 213.51 75.9Z" fill="white"/>
<path d="M220.26 72.4801H221.09V73.4801C221.278 73.1377 221.556 72.8538 221.895 72.6597C222.234 72.4656 222.62 72.3688 223.01 72.3801C223.306 72.357 223.603 72.4001 223.88 72.506C224.157 72.6119 224.407 72.7781 224.611 72.9925C224.816 73.2069 224.971 73.4641 225.064 73.7456C225.157 74.0271 225.187 74.3258 225.15 74.6201V78.0901H224.31V74.8301C224.34 74.614 224.321 74.3941 224.256 74.1859C224.192 73.9777 224.082 73.7863 223.935 73.6251C223.788 73.464 223.608 73.337 223.406 73.2532C223.205 73.1693 222.988 73.1307 222.77 73.1401C222.542 73.1355 222.316 73.1782 222.105 73.2654C221.895 73.3527 221.705 73.4826 221.547 73.6471C221.389 73.8115 221.267 74.0068 221.188 74.2207C221.11 74.4347 221.076 74.6626 221.09 74.8901V78.0901H220.26V72.4801Z" fill="white"/>
<path d="M226.95 70.29H227.9V71.21H226.95V70.29ZM226.95 72.43H227.79V78.02H226.96L226.95 72.43Z" fill="white"/>
<path d="M230.06 76.54V73.17H229.29V72.48H230.06V70.8H230.9V72.48H232.67V73.22H230.9V76.48C230.883 76.607 230.896 76.7361 230.938 76.8573C230.979 76.9784 231.048 77.0883 231.139 77.1784C231.23 77.2684 231.341 77.3362 231.462 77.3764C231.584 77.4166 231.713 77.4281 231.84 77.41C232.121 77.4131 232.399 77.3479 232.65 77.22V77.93C232.341 78.0909 231.998 78.1733 231.65 78.17C231.431 78.1971 231.209 78.1732 231.001 78.1003C230.793 78.0273 230.605 77.9072 230.451 77.7494C230.297 77.5916 230.181 77.4003 230.114 77.1905C230.046 76.9807 230.028 76.7581 230.06 76.54Z" fill="white"/>
<path d="M234.17 70.29H235.12V71.21H234.17V70.29ZM234.22 72.43H235.05V78.02H234.22V72.43Z" fill="white"/>
<path d="M239.45 77.4801C239.784 77.4812 240.115 77.4114 240.42 77.2752C240.725 77.139 240.998 76.9395 241.22 76.6901L241.74 77.1501C241.455 77.4796 241.099 77.7406 240.699 77.9138C240.299 78.0869 239.866 78.1676 239.43 78.1501C238.695 78.1047 238.004 77.7843 237.495 77.2526C236.985 76.7209 236.695 76.017 236.681 75.2808C236.667 74.5446 236.931 73.8302 237.42 73.2797C237.909 72.7292 238.587 72.3831 239.32 72.3101C239.695 72.3156 240.065 72.4002 240.405 72.5582C240.746 72.7162 241.049 72.9442 241.295 73.2273C241.541 73.5103 241.725 73.8421 241.834 74.201C241.944 74.5598 241.976 74.9378 241.93 75.3101C241.93 75.3801 241.93 75.4701 241.93 75.6001H237.49C237.52 76.1026 237.739 76.5753 238.102 76.9238C238.465 77.2722 238.947 77.4709 239.45 77.4801ZM241.09 74.9501C241.097 74.7089 241.056 74.4688 240.969 74.2436C240.883 74.0184 240.752 73.8125 240.586 73.6377C240.42 73.463 240.22 73.3229 240 73.2255C239.779 73.1281 239.541 73.0752 239.3 73.0701C238.818 73.1 238.364 73.3097 238.029 73.6578C237.694 74.0059 237.502 74.467 237.49 74.9501H241.09Z" fill="white"/>
<path d="M242.93 77.31L243.35 76.71C243.901 77.1543 244.582 77.4071 245.29 77.43C245.96 77.43 246.45 77.08 246.45 76.54C246.45 75.98 245.79 75.76 245.05 75.54C244.31 75.32 243.2 74.99 243.2 73.97C243.211 73.7369 243.269 73.5085 243.373 73.2992C243.476 73.0899 243.621 72.9043 243.8 72.754C243.978 72.6037 244.186 72.492 244.41 72.4259C244.633 72.3598 244.869 72.3408 245.1 72.37C245.811 72.3807 246.504 72.5922 247.1 72.98L246.73 73.61C246.239 73.2767 245.663 73.0895 245.07 73.07C244.41 73.07 243.99 73.41 243.99 73.88C243.99 74.41 244.68 74.61 245.43 74.88C246.18 75.15 247.22 75.48 247.22 76.48C247.211 76.726 247.151 76.9674 247.043 77.1886C246.935 77.4098 246.782 77.6059 246.593 77.7642C246.405 77.9226 246.185 78.0396 245.949 78.1078C245.712 78.1759 245.464 78.1937 245.22 78.16C244.386 78.1278 243.583 77.83 242.93 77.31Z" fill="white"/>
<path d="M248.35 78.96C248.9 78.77 249.12 78.48 249.08 78.02H248.69V76.88H249.69V77.88C249.712 78.0566 249.698 78.2359 249.65 78.407C249.601 78.5782 249.518 78.7377 249.406 78.8759C249.294 79.0142 249.155 79.1283 248.997 79.2115C248.84 79.2947 248.667 79.3452 248.49 79.36L248.35 78.96Z" fill="white"/>
<path d="M254.79 70.48H260.26V71.26H255.65V73.85H259.79V74.62H255.66V77.27H260.33V78.05H254.79V70.48Z" fill="white"/>
<path d="M262.01 70.13H262.84V78.02H262.01V70.13Z" fill="white"/>
<path d="M267.24 77.4801C267.573 77.4823 267.902 77.413 268.206 77.2767C268.51 77.1404 268.781 76.9403 269 76.6901L269.52 77.1501C269.237 77.4799 268.883 77.7414 268.485 77.9146C268.087 78.0878 267.654 78.1683 267.22 78.1501C266.485 78.1047 265.794 77.7843 265.285 77.2526C264.775 76.7209 264.485 76.017 264.471 75.2808C264.457 74.5446 264.721 73.8302 265.21 73.2797C265.699 72.7292 266.377 72.3831 267.11 72.3101C267.485 72.3156 267.855 72.4002 268.195 72.5582C268.536 72.7162 268.839 72.9442 269.085 73.2273C269.331 73.5103 269.515 73.8421 269.624 74.201C269.734 74.5598 269.766 74.9378 269.72 75.3101C269.72 75.3801 269.72 75.4701 269.72 75.6001H265.29C265.32 76.1009 265.537 76.5722 265.898 76.9204C266.26 77.2686 266.738 77.4684 267.24 77.4801ZM268.87 74.9501C268.877 74.7097 268.836 74.4704 268.75 74.2458C268.664 74.0213 268.535 73.8158 268.37 73.6412C268.204 73.4666 268.006 73.3263 267.787 73.2283C267.567 73.1303 267.33 73.0765 267.09 73.0701C266.607 73.0977 266.152 73.3067 265.817 73.6553C265.481 74.0038 265.289 74.4663 265.28 74.9501H268.87Z" fill="white"/>
<path d="M270.36 72.48H271.28L273.16 77.12L275.05 72.48H275.95L273.52 78.11H272.79L270.36 72.48Z" fill="white"/>
<path d="M276.58 76.4C276.58 75.2 277.58 74.57 278.97 74.57C279.545 74.5658 280.118 74.6467 280.67 74.81V74.64C280.67 73.64 280.07 73.12 279.02 73.12C278.43 73.122 277.849 73.2589 277.32 73.52L277.07 72.84C277.693 72.5349 278.377 72.3742 279.07 72.37C279.396 72.3483 279.722 72.391 280.031 72.4957C280.34 72.6004 280.625 72.7649 280.87 72.98C281.073 73.1996 281.229 73.4582 281.329 73.7402C281.429 74.0222 281.47 74.3216 281.45 74.62V78.04H280.63V77.21C280.394 77.5136 280.09 77.7577 279.743 77.9227C279.396 78.0877 279.015 78.169 278.63 78.16C278.379 78.1846 278.125 78.1582 277.884 78.0822C277.644 78.0062 277.421 77.8822 277.229 77.7178C277.038 77.5533 276.881 77.3518 276.77 77.1253C276.658 76.8988 276.594 76.6521 276.58 76.4ZM280.68 75.97V75.48C280.151 75.3212 279.602 75.2403 279.05 75.24C278.05 75.24 277.42 75.69 277.42 76.36C277.42 77.06 278.07 77.47 278.82 77.47C279.041 77.4963 279.265 77.4782 279.479 77.4166C279.693 77.3551 279.893 77.2514 280.066 77.1117C280.239 76.9719 280.383 76.7989 280.488 76.6028C280.594 76.4068 280.659 76.1916 280.68 75.97Z" fill="white"/>
<path d="M283.5 76.54V73.17H282.72V72.48H283.5V70.8H284.33V72.48H286.11V73.22H284.33V76.48C284.313 76.607 284.326 76.7361 284.368 76.8573C284.409 76.9784 284.478 77.0883 284.569 77.1784C284.66 77.2684 284.771 77.3362 284.892 77.3764C285.014 77.4166 285.143 77.4281 285.27 77.41C285.552 77.4139 285.83 77.3487 286.08 77.22V77.93C285.772 78.0925 285.428 78.175 285.08 78.17C284.862 78.1954 284.641 78.1703 284.434 78.0966C284.228 78.0229 284.041 77.9025 283.888 77.7449C283.735 77.5873 283.621 77.3967 283.553 77.1877C283.486 76.9788 283.468 76.7572 283.5 76.54Z" fill="white"/>
<path d="M289.88 77.4801C290.214 77.4812 290.545 77.4114 290.85 77.2752C291.155 77.139 291.428 76.9395 291.65 76.6901L292.17 77.1501C291.885 77.4796 291.529 77.7406 291.129 77.9138C290.729 78.0869 290.295 78.1676 289.86 78.1501C289.125 78.1047 288.434 77.7843 287.925 77.2526C287.415 76.7209 287.125 76.017 287.111 75.2808C287.097 74.5446 287.361 73.8302 287.85 73.2797C288.339 72.7292 289.017 72.3831 289.75 72.3101C290.125 72.3156 290.495 72.4002 290.835 72.5582C291.175 72.7162 291.479 72.9442 291.725 73.2273C291.971 73.5103 292.155 73.8421 292.264 74.201C292.374 74.5598 292.406 74.9378 292.36 75.3101C292.36 75.3801 292.36 75.4701 292.36 75.6001H287.93C287.96 76.1009 288.177 76.5722 288.538 76.9204C288.9 77.2686 289.378 77.4684 289.88 77.4801ZM291.52 74.9501C291.527 74.7089 291.486 74.4688 291.399 74.2436C291.313 74.0184 291.182 73.8125 291.016 73.6377C290.85 73.463 290.65 73.3229 290.43 73.2255C290.209 73.1281 289.971 73.0752 289.73 73.0701C289.248 73.1 288.794 73.3097 288.459 73.6578C288.124 74.0059 287.932 74.467 287.92 74.9501H291.52Z" fill="white"/>
<path d="M297.21 70.48H300.43C300.792 70.4553 301.155 70.5027 301.498 70.6195C301.842 70.7362 302.158 70.9199 302.43 71.16C302.59 71.3174 302.716 71.506 302.801 71.7141C302.885 71.9222 302.926 72.1455 302.92 72.37C302.925 72.7499 302.813 73.122 302.598 73.4354C302.383 73.7487 302.076 73.9878 301.72 74.12C302.62 74.39 303.34 74.91 303.34 75.94C303.34 77.23 302.25 78 300.59 78H297.23L297.21 70.48ZM300.29 73.86C301.29 73.86 302.03 73.39 302.03 72.51C302.03 71.77 301.44 71.28 300.36 71.28H298.06V73.89L300.29 73.86ZM300.6 77.28C301.74 77.28 302.45 76.77 302.45 75.93C302.45 75.11 301.76 74.63 300.45 74.63H298.07V77.3L300.6 77.28Z" fill="white"/>
<path d="M304.79 75.9V72.48H305.62V75.75C305.592 75.9661 305.612 76.1858 305.678 76.3935C305.744 76.6012 305.855 76.7919 306.003 76.9521C306.15 77.1123 306.331 77.2381 306.533 77.3207C306.735 77.4033 306.952 77.4406 307.17 77.43C307.398 77.4347 307.623 77.392 307.834 77.3046C308.044 77.2172 308.233 77.0871 308.39 76.9225C308.547 76.758 308.668 76.5625 308.746 76.3486C308.823 76.1347 308.855 75.907 308.84 75.68V72.48H309.66V78.07H308.84V77.07C308.65 77.4075 308.372 77.6871 308.036 77.8791C307.699 78.071 307.317 78.1681 306.93 78.16C306.633 78.1835 306.334 78.1402 306.055 78.0331C305.776 77.9261 305.525 77.7581 305.32 77.5414C305.115 77.3246 304.961 77.0647 304.869 76.7807C304.777 76.4967 304.75 76.1958 304.79 75.9Z" fill="white"/>
<path d="M311.09 77.31L311.51 76.71C312.057 77.1555 312.735 77.4085 313.44 77.43C314.11 77.43 314.6 77.08 314.6 76.54C314.6 75.98 313.94 75.76 313.2 75.54C312.46 75.32 311.36 74.99 311.36 73.97C311.371 73.7369 311.429 73.5085 311.533 73.2992C311.636 73.0899 311.781 72.9043 311.96 72.754C312.138 72.6037 312.346 72.492 312.57 72.4259C312.794 72.3598 313.029 72.3408 313.26 72.37C313.971 72.3818 314.664 72.5932 315.26 72.98L314.88 73.61C314.393 73.277 313.82 73.0897 313.23 73.07C312.57 73.07 312.15 73.41 312.15 73.88C312.15 74.41 312.84 74.61 313.58 74.88C314.32 75.15 315.38 75.48 315.38 76.48C315.37 76.7255 315.308 76.9661 315.2 77.1866C315.091 77.407 314.938 77.6025 314.75 77.7605C314.562 77.9186 314.343 78.0357 314.107 78.1045C313.871 78.1732 313.624 78.1921 313.38 78.16C312.545 78.1313 311.742 77.8331 311.09 77.31Z" fill="white"/>
<path d="M316.96 70.29H317.96V71.21H316.96V70.29ZM317.01 72.43H317.85V78.02H317.01V72.43Z" fill="white"/>
<path d="M319.79 72.4801H320.62V73.4801C320.806 73.1385 321.083 72.855 321.42 72.6608C321.757 72.4667 322.141 72.3695 322.53 72.3801C322.826 72.357 323.123 72.4001 323.4 72.506C323.677 72.6119 323.927 72.7781 324.131 72.9925C324.336 73.2069 324.491 73.4641 324.584 73.7456C324.677 74.0271 324.707 74.3258 324.67 74.6201V78.0901H323.84V74.8301C323.87 74.6131 323.851 74.3924 323.786 74.1834C323.72 73.9744 323.61 73.7825 323.462 73.6211C323.314 73.4598 323.132 73.333 322.93 73.2499C322.727 73.1667 322.509 73.1292 322.29 73.1401C322.063 73.1354 321.837 73.1781 321.627 73.2654C321.417 73.3528 321.227 73.4829 321.07 73.6475C320.913 73.8121 320.792 74.0076 320.714 74.2215C320.637 74.4354 320.605 74.6631 320.62 74.8901V78.0901H319.79V72.4801Z" fill="white"/>
<path d="M328.91 77.4801C329.244 77.4812 329.575 77.4114 329.88 77.2752C330.185 77.139 330.458 76.9395 330.68 76.6901L331.2 77.1501C330.915 77.4796 330.559 77.7406 330.159 77.9138C329.759 78.0869 329.325 78.1676 328.89 78.1501C328.155 78.1047 327.464 77.7843 326.955 77.2526C326.445 76.7209 326.155 76.017 326.141 75.2808C326.127 74.5446 326.391 73.8302 326.88 73.2797C327.369 72.7292 328.047 72.3831 328.78 72.3101C329.155 72.3156 329.525 72.4002 329.865 72.5582C330.206 72.7162 330.509 72.9442 330.755 73.2273C331.001 73.5103 331.185 73.8421 331.294 74.201C331.404 74.5598 331.436 74.9378 331.39 75.3101C331.39 75.3801 331.39 75.4701 331.39 75.6001H326.96C326.99 76.1009 327.207 76.5722 327.568 76.9204C327.93 77.2686 328.408 77.4684 328.91 77.4801ZM330.55 74.9501C330.557 74.7089 330.516 74.4688 330.429 74.2436C330.343 74.0184 330.212 73.8125 330.046 73.6377C329.88 73.463 329.68 73.3229 329.46 73.2255C329.239 73.1281 329.001 73.0752 328.76 73.0701C328.278 73.1 327.824 73.3097 327.489 73.6578C327.154 74.0059 326.962 74.467 326.95 74.9501H330.55Z" fill="white"/>
<path d="M332.39 77.3101L332.81 76.71C333.366 77.1806 334.063 77.4517 334.79 77.4801C335.46 77.4801 335.95 77.1301 335.95 76.5901C335.95 76.0301 335.29 75.8101 334.55 75.5901C333.81 75.3701 332.7 75.04 332.7 74.02C332.711 73.7869 332.769 73.5586 332.873 73.3493C332.976 73.14 333.121 72.9543 333.3 72.804C333.478 72.6537 333.686 72.542 333.91 72.4759C334.133 72.4098 334.369 72.3908 334.6 72.4201C335.311 72.4307 336.004 72.6422 336.6 73.0301L336.23 73.66C335.739 73.3268 335.163 73.1395 334.57 73.1201C333.91 73.1201 333.49 73.46 333.49 73.93C333.49 74.46 334.18 74.66 334.93 74.93C335.68 75.2 336.72 75.5301 336.72 76.5301C336.711 76.776 336.651 77.0174 336.543 77.2387C336.435 77.4599 336.282 77.656 336.093 77.8143C335.905 77.9726 335.685 78.0896 335.449 78.1578C335.212 78.226 334.964 78.2438 334.72 78.21C333.866 78.1721 333.048 77.8561 332.39 77.3101Z" fill="white"/>
<path d="M337.67 77.31L338.1 76.71C338.647 77.1555 339.325 77.4085 340.03 77.43C340.7 77.43 341.19 77.08 341.19 76.54C341.19 75.98 340.53 75.76 339.79 75.54C339.05 75.32 337.95 74.99 337.95 73.97C337.959 73.7364 338.017 73.5072 338.12 73.2972C338.222 73.0872 338.368 72.9009 338.547 72.7503C338.725 72.5997 338.934 72.4881 339.158 72.4226C339.383 72.3571 339.618 72.3392 339.85 72.37C340.56 72.3834 341.253 72.5946 341.85 72.98L341.47 73.61C340.98 73.2752 340.404 73.0878 339.81 73.07C339.15 73.07 338.73 73.41 338.73 73.88C338.73 74.41 339.43 74.61 340.17 74.88C340.91 75.15 341.97 75.48 341.97 76.48C341.96 76.7255 341.898 76.9661 341.79 77.1865C341.681 77.407 341.528 77.6025 341.34 77.7605C341.152 77.9185 340.933 78.0357 340.697 78.1044C340.461 78.1732 340.214 78.1921 339.97 78.16C339.132 78.1299 338.326 77.832 337.67 77.31Z" fill="white"/>
</svg>
