<svg width="124" height="96" viewBox="0 0 124 96" fill="none" xmlns="http://www.w3.org/2000/svg">
<path d="M104.34 17.2999H100.87C94.7701 17.2999 88.9199 19.7231 84.6066 24.0365C80.2932 28.3498 77.8701 34.1999 77.8701 40.2999C77.8701 46.3999 80.2932 52.25 84.6066 56.5634C88.9199 60.8767 94.7701 63.2999 100.87 63.2999H101.26C97.2044 63.2628 93.316 61.6793 90.3883 58.8725C87.4607 56.0658 85.7147 52.2475 85.5067 48.1971C85.2986 44.1467 86.6443 40.1696 89.269 37.0777C91.8938 33.9858 95.5996 32.0123 99.63 31.5599C100.04 31.4964 100.455 31.463 100.87 31.4599H123.87V17.2999H104.34Z" fill="#00C1F3"/>
<path d="M101.25 31.41C100.692 31.4128 100.134 31.4462 99.58 31.51C99.9904 31.4465 100.405 31.4131 100.82 31.41H101.25Z" fill="black"/>
<path d="M43.61 58.5499H29.4901V95.7799H43.61V58.5499Z" fill="url(#paint0_linear_144_20013)"/>
<path d="M52.46 49.1499C52.8753 49.1477 53.2898 49.1142 53.7 49.0499C53.16 49.1099 52.6 49.1399 52.04 49.1499H52.46Z" fill="#1C75BC"/>
<path d="M52.08 17.2999H29.4901V49.1499H43.61V31.4099H52.46C54.7114 31.3964 56.8836 32.2405 58.5351 33.7707C60.1866 35.301 61.1936 37.4026 61.3514 39.6485C61.5093 41.8944 60.8063 44.1162 59.3851 45.8624C57.9639 47.6087 55.9312 48.7484 53.7 49.0499C57.7469 48.6181 61.4748 46.6528 64.1177 43.5578C66.7606 40.4628 68.1177 36.4731 67.9103 32.4085C67.7029 28.3439 65.9467 24.5131 63.0026 21.7032C60.0584 18.8932 56.1499 17.3176 52.08 17.2999Z" fill="url(#paint1_linear_144_20013)"/>
<path d="M52.04 49.1499H52.46C52.8753 49.1476 53.2898 49.1142 53.7 49.0499C57.7469 48.6181 61.4748 46.6528 64.1177 43.5578C66.7606 40.4628 68.1177 36.4731 67.9103 32.4085C67.7029 28.3439 65.9467 24.5131 63.0026 21.7032C60.0584 18.8932 56.1499 17.3176 52.08 17.2999H52.47C58.57 17.2999 64.4201 19.7231 68.7335 24.0365C73.0468 28.3498 75.47 34.1999 75.47 40.2999C75.47 46.3999 73.0468 52.25 68.7335 56.5634C64.4201 60.8767 58.57 63.2999 52.47 63.2999H18.83V49.1999H52.04V49.1499Z" fill="#00C1F3"/>
<path d="M52.9301 70.85H53.59V76.7H52.9301V70.85Z" fill="#AEB9E1"/>
<path d="M55.34 70.85H55.96L59.67 75.57V70.85H60.34V76.7H59.8L56 71.87V76.7H55.34V70.85Z" fill="#AEB9E1"/>
<path d="M63.52 71.46H61.52V70.85H66.15V71.46H64.15V76.7H63.48L63.52 71.46Z" fill="#AEB9E1"/>
<path d="M67.41 70.85H71.67V71.46H68.08V73.46H71.34V74.06H68.13V76.12H71.76V76.7H67.46L67.41 70.85Z" fill="#AEB9E1"/>
<path d="M73.05 70.8499H75.58C76.1928 70.818 76.7933 71.0302 77.25 71.4399C77.3996 71.5933 77.5172 71.7748 77.5962 71.9739C77.6751 72.173 77.7138 72.3858 77.71 72.5999C77.7109 73.035 77.5459 73.4541 77.2487 73.7718C76.9514 74.0895 76.5442 74.282 76.11 74.3099L77.92 76.7199H77.1L75.39 74.43H73.71V76.7H73.05V70.8499ZM75.52 73.8499C76.4 73.8499 77.04 73.4 77.04 72.64C77.04 71.91 76.48 71.4699 75.53 71.4699H73.71V73.86L75.52 73.8499Z" fill="#AEB9E1"/>
<path d="M79.13 70.85H79.75L83.46 75.57V70.85H84.11V76.7H83.58L79.78 71.87V76.7H79.13V70.85Z" fill="#AEB9E1"/>
<path d="M87.95 70.8099H88.58L91.26 76.74H90.54L89.85 75.18H86.65L85.95 76.74H85.27L87.95 70.8099ZM89.59 74.58L88.26 71.58L86.91 74.58H89.59Z" fill="#AEB9E1"/>
<path d="M93.22 71.46H91.22V70.85H95.85V71.46H93.85V76.7H93.1801L93.22 71.46Z" fill="#AEB9E1"/>
<path d="M97.17 70.85H97.84V76.7H97.17V70.85Z" fill="#AEB9E1"/>
<path d="M99.34 73.8099C99.34 73.0143 99.6561 72.2512 100.219 71.6886C100.781 71.126 101.544 70.8099 102.34 70.8099C103.136 70.8099 103.899 71.126 104.461 71.6886C105.024 72.2512 105.34 73.0143 105.34 73.8099C105.34 74.6056 105.024 75.3687 104.461 75.9313C103.899 76.4939 103.136 76.8099 102.34 76.8099C101.544 76.8099 100.781 76.4939 100.219 75.9313C99.6561 75.3687 99.34 74.6056 99.34 73.8099ZM104.66 73.8099C104.671 73.4972 104.619 73.1854 104.507 72.893C104.396 72.6006 104.227 72.3333 104.011 72.107C103.795 71.8806 103.536 71.6997 103.249 71.5749C102.962 71.45 102.653 71.3838 102.34 71.3799C102.028 71.381 101.719 71.4451 101.432 71.5685C101.145 71.6919 100.885 71.872 100.67 72.098C100.454 72.324 100.286 72.5913 100.176 72.8837C100.066 73.1762 100.017 73.4878 100.03 73.8C100.018 74.1135 100.069 74.4264 100.18 74.72C100.291 75.0136 100.459 75.282 100.675 75.5094C100.891 75.7369 101.151 75.9187 101.439 76.0441C101.726 76.1696 102.036 76.2362 102.35 76.24C102.66 76.2336 102.965 76.1653 103.248 76.0389C103.532 75.9125 103.786 75.7307 103.998 75.5042C104.21 75.2776 104.374 75.011 104.481 74.72C104.587 74.429 104.635 74.1196 104.62 73.8099H104.66Z" fill="#AEB9E1"/>
<path d="M106.71 70.85H107.34L111.05 75.57V70.85H111.7V76.7H111.17L107.37 71.87V76.7H106.72L106.71 70.85Z" fill="#AEB9E1"/>
<path d="M115.54 70.8099H116.16L118.84 76.7H118.13L117.44 75.14H114.23L113.53 76.7H112.85L115.54 70.8099ZM117.18 74.58L115.84 71.58L114.49 74.58H117.18Z" fill="#AEB9E1"/>
<path d="M120 70.85H120.67V76.12H123.98V76.7H119.98L120 70.85Z" fill="#AEB9E1"/>
<path d="M53.07 78.91H55.94C57.68 78.91 58.82 79.8301 58.82 81.3401C58.82 83.0001 57.44 83.85 55.82 83.85H53.95V86.56H53.09L53.07 78.91ZM55.83 83.0901C57.11 83.0901 57.94 82.4101 57.94 81.4001C57.94 80.3001 57.12 79.73 55.88 79.73H53.9301V83.11L55.83 83.0901Z" fill="#AEB9E1"/>
<path d="M60.4 78.91H63.71C64.1056 78.8864 64.5019 78.9414 64.876 79.0719C65.2502 79.2023 65.5948 79.4056 65.89 79.67C66.0852 79.8714 66.2387 80.1093 66.3416 80.3702C66.4446 80.631 66.495 80.9096 66.4901 81.19C66.489 81.7583 66.2728 82.3051 65.8851 82.7206C65.4974 83.1362 64.9669 83.3896 64.4 83.43L66.76 86.57H65.7L63.47 83.57H61.27V86.57H60.4V78.91ZM63.63 82.83C64.79 82.83 65.63 82.23 65.63 81.25C65.63 80.31 64.9 79.74 63.63 79.74H61.26V82.86L63.63 82.83Z" fill="#AEB9E1"/>
<path d="M68 82.77C67.9731 82.2379 68.0547 81.7059 68.2399 81.2063C68.425 80.7067 68.7098 80.25 69.0769 79.8639C69.444 79.4778 69.8858 79.1703 70.3754 78.9602C70.865 78.7502 71.3923 78.6418 71.925 78.6418C72.4578 78.6418 72.985 78.7502 73.4747 78.9602C73.9643 79.1703 74.406 79.4778 74.7731 79.8639C75.1402 80.25 75.425 80.7067 75.6102 81.2063C75.7953 81.7059 75.8769 82.2379 75.85 82.77C75.8635 83.2939 75.7712 83.8151 75.5787 84.3026C75.3863 84.79 75.0976 85.2337 74.7298 85.607C74.362 85.9804 73.9228 86.2758 73.4383 86.4756C72.9538 86.6754 72.4341 86.7756 71.91 86.77C71.3869 86.7771 70.8678 86.6779 70.3843 86.4782C69.9007 86.2786 69.4628 85.9827 69.0972 85.6086C68.7315 85.2345 68.4457 84.7899 68.2571 84.302C68.0685 83.814 67.981 83.2928 68 82.77ZM74.94 82.77C74.94 81.9744 74.6239 81.2113 74.0613 80.6487C73.4987 80.0861 72.7356 79.77 71.94 79.77C71.1443 79.77 70.3813 80.0861 69.8187 80.6487C69.2561 81.2113 68.94 81.9744 68.94 82.77C68.9239 83.1764 68.9894 83.5818 69.1323 83.9625C69.2753 84.3432 69.4929 84.6915 69.7724 84.9868C70.0519 85.2822 70.3877 85.5187 70.7599 85.6824C71.1322 85.8461 71.5334 85.9337 71.94 85.94C72.3487 85.9407 72.7532 85.8578 73.1287 85.6965C73.5042 85.5353 73.8429 85.2989 74.1238 85.0021C74.4047 84.7053 74.622 84.3542 74.7624 83.9703C74.9027 83.5865 74.9632 83.1781 74.94 82.77Z" fill="#AEB9E1"/>
<path d="M77.6801 78.91H78.56L81.36 83.1L84.16 78.91H85.04V86.5901H84.17V80.3701L81.3701 84.4901L78.56 80.38V86.5901H77.72L77.6801 78.91Z" fill="#AEB9E1"/>
<path d="M86.8701 82.77C86.8701 81.7303 87.283 80.7333 88.0182 79.9981C88.7533 79.263 89.7504 78.85 90.79 78.85C91.8297 78.85 92.8267 79.263 93.5619 79.9981C94.297 80.7333 94.71 81.7303 94.71 82.77C94.71 83.8096 94.297 84.8067 93.5619 85.5418C92.8267 86.277 91.8297 86.69 90.79 86.69C89.7504 86.69 88.7533 86.277 88.0182 85.5418C87.283 84.8067 86.8701 83.8096 86.8701 82.77ZM93.81 82.77C93.8332 82.362 93.7727 81.9535 93.6324 81.5697C93.492 81.1858 93.2747 80.8347 92.9938 80.5379C92.7129 80.2411 92.3742 80.0048 91.9987 79.8435C91.6232 79.6822 91.2187 79.5993 90.81 79.6C90.4031 79.5995 90.0003 79.6817 89.6262 79.8418C89.2521 80.0019 88.9145 80.2363 88.6339 80.531C88.3532 80.8257 88.1355 81.1743 87.9938 81.5558C87.8522 81.9373 87.7897 82.3436 87.81 82.75C87.7939 83.1563 87.8594 83.5618 88.0023 83.9425C88.1453 84.3232 88.3629 84.6714 88.6424 84.9668C88.9219 85.2622 89.2577 85.4987 89.6299 85.6624C90.0022 85.826 90.4034 85.9136 90.81 85.92C91.2169 85.9205 91.6197 85.8382 91.9938 85.6782C92.3679 85.5181 92.7056 85.2836 92.9862 84.989C93.2668 84.6943 93.4846 84.3456 93.6262 83.9641C93.7678 83.5827 93.8303 83.1764 93.81 82.77Z" fill="#AEB9E1"/>
<path d="M98.05 79.7H95.47V78.9H101.47V79.7H98.89V86.58H98.01L98.05 79.7Z" fill="#AEB9E1"/>
<path d="M103.14 78.91H108.69V79.7H104V82.32H108.2V83.11H104V85.8H108.75V86.5901H103.14V78.91Z" fill="#AEB9E1"/>
<path d="M110.49 78.9099H113.8C114.601 78.8663 115.388 79.1392 115.99 79.6699C116.378 80.0801 116.589 80.6256 116.58 81.1899C116.579 81.7582 116.363 82.3051 115.975 82.7206C115.587 83.1361 115.057 83.3895 114.49 83.43L116.85 86.5699H115.79L113.56 83.5699H111.34V86.5699H110.47L110.49 78.9099ZM113.72 82.8299C114.88 82.8299 115.72 82.2299 115.72 81.2499C115.72 80.3099 115 79.74 113.72 79.74H111.34V82.8599L113.72 82.8299Z" fill="#AEB9E1"/>
<path d="M117.93 85.47L118.47 84.84C118.815 85.1859 119.225 85.4596 119.676 85.645C120.128 85.8305 120.612 85.9239 121.1 85.92C122.1 85.92 122.82 85.38 122.82 84.62C122.82 83.9 122.43 83.5 120.82 83.16C119.05 82.77 118.24 82.16 118.24 80.94C118.261 80.6345 118.344 80.3365 118.483 80.064C118.623 79.7915 118.816 79.5502 119.052 79.3548C119.288 79.1593 119.561 79.0138 119.854 78.927C120.148 78.8403 120.456 78.814 120.76 78.85C121.748 78.8231 122.711 79.1573 123.47 79.79L122.96 80.46C122.344 79.9244 121.556 79.6296 120.74 79.63C119.74 79.63 119.11 80.18 119.11 80.87C119.11 81.59 119.5 82 121.19 82.36C122.88 82.72 123.7 83.36 123.7 84.54C123.7 85.86 122.6 86.71 121.07 86.71C119.901 86.7241 118.774 86.2788 117.93 85.47Z" fill="#AEB9E1"/>
<path d="M55.94 88.46H56.6801L59.8701 95.5099H59.02L58.2 93.6599H54.39L53.56 95.5099H52.75L55.94 88.46ZM57.89 92.95L56.34 89.3799L54.7401 92.95H57.89Z" fill="#AEB9E1"/>
<path d="M60.65 94.49L61.14 93.9099C61.4525 94.2291 61.8261 94.4821 62.2384 94.6539C62.6507 94.8257 63.0934 94.9127 63.54 94.9099C64.47 94.9099 65.09 94.4099 65.09 93.7199C65.09 93.0699 64.75 92.72 63.28 92.39C61.81 92.06 60.9301 91.52 60.9301 90.39C60.9485 90.1118 61.0233 89.8402 61.1498 89.5918C61.2763 89.3434 61.4519 89.1232 61.666 88.9446C61.8801 88.766 62.1283 88.6328 62.3954 88.5529C62.6625 88.473 62.943 88.4482 63.22 88.4799C64.1182 88.4522 64.9948 88.7587 65.6801 89.34L65.22 89.9499C64.6694 89.4594 63.9574 89.1889 63.22 89.1899C62.31 89.1899 61.73 89.6899 61.73 90.3199C61.73 90.9799 62.09 91.32 63.63 91.68C65.17 92.04 65.9 92.59 65.9 93.68C65.9 94.88 64.9 95.68 63.52 95.68C62.4439 95.6773 61.4123 95.2496 60.65 94.49Z" fill="#AEB9E1"/>
<path d="M66.94 94.49L67.4301 93.91C67.7426 94.2291 68.1161 94.4821 68.5284 94.6539C68.9407 94.8257 69.3834 94.9127 69.83 94.91C70.77 94.91 71.39 94.4099 71.39 93.7199C71.39 93.0699 71.04 92.72 69.57 92.39C68.1 92.06 67.22 91.52 67.22 90.39C67.2398 90.1113 67.3158 89.8396 67.4434 89.5911C67.5709 89.3426 67.7475 89.1225 67.9624 88.9441C68.1773 88.7656 68.426 88.6325 68.6937 88.5527C68.9614 88.473 69.2425 88.4482 69.52 88.48C70.4179 88.4542 71.2938 88.7604 71.98 89.34L71.52 89.95C70.9661 89.465 70.2563 89.1953 69.52 89.1899C68.61 89.1899 68.03 89.69 68.03 90.32C68.03 90.98 68.3901 91.32 69.9301 91.68C71.4701 92.04 72.21 92.59 72.21 93.68C72.21 94.88 71.21 95.68 69.82 95.68C68.7408 95.6778 67.706 95.2502 66.94 94.49Z" fill="#AEB9E1"/>
<path d="M73.4901 92.0299C73.4901 91.0831 73.8661 90.1751 74.5356 89.5056C75.2051 88.8361 76.1132 88.46 77.06 88.46C78.0068 88.46 78.9149 88.8361 79.5844 89.5056C80.2539 90.1751 80.63 91.0831 80.63 92.0299C80.63 92.9768 80.2539 93.8848 79.5844 94.5543C78.9149 95.2238 78.0068 95.5999 77.06 95.5999C76.1132 95.5999 75.2051 95.2238 74.5356 94.5543C73.8661 93.8848 73.4901 92.9768 73.4901 92.0299ZM79.81 92.0299C79.8248 91.6574 79.7645 91.2857 79.6326 90.937C79.5008 90.5882 79.3002 90.2695 79.0427 89.9999C78.7852 89.7302 78.4761 89.5152 78.1337 89.3674C77.7914 89.2197 77.4229 89.1423 77.05 89.14C76.6794 89.1409 76.3128 89.2169 75.9723 89.3631C75.6317 89.5093 75.3243 89.7229 75.0684 89.991C74.8124 90.259 74.6133 90.5761 74.483 90.923C74.3527 91.27 74.2938 91.6397 74.31 92.0099C74.2952 92.3825 74.3556 92.7542 74.4874 93.103C74.6193 93.4517 74.8199 93.7704 75.0774 94.04C75.3349 94.3097 75.644 94.5247 75.9863 94.6725C76.3287 94.8202 76.6972 94.8976 77.07 94.9C77.4406 94.899 77.8072 94.8231 78.1478 94.6768C78.4883 94.5306 78.7958 94.317 79.0517 94.0489C79.3076 93.7809 79.5067 93.4638 79.637 93.1169C79.7673 92.7699 79.8262 92.4002 79.81 92.0299Z" fill="#AEB9E1"/>
<path d="M81.99 92.03C81.978 91.5581 82.0607 91.0885 82.2333 90.6492C82.406 90.2098 82.665 89.8095 82.995 89.472C83.3251 89.1345 83.7195 88.8666 84.155 88.6842C84.5904 88.5018 85.0579 88.4085 85.53 88.41C86.0373 88.3945 86.5422 88.4852 87.0124 88.6764C87.4825 88.8675 87.9075 89.1549 88.26 89.52L87.72 90.1C87.4427 89.7899 87.1039 89.5409 86.7251 89.3687C86.3464 89.1966 85.936 89.1051 85.52 89.1C85.1515 89.1037 84.7876 89.1816 84.4499 89.3291C84.1122 89.4767 83.8077 89.6908 83.5547 89.9588C83.3017 90.2267 83.1054 90.5429 82.9774 90.8885C82.8494 91.2341 82.7925 91.6019 82.81 91.97C82.7925 92.3391 82.8494 92.7079 82.9771 93.0546C83.1048 93.4013 83.3009 93.7188 83.5536 93.9883C83.8064 94.2579 84.1106 94.4739 84.4484 94.6236C84.7862 94.7734 85.1506 94.8538 85.52 94.86C85.9461 94.8634 86.3681 94.776 86.7578 94.6036C87.1475 94.4311 87.4959 94.1777 87.78 93.86L88.3 94.3701C87.9505 94.7659 87.519 95.081 87.0355 95.2934C86.5519 95.5058 86.028 95.6104 85.5 95.6C85.0332 95.6028 84.5706 95.512 84.1395 95.3328C83.7085 95.1536 83.3177 94.8898 82.9905 94.5569C82.6632 94.224 82.406 93.8289 82.2342 93.3949C82.0623 92.9608 81.9793 92.4967 81.99 92.03Z" fill="#AEB9E1"/>
<path d="M89.75 88.51H90.54V95.51H89.75V88.51Z" fill="#AEB9E1"/>
<path d="M95.1801 88.46H95.92L99.11 95.5099H98.26L97.44 93.7H93.63L92.8 95.55H91.9901L95.1801 88.46ZM97.13 92.95L95.54 89.3799L93.94 92.95H97.13Z" fill="#AEB9E1"/>
<path d="M101.43 89.24H99.08V88.51H104.58V89.24H102.23V95.51H101.43V89.24Z" fill="#AEB9E1"/>
<path d="M106.13 88.51H106.92V95.51H106.13V88.51Z" fill="#AEB9E1"/>
<path d="M108.66 92.0299C108.66 91.0831 109.036 90.1751 109.706 89.5056C110.375 88.8361 111.283 88.46 112.23 88.46C113.177 88.46 114.085 88.8361 114.754 89.5056C115.424 90.1751 115.8 91.0831 115.8 92.0299C115.8 92.9768 115.424 93.8848 114.754 94.5543C114.085 95.2238 113.177 95.5999 112.23 95.5999C111.283 95.5999 110.375 95.2238 109.706 94.5543C109.036 93.8848 108.66 92.9768 108.66 92.0299ZM114.98 92.0299C114.995 91.6574 114.934 91.2857 114.803 90.937C114.671 90.5882 114.47 90.2695 114.213 89.9999C113.955 89.7302 113.646 89.5152 113.304 89.3674C112.961 89.2197 112.593 89.1423 112.22 89.14C111.849 89.1409 111.483 89.2169 111.142 89.3631C110.802 89.5093 110.494 89.7229 110.238 89.991C109.982 90.259 109.783 90.5761 109.653 90.923C109.523 91.27 109.464 91.6397 109.48 92.0099C109.465 92.3825 109.526 92.7542 109.657 93.103C109.789 93.4517 109.99 93.7704 110.247 94.04C110.505 94.3097 110.814 94.5247 111.156 94.6725C111.499 94.8202 111.867 94.8976 112.24 94.9C112.611 94.899 112.977 94.8231 113.318 94.6768C113.658 94.5306 113.966 94.317 114.222 94.0489C114.478 93.7809 114.677 93.4638 114.807 93.1169C114.937 92.7699 114.996 92.4002 114.98 92.0299Z" fill="#AEB9E1"/>
<path d="M117.47 88.51H118.21L122.62 94.12V88.51H123.39V95.51H122.76L118.24 89.77V95.51H117.47V88.51Z" fill="#AEB9E1"/>
<path d="M100.82 49.14C98.5811 49.1351 96.4272 48.2828 94.7912 46.7544C93.1552 45.2261 92.1584 43.135 92.0013 40.9017C91.8442 38.6683 92.5385 36.4583 93.9445 34.716C95.3505 32.9737 97.3639 31.8283 99.58 31.51C95.5496 31.9624 91.8438 33.9359 89.219 37.0278C86.5943 40.1197 85.2486 44.0968 85.4566 48.1472C85.6646 52.1976 87.4106 56.0159 90.3383 58.8226C93.2659 61.6293 97.1544 63.2129 101.21 63.25H104.99V49.14H100.82Z" fill="url(#paint2_linear_144_20013)"/>
<path d="M18.02 25.59C16.772 23.4152 15.0408 21.5564 12.9601 20.1572C10.8794 18.7579 8.5049 17.8556 6.02002 17.52C5.41657 17.4382 4.80888 17.3914 4.20001 17.38L0 31.49H4.46002C4.99002 31.49 5.51002 31.55 6.02002 31.62C9.84391 32.1382 13.3605 33.9946 15.9454 36.8597C18.5304 39.7248 20.0165 43.4131 20.14 47.27V32.84C20.0126 30.2904 19.2864 27.8066 18.02 25.59Z" fill="#00C1F3"/>
<path d="M20.16 47.27C20.0366 43.4131 18.5504 39.7248 15.9655 36.8597C13.3805 33.9946 9.86393 32.1382 6.04004 31.62V63.29H20.16V48.36C20.16 48.18 20.16 48 20.16 47.81C20.16 47.62 20.17 47.45 20.16 47.27Z" fill="url(#paint3_linear_144_20013)"/>
<path d="M109.68 31.41V33.77V48.83V49.15V63.26H123.8V49.15V31.41H109.68Z" fill="url(#paint4_linear_144_20013)"/>
<path d="M13.1001 3.41167e-07C14.5178 -0.000209854 15.9119 0.362718 17.1495 1.05418C18.3871 1.74565 19.4271 2.7426 20.1701 3.95C19.4244 2.90463 18.3295 2.16042 17.083 1.85184C15.8366 1.54325 14.5209 1.69064 13.3737 2.26738C12.2264 2.84412 11.3233 3.81216 10.8274 4.99661C10.3316 6.18106 10.2757 7.5038 10.6699 8.72585C11.0641 9.94789 11.8824 10.9886 12.977 11.6601C14.0715 12.3315 15.37 12.5893 16.638 12.3869C17.906 12.1846 19.0599 11.5353 19.891 10.5566C20.7222 9.5778 21.1758 8.33404 21.1701 7.05C21.1669 6.54948 21.0962 6.05165 20.9601 5.56999C21.5435 7.23596 21.582 9.04434 21.0699 10.7336C20.5578 12.4229 19.5217 13.9055 18.1115 14.9671C16.7012 16.0287 14.9898 16.6143 13.2248 16.6392C11.4598 16.664 9.73266 16.1269 8.29306 15.1054C6.85346 14.0839 5.77603 12.6311 5.21658 10.9569C4.65714 9.2827 4.64464 7.47396 5.18094 5.79222C5.71723 4.11048 6.77455 2.64289 8.19992 1.60165C9.62529 0.560414 11.3449 -0.000505011 13.1101 3.41167e-07H13.1001Z" fill="#00C1F3"/>
<path d="M15.77 12.44C14.8438 12.4416 13.9329 12.2045 13.125 11.7516C12.3171 11.2988 11.6396 10.6453 11.1577 9.85439C10.6758 9.06345 10.4058 8.16169 10.3739 7.23607C10.3419 6.31045 10.549 5.39222 10.9752 4.56992C11.4014 3.74762 12.0322 3.04899 12.8069 2.54144C13.5816 2.03389 14.474 1.73454 15.3981 1.67224C16.3222 1.60995 17.2467 1.78681 18.0826 2.18578C18.9184 2.58475 19.6373 3.19237 20.17 3.95003C20.4876 4.46038 20.7491 5.00352 20.95 5.57002C21.0862 6.05168 21.1568 6.54951 21.16 7.05004C21.16 7.75786 21.0206 8.45874 20.7497 9.11269C20.4789 9.76663 20.0818 10.3608 19.5813 10.8613C19.0808 11.3618 18.4866 11.7589 17.8327 12.0297C17.1787 12.3006 16.4778 12.44 15.77 12.44Z" fill="url(#paint5_linear_144_20013)"/>
<defs>
<linearGradient id="paint0_linear_144_20013" x1="36.55" y1="81.2299" x2="36.55" y2="68.5799" gradientUnits="userSpaceOnUse">
<stop stop-color="#1C75BC"/>
<stop offset="0.36" stop-color="#1665A3"/>
<stop offset="0.77" stop-color="#0E5083"/>
</linearGradient>
<linearGradient id="paint1_linear_144_20013" x1="46.74" y1="35.1199" x2="62.14" y2="41.8099" gradientUnits="userSpaceOnUse">
<stop stop-color="#1C75BC"/>
<stop offset="0.36" stop-color="#1665A3"/>
<stop offset="0.77" stop-color="#0E5083"/>
</linearGradient>
<linearGradient id="paint2_linear_144_20013" x1="98.14" y1="48.01" x2="87.92" y2="38.92" gradientUnits="userSpaceOnUse">
<stop stop-color="#1C75BC"/>
<stop offset="0.36" stop-color="#1665A3"/>
<stop offset="0.77" stop-color="#0E5083"/>
</linearGradient>
<linearGradient id="paint3_linear_144_20013" x1="13.03" y1="47.6" x2="18.58" y2="36.62" gradientUnits="userSpaceOnUse">
<stop stop-color="#1C75BC"/>
<stop offset="0.36" stop-color="#1665A3"/>
<stop offset="0.77" stop-color="#0E5083"/>
</linearGradient>
<linearGradient id="paint4_linear_144_20013" x1="116.74" y1="43.53" x2="116.74" y2="31.14" gradientUnits="userSpaceOnUse">
<stop stop-color="#1C75BC"/>
<stop offset="0.36" stop-color="#1665A3"/>
<stop offset="0.77" stop-color="#0E5083"/>
</linearGradient>
<linearGradient id="paint5_linear_144_20013" x1="15.48" y1="7.22003" x2="11.15" y2="9.70004" gradientUnits="userSpaceOnUse">
<stop stop-color="#1C75BC"/>
<stop offset="0.36" stop-color="#1665A3"/>
<stop offset="0.77" stop-color="#0E5083"/>
</linearGradient>
</defs>
</svg>
