<svg width="22" height="20" viewBox="0 0 22 20" fill="none" xmlns="http://www.w3.org/2000/svg">
<path d="M7.5 18.75C7.49997 18.7943 7.48817 18.8377 7.46582 18.876C7.44323 18.9144 7.41006 18.9471 7.37109 18.9688C7.33232 18.9902 7.28844 19.001 7.24414 19C7.22193 18.9995 7.19982 18.9955 7.17871 18.9893L7.11816 18.9619L4.88965 17.5752L4.625 17.4102L4.36035 17.5752L2.13184 18.9619C2.09399 18.9854 2.05041 18.9989 2.00586 19C1.96156 19.001 1.91768 18.9902 1.87891 18.9688C1.83998 18.9471 1.80678 18.9153 1.78418 18.877C1.7616 18.8386 1.75003 18.7945 1.75 18.75V16.6055C2.61852 17.1076 3.60906 17.3753 4.62402 17.374V17.375C5.6396 17.3766 6.63097 17.1079 7.5 16.6055V18.75ZM4.625 8C5.58641 8 6.50866 8.3817 7.18848 9.06152C7.8683 9.74134 8.25 10.6636 8.25 11.625C8.25 12.5864 7.8683 13.5087 7.18848 14.1885C6.50866 14.8683 5.58641 15.25 4.625 15.25C3.66359 15.25 2.74134 14.8683 2.06152 14.1885C1.3817 13.5087 1 12.5864 1 11.625C1 10.6636 1.3817 9.74134 2.06152 9.06152C2.74134 8.3817 3.66359 8 4.625 8ZM2.9375 0.5H19.0625C19.5764 0.5 20.0693 0.704031 20.4326 1.06738C20.796 1.43073 21 1.92364 21 2.4375V13.3125C21 13.8264 20.796 14.3193 20.4326 14.6826C20.0693 15.046 19.5764 15.25 19.0625 15.25H9.625V14.4629C10.3235 13.2359 10.5486 11.7938 10.251 10.4102C9.94303 8.979 9.10028 7.7193 7.89551 6.8877C7.68644 6.74338 7.46899 6.61439 7.24512 6.5H16.25C16.5815 6.5 16.8994 6.36821 17.1338 6.13379C17.3682 5.89937 17.5 5.58152 17.5 5.25C17.5 4.91848 17.3682 4.60063 17.1338 4.36621C16.8994 4.13179 16.5815 4 16.25 4H5.75C5.41848 4 5.10063 4.13179 4.86621 4.36621C4.63179 4.60063 4.5 4.91848 4.5 5.25C4.5 5.46964 4.55883 5.68274 4.66602 5.87012C4.36705 5.86822 4.06671 5.88922 3.76758 5.93457C2.74464 6.08973 1.79061 6.51669 1 7.16016V2.4375C1 1.92364 1.20403 1.43073 1.56738 1.06738C1.93073 0.704031 2.42364 0.5 2.9375 0.5ZM11.75 9.25C11.4185 9.25 11.1006 9.38179 10.8662 9.61621C10.6318 9.85063 10.5 10.1685 10.5 10.5C10.5 10.8315 10.6318 11.1494 10.8662 11.3838C11.1006 11.6182 11.4185 11.75 11.75 11.75H16.25C16.5815 11.75 16.8994 11.6182 17.1338 11.3838C17.3682 11.1494 17.5 10.8315 17.5 10.5C17.5 10.1685 17.3682 9.85063 17.1338 9.61621C16.8994 9.38179 16.5815 9.25 16.25 9.25H11.75Z" stroke="#F7F7F7"/>
</svg>
