<svg width="24" height="24" viewBox="0 0 24 24" fill="none" xmlns="http://www.w3.org/2000/svg">
<path d="M8.5 21.75C8.49997 21.7943 8.48817 21.8377 8.46582 21.876C8.44323 21.9144 8.41006 21.9471 8.37109 21.9688C8.33232 21.9902 8.28844 22.001 8.24414 22C8.22193 21.9995 8.19982 21.9955 8.17871 21.9893L8.11816 21.9619L5.88965 20.5752L5.625 20.4102L5.36035 20.5752L3.13184 21.9619C3.09399 21.9854 3.05041 21.9989 3.00586 22C2.96156 22.001 2.91768 21.9902 2.87891 21.9688C2.83998 21.9471 2.80678 21.9153 2.78418 21.877C2.7616 21.8386 2.75003 21.7945 2.75 21.75V19.6055C3.61852 20.1076 4.60906 20.3753 5.62402 20.374V20.375C6.6396 20.3766 7.63097 20.1079 8.5 19.6055V21.75ZM5.625 11C6.58641 11 7.50866 11.3817 8.18848 12.0615C8.8683 12.7413 9.25 13.6636 9.25 14.625C9.25 15.5864 8.8683 16.5087 8.18848 17.1885C7.50866 17.8683 6.58641 18.25 5.625 18.25C4.66359 18.25 3.74134 17.8683 3.06152 17.1885C2.3817 16.5087 2 15.5864 2 14.625C2 13.6636 2.3817 12.7413 3.06152 12.0615C3.74134 11.3817 4.66359 11 5.625 11ZM3.9375 3.5H20.0625C20.5764 3.5 21.0693 3.70403 21.4326 4.06738C21.796 4.43073 22 4.92364 22 5.4375V16.3125C22 16.8264 21.796 17.3193 21.4326 17.6826C21.0693 18.046 20.5764 18.25 20.0625 18.25H10.625V17.4629C11.3235 16.2359 11.5486 14.7938 11.251 13.4102C10.943 11.979 10.1003 10.7193 8.89551 9.8877C8.68644 9.74338 8.46899 9.61439 8.24512 9.5H17.25C17.5815 9.5 17.8994 9.36821 18.1338 9.13379C18.3682 8.89937 18.5 8.58152 18.5 8.25C18.5 7.91848 18.3682 7.60063 18.1338 7.36621C17.8994 7.13179 17.5815 7 17.25 7H6.75C6.41848 7 6.10063 7.13179 5.86621 7.36621C5.63179 7.60063 5.5 7.91848 5.5 8.25C5.5 8.46964 5.55883 8.68274 5.66602 8.87012C5.36705 8.86822 5.06671 8.88922 4.76758 8.93457C3.74464 9.08973 2.79061 9.51669 2 10.1602V5.4375C2 4.92364 2.20403 4.43073 2.56738 4.06738C2.93073 3.70403 3.42364 3.5 3.9375 3.5ZM12.75 12.25C12.4185 12.25 12.1006 12.3818 11.8662 12.6162C11.6318 12.8506 11.5 13.1685 11.5 13.5C11.5 13.8315 11.6318 14.1494 11.8662 14.3838C12.1006 14.6182 12.4185 14.75 12.75 14.75H17.25C17.5815 14.75 17.8994 14.6182 18.1338 14.3838C18.3682 14.1494 18.5 13.8315 18.5 13.5C18.5 13.1685 18.3682 12.8506 18.1338 12.6162C17.8994 12.3818 17.5815 12.25 17.25 12.25H12.75Z" stroke="#F7F7F7"/>
</svg>
