<svg width="24" height="24" viewBox="0 0 24 24" fill="none" xmlns="http://www.w3.org/2000/svg">
<path d="M6.75005 2.99402V5.24402M17.25 2.99402V5.24402M2.99805 18.744V7.49102C2.99805 6.89428 3.2351 6.32199 3.65706 5.90003C4.07901 5.47807 4.65131 5.24102 5.24805 5.24102H18.748C19.3448 5.24102 19.9171 5.47807 20.339 5.90003C20.761 6.32199 20.998 6.89428 20.998 7.49102V18.742M20.998 18.742C20.998 19.3388 20.761 19.9111 20.339 20.333C19.9171 20.755 19.3448 20.992 18.748 20.992H5.24805C4.65131 20.992 4.07901 20.755 3.65706 20.333C3.2351 19.9111 2.99805 19.3388 2.99805 18.742V11.242C2.99805 10.6453 3.2351 10.073 3.65706 9.65103C4.07901 9.22907 4.65131 8.99202 5.24805 8.99202H18.748C19.3448 8.99202 19.9171 9.22907 20.339 9.65103C20.761 10.073 20.998 10.6453 20.998 11.242V18.742ZM14.248 12.742H16.498M7.49805 14.992H11.998M12 12.742H12.005V12.748H12V12.742ZM11.999 17.242H12.005V17.248H11.999V17.242ZM9.74905 17.243H9.75405V17.249H9.75005V17.243H9.74905ZM7.49905 17.243H7.50405V17.248H7.49805V17.243H7.49905ZM14.249 14.996H14.254V15.001H14.249V14.996ZM14.249 17.243H14.255V17.249H14.249V17.243ZM16.499 14.995H16.505V15H16.5L16.499 14.995Z" stroke="#F7F7F7" stroke-width="1.5" stroke-linecap="round" stroke-linejoin="round"/>
</svg>
