<svg width="24" height="24" viewBox="0 0 24 24" fill="none" xmlns="http://www.w3.org/2000/svg">
<path d="M11.4799 3.49897C11.5222 3.3958 11.5942 3.30755 11.6868 3.24543C11.7794 3.18331 11.8884 3.15015 11.9999 3.15015C12.1114 3.15015 12.2204 3.18331 12.313 3.24543C12.4056 3.30755 12.4776 3.3958 12.5199 3.49897L14.6449 8.60997C14.6847 8.70561 14.7501 8.78841 14.8339 8.84928C14.9177 8.91015 15.0167 8.94672 15.1199 8.95497L20.6379 9.39697C21.1369 9.43697 21.3389 10.06 20.9589 10.385L16.7549 13.987C16.6764 14.0542 16.6178 14.1417 16.5857 14.2399C16.5536 14.3382 16.5492 14.4434 16.5729 14.544L17.8579 19.929C17.8837 20.037 17.877 20.1503 17.8385 20.2545C17.8 20.3587 17.7314 20.4491 17.6416 20.5144C17.5517 20.5797 17.4445 20.6168 17.3335 20.6212C17.2225 20.6256 17.1127 20.597 17.0179 20.539L12.2929 17.654C12.2047 17.6001 12.1033 17.5715 11.9999 17.5715C11.8965 17.5715 11.7951 17.6001 11.7069 17.654L6.98192 20.54C6.88718 20.598 6.77737 20.6266 6.66638 20.6222C6.55538 20.6178 6.44817 20.5807 6.35829 20.5154C6.26841 20.4501 6.19988 20.3597 6.16137 20.2555C6.12286 20.1513 6.11609 20.038 6.14192 19.93L7.42692 14.544C7.45075 14.4434 7.44637 14.3381 7.41426 14.2399C7.38215 14.1416 7.32355 14.0541 7.24492 13.987L3.04092 10.385C2.95626 10.3128 2.89493 10.2171 2.86468 10.1101C2.83443 10.003 2.83664 9.88942 2.87101 9.78362C2.90538 9.67782 2.97038 9.58461 3.05777 9.51578C3.14516 9.44695 3.25101 9.4056 3.36192 9.39697L8.87992 8.95497C8.98317 8.94672 9.08214 8.91015 9.16595 8.84928C9.24975 8.78841 9.31514 8.70561 9.35492 8.60997L11.4799 3.49897Z" stroke="#F7F7F7" stroke-width="1.5" stroke-linecap="round" stroke-linejoin="round"/>
</svg>
