<svg width="24" height="24" viewBox="0 0 24 24" fill="none" xmlns="http://www.w3.org/2000/svg">
<mask id="mask0_35_5225" style="mask-type:alpha" maskUnits="userSpaceOnUse" x="0" y="0" width="24" height="24">
<rect width="24" height="24" fill="#D9D9D9"/>
</mask>
<g mask="url(#mask0_35_5225)">
<path d="M6 21.5C5.30133 21.5 4.71 21.258 4.226 20.774C3.742 20.29 3.5 19.7002 3.5 19.0045V16.5H6.5V2.69226L7.88475 3.88476L9.2885 2.69226L10.6923 3.88476L12.0963 2.69226L13.5 3.88476L14.9038 2.69226L16.3077 3.88476L17.7115 2.69226L19.1152 3.88476L20.5 2.69226V19C20.5 19.6987 20.258 20.29 19.774 20.774C19.29 21.258 18.6987 21.5 18 21.5H6ZM18 20C18.2833 20 18.5208 19.9042 18.7125 19.7125C18.9042 19.5208 19 19.2833 19 19V5.00001H8V16.5H17V19C17 19.2833 17.0958 19.5208 17.2875 19.7125C17.4792 19.9042 17.7167 20 18 20ZM9.19225 8.75001V7.25001H14.8652V8.75001H9.19225ZM9.19225 11.75V10.25H14.8652V11.75H9.19225ZM16.9423 8.88451C16.6974 8.88451 16.4888 8.79834 16.3163 8.62601C16.1439 8.45351 16.0577 8.24484 16.0577 8.00001C16.0577 7.75518 16.1439 7.54651 16.3163 7.37401C16.4888 7.20168 16.6974 7.11551 16.9423 7.11551C17.1871 7.11551 17.3958 7.20168 17.5682 7.37401C17.7407 7.54651 17.827 7.75518 17.827 8.00001C17.827 8.24484 17.7407 8.45351 17.5682 8.62601C17.3958 8.79834 17.1871 8.88451 16.9423 8.88451ZM16.9423 11.8845C16.6974 11.8845 16.4888 11.7983 16.3163 11.626C16.1439 11.4535 16.0577 11.2448 16.0577 11C16.0577 10.7552 16.1439 10.5465 16.3163 10.374C16.4888 10.2017 16.6974 10.1155 16.9423 10.1155C17.1871 10.1155 17.3958 10.2017 17.5682 10.374C17.7407 10.5465 17.827 10.7552 17.827 11C17.827 11.2448 17.7407 11.4535 17.5682 11.626C17.3958 11.7983 17.1871 11.8845 16.9423 11.8845ZM6 20H15.5V18H5V19C5 19.2833 5.09583 19.5208 5.2875 19.7125C5.47917 19.9042 5.71667 20 6 20Z" fill="#F7F7F7"/>
</g>
</svg>
