<svg width="24" height="24" viewBox="0 0 24 24" fill="none" xmlns="http://www.w3.org/2000/svg">
<path d="M5 3.75H19C20.2486 3.75 21.25 4.75205 21.25 6V13C21.25 14.2479 20.2486 15.25 19 15.25H16.4746C16.2126 15.2502 15.9536 15.3097 15.7178 15.4238C15.5409 15.5094 15.3801 15.6241 15.2422 15.7627L15.1143 15.9062L12.1895 19.5557V19.5566C12.1661 19.5859 12.1363 19.6097 12.1025 19.626C12.0688 19.6422 12.0316 19.6504 11.9941 19.6504C11.9567 19.6504 11.9195 19.6422 11.8857 19.626C11.8519 19.6097 11.8213 19.585 11.7979 19.5557L8.875 15.9092H8.87598C8.71311 15.7037 8.50554 15.538 8.26953 15.4238C8.03335 15.3097 7.77404 15.2499 7.51172 15.25H5C3.75221 15.25 2.75 14.2478 2.75 13V6C2.75 4.75221 3.75221 3.75 5 3.75Z" stroke="#AEB9E1" stroke-width="1.5"/>
</svg>
