<svg width="24" height="24" viewBox="0 0 24 24" fill="none" xmlns="http://www.w3.org/2000/svg">
<path d="M10.1993 3.34473C11.1908 2.54838 12.8019 2.55115 13.8125 3.35645L20.3565 8.59082V8.5918C20.6932 8.86648 20.9983 9.30922 21.1973 9.83008C21.3964 10.3511 21.4646 10.8864 21.3985 11.3164L20.1407 18.8418C19.9122 20.1571 18.6204 21.25 17.2998 21.25H6.70023C5.44187 21.25 4.25557 20.3145 3.92387 19.0996L3.86918 18.8535L2.60941 11.3164V11.3145C2.53627 10.8826 2.60028 10.3493 2.79789 9.83105C2.99549 9.31288 3.30317 8.87155 3.6475 8.59668L3.64945 8.5957L10.1993 3.3457V3.34473Z" stroke="#AEB9E1" stroke-width="1.5"/>
<path d="M12 18.75C11.59 18.75 11.25 18.41 11.25 18V15C11.25 14.59 11.59 14.25 12 14.25C12.41 14.25 12.75 14.59 12.75 15V18C12.75 18.41 12.41 18.75 12 18.75Z" fill="#00031A"/>
</svg>
