<svg width="51" height="50" viewBox="0 0 51 50" fill="none" xmlns="http://www.w3.org/2000/svg">
<path d="M9.10986 21.5526C11.1076 18.9682 13.0964 16.3849 15.0762 13.8025C15.4268 13.3466 15.6755 13.3058 16.149 13.6233C17.1259 14.271 18.0938 14.9344 19.0797 15.5695C19.3794 15.7624 19.7017 15.9136 20.0387 16.0191C20.9976 16.3146 21.9625 16.5819 22.9304 16.846C23.0887 16.8884 23.2546 16.8884 23.4129 16.846C24.4257 16.5536 25.4326 16.236 26.4455 15.9405C26.6457 15.8823 26.8521 15.8506 27.0598 15.8462C28.3933 15.8462 29.7298 15.8462 31.0633 15.8462C31.2462 15.842 31.4249 15.7878 31.5818 15.689C32.6156 15.013 33.6405 14.3213 34.6713 13.6359C35.1418 13.3215 35.4055 13.3655 35.7411 13.8245L40.9103 20.8484C41.2519 21.3137 41.21 21.6092 40.7875 22.0022C39.8735 22.8323 38.9535 23.656 38.0395 24.4892C37.9231 24.5961 37.8283 24.7266 37.7608 24.8728C37.1435 26.21 36.5342 27.5505 35.9329 28.894C35.8851 29.0159 35.8851 29.1526 35.9329 29.2745C36.6641 30.8905 35.7681 32.5411 34.06 32.7109C34.0302 32.7159 34.0011 32.7244 33.9731 32.7361C33.8262 34.2861 32.8733 35.0124 31.6956 35.1035C31.6887 35.7184 31.457 36.3071 31.0483 36.7479C30.8396 36.969 30.5913 37.1447 30.3178 37.265C30.0442 37.3853 29.7507 37.4478 29.4541 37.449C29.3822 38.4708 28.9537 39.26 28.0247 39.6499C27.0958 40.0397 26.2657 39.7693 25.5285 39.0368C24.8872 39.8133 24.1201 40.2598 23.1312 40.0114C22.1423 39.763 21.6029 39.0682 21.4111 38.0181C21.2073 38.0181 21.0036 38.0181 20.8118 37.9835C20.3158 37.9247 19.8541 37.6891 19.5039 37.3159C19.1537 36.9428 18.9363 36.4548 18.8879 35.9336C18.87 35.7607 18.864 35.638 18.6362 35.6192C18.0679 35.574 17.5394 35.2961 17.1649 34.8455C16.7903 34.3948 16.5998 33.8076 16.6345 33.2108V32.975C16.4636 32.9279 16.2988 32.8964 16.143 32.8398C15.8171 32.7211 15.5223 32.5239 15.2822 32.2641C15.042 32.0042 14.8632 31.689 14.7601 31.3436C14.657 30.9983 14.6324 30.6323 14.6883 30.2752C14.7443 29.918 14.8791 29.5796 15.0822 29.287C15.1145 29.2545 15.1401 29.2154 15.1577 29.1722C15.1752 29.129 15.1842 29.0825 15.1842 29.0355C15.1842 28.9885 15.1752 28.942 15.1577 28.8988C15.1401 28.8556 15.1145 28.8165 15.0822 28.784C14.2551 27.6301 13.446 26.4637 12.6129 25.3255C12.4056 25.0667 12.1737 24.8307 11.9207 24.6212C11.1176 23.8887 10.3085 23.1655 9.50542 22.4204C9.37969 22.2953 9.26064 22.1631 9.14882 22.0242C9.10986 21.8576 9.10986 21.7067 9.10986 21.5526ZM19.8229 29.4411C21.3542 29.243 22.442 30.2051 22.5409 31.7583C24.231 31.9155 24.9382 33.28 24.7254 34.6068C24.7254 34.6068 24.7554 34.6445 24.7704 34.6477C25.0997 34.7112 25.4111 34.852 25.6813 35.0596C25.9515 35.2671 26.1735 35.5359 26.3308 35.8461C26.4881 36.1562 26.5766 36.4996 26.5897 36.8507C26.6029 37.2017 26.5402 37.5514 26.4065 37.8735C26.3796 37.9363 26.3916 38.0747 26.4305 38.0998C26.6433 38.2656 26.8814 38.3922 27.1347 38.474C27.3224 38.5072 27.5153 38.4739 27.6829 38.3794C27.8506 38.2849 27.9835 38.1346 28.0607 37.9521C28.1559 37.7672 28.1923 37.5554 28.1649 37.3473C28.1374 37.1392 28.0473 36.9458 27.9079 36.795C27.4883 36.3234 27.0478 35.8738 26.6163 35.4148C26.5504 35.3456 26.4814 35.2765 26.4185 35.2042C26.3575 35.1439 26.3086 35.0716 26.2746 34.9913C26.2406 34.911 26.2223 34.8244 26.2206 34.7365C26.2189 34.6487 26.234 34.5614 26.2649 34.4797C26.2958 34.398 26.3419 34.3237 26.4005 34.2609C26.4585 34.197 26.5282 34.1461 26.6055 34.1113C26.6828 34.0765 26.766 34.0586 26.85 34.0586C26.9341 34.0586 27.0173 34.0765 27.0946 34.1113C27.1719 34.1461 27.2416 34.197 27.2995 34.2609C27.785 34.7577 28.2555 35.267 28.7319 35.7732C28.8172 35.8782 28.9221 35.9637 29.04 36.0247C29.158 36.0856 29.2865 36.1206 29.4178 36.1275C29.5491 36.1344 29.6804 36.1131 29.8035 36.0648C29.9267 36.0166 30.0392 35.9425 30.1341 35.847C30.2289 35.7516 30.3042 35.6367 30.3553 35.5097C30.4064 35.3826 30.4322 35.2459 30.4311 35.1079C30.43 34.97 30.402 34.8338 30.3489 34.7076C30.2959 34.5814 30.2188 34.4679 30.1224 34.3741C29.3642 33.5472 28.5851 32.7392 27.815 31.9218C27.6567 31.7636 27.5067 31.5968 27.3655 31.4218C27.2729 31.3008 27.2263 31.1481 27.2346 30.9931C27.2428 30.8381 27.3055 30.6918 27.4104 30.5824C27.5165 30.467 27.6591 30.3962 27.8115 30.3835C27.9638 30.3708 28.1153 30.4169 28.2375 30.5132C28.3198 30.5801 28.396 30.6549 28.4652 30.7364C29.2943 31.6147 30.1224 32.494 30.9495 33.3743C31.0688 33.5282 31.2275 33.6431 31.4069 33.7054C31.5864 33.7678 31.7791 33.7751 31.9623 33.7264C32.1323 33.6803 32.2871 33.5861 32.4097 33.4542C32.5324 33.3224 32.6183 33.1578 32.6581 32.9783C32.6979 32.7988 32.6902 32.6114 32.6357 32.4362C32.5811 32.261 32.482 32.1049 32.3489 31.9846C31.1143 30.6673 29.8707 29.3562 28.633 28.042C28.5038 27.9153 28.3827 27.7798 28.2705 27.6364C28.1732 27.5113 28.1254 27.3518 28.1371 27.1909C28.1489 27.0299 28.2191 26.8799 28.3334 26.7718C28.4403 26.6658 28.5794 26.6026 28.7262 26.5934C28.8731 26.5842 29.0183 26.6296 29.1365 26.7215C29.2428 26.8114 29.343 26.9091 29.4361 27.0139C30.6977 28.3501 31.9563 29.6926 33.2209 31.0257C33.3073 31.1363 33.4149 31.2267 33.5366 31.2909C33.6584 31.3552 33.7917 31.3919 33.9278 31.3987C34.0639 31.4055 34.1999 31.3823 34.327 31.3305C34.454 31.2787 34.5693 31.1995 34.6653 31.098C35.0669 30.6736 35.0339 30.0668 34.5754 29.5857C32.1781 27.0705 29.7738 24.5552 27.3625 22.04C27.2345 21.922 27.0737 21.8504 26.904 21.8356C26.1668 21.7633 25.4266 21.7319 24.6924 21.6595C24.6038 21.6358 24.51 21.6467 24.4285 21.69C24.3469 21.7334 24.2831 21.8064 24.2489 21.8953C23.7855 22.7883 23.309 23.6728 22.8195 24.5489C22.6796 24.824 22.4884 25.0667 22.2572 25.2627C22.0261 25.4586 21.7598 25.6039 21.4741 25.6898C21.1885 25.7756 20.8892 25.8004 20.5943 25.7625C20.2993 25.7247 20.0146 25.6251 19.757 25.4695C19.4995 25.314 19.2744 25.1057 19.0951 24.8571C18.9158 24.6084 18.7859 24.3245 18.7132 24.0222C18.6405 23.7199 18.6265 23.4053 18.672 23.0972C18.7174 22.7891 18.8214 22.4937 18.9778 22.2286C19.7 20.8609 20.4432 19.509 21.1774 18.1413C21.2373 18.0281 21.2942 17.915 21.3692 17.7672C20.7698 17.6006 20.2214 17.4308 19.6581 17.2924C19.6003 17.2945 19.5436 17.3096 19.4919 17.3367C19.4402 17.3638 19.3946 17.4023 19.3584 17.4496C17.5604 19.7553 15.7624 22.0525 13.9644 24.3414C13.8805 24.4483 13.8026 24.5584 13.7187 24.6716L16.122 28.0797C16.4212 27.8014 16.7858 27.612 17.1782 27.531C17.5706 27.4501 17.9764 27.4806 18.3537 27.6194C18.7311 27.7582 19.0662 28.0003 19.3245 28.3206C19.5828 28.6408 19.7549 29.0277 19.8229 29.4411ZM34.908 28.0797C35.4444 26.9007 35.9509 25.7657 36.4813 24.6401C36.5358 24.5512 36.5599 24.4455 36.5496 24.3404C36.5392 24.2352 36.495 24.1369 36.4243 24.0616C34.7462 21.8398 33.0771 19.6159 31.4169 17.3899C31.3644 17.3118 31.2934 17.2493 31.2109 17.2085C31.1285 17.1677 31.0374 17.1501 30.9465 17.1572C29.6969 17.1572 28.4443 17.1572 27.1917 17.1572C27.0154 17.1572 26.8399 17.1826 26.6702 17.2327C25.3098 17.6393 23.9503 18.0523 22.5918 18.4715C22.4842 18.5005 22.3891 18.567 22.3221 18.6601C21.546 20.0812 20.7728 21.4898 20.0147 22.9392C19.9126 23.1394 19.8801 23.3706 19.9227 23.5932C19.9654 23.8157 20.0805 24.0158 20.2484 24.1591C20.36 24.2601 20.492 24.3331 20.6346 24.3725C20.7771 24.4119 20.9263 24.4166 21.0709 24.3863C21.2154 24.3559 21.3514 24.2914 21.4685 24.1975C21.5857 24.1037 21.6808 23.983 21.7467 23.8447C22.3081 22.8239 22.8615 21.7968 23.4069 20.7635C23.4743 20.6091 23.5874 20.4816 23.7294 20.4001C23.8714 20.3185 24.0347 20.2872 24.195 20.3107C25.2338 20.3946 26.2737 20.47 27.3145 20.5371C27.6064 20.5553 27.8797 20.6931 28.0757 20.9207C30.2612 23.2263 32.4498 25.5246 34.6413 27.8156C34.7103 27.8848 34.8061 27.9665 34.908 28.0797ZM15.8044 14.9533L10.6082 21.7067L12.8227 23.7L18.3395 16.6479L15.8044 14.9533ZM37.4372 23.2913L39.6487 21.2917L35.0009 14.9595L32.4628 16.6542L37.4372 23.2913ZM18.9239 34.305C19.0832 34.2685 19.234 34.1991 19.3674 34.1006C19.9428 33.5315 20.5151 32.953 21.0455 32.3368C21.1962 32.1416 21.2709 31.8939 21.2545 31.6433C21.2381 31.3928 21.1319 31.158 20.9572 30.9863C20.7825 30.8146 20.5524 30.7187 20.313 30.7178C20.0736 30.717 19.8429 30.8112 19.6671 30.9817C19.1217 31.5225 18.5883 32.079 18.0758 32.6512C17.949 32.7925 17.868 32.9723 17.8443 33.1648C17.8206 33.3573 17.8555 33.5528 17.944 33.7233C18.1178 34.1132 18.4235 34.2955 18.9239 34.305ZM20.0297 35.6506C20.0484 35.8517 20.1165 36.0444 20.2273 36.2097C20.3381 36.375 20.4879 36.5073 20.662 36.5938C20.8276 36.6791 21.0142 36.7088 21.1964 36.679C21.3787 36.6492 21.5478 36.5613 21.6808 36.4272C22.2082 35.899 22.7296 35.3614 23.2271 34.8049C23.4015 34.6118 23.4958 34.354 23.489 34.0881C23.4823 33.8221 23.3751 33.5699 23.1911 33.3869C23.0071 33.2039 22.7614 33.105 22.5079 33.1121C22.2545 33.1192 22.0141 33.2316 21.8396 33.4246C21.3452 33.9277 20.8507 34.4307 20.3863 34.9621C20.2422 35.1752 20.1244 35.4065 20.0357 35.6506H20.0297ZM25.3158 36.7919C25.2911 36.6228 25.2254 36.4632 25.1251 36.3283C25.0248 36.1934 24.8932 36.0878 24.7428 36.0215C24.5925 35.9553 24.4285 35.9306 24.2664 35.9499C24.1044 35.9692 23.9498 36.0318 23.8174 36.1317C23.4691 36.441 23.1454 36.7796 22.8495 37.144C22.7301 37.2917 22.6582 37.4753 22.6442 37.6684C22.6302 37.8615 22.6748 38.0544 22.7716 38.2193C22.8522 38.3928 22.9817 38.5362 23.1424 38.6301C23.3032 38.724 23.4875 38.7639 23.6706 38.7444C24.2489 38.7192 25.3128 37.5591 25.3217 36.7919H25.3158ZM17.5994 28.7745C17.4022 28.8256 17.214 28.9095 17.042 29.0229C16.6942 29.3339 16.3696 29.6723 16.0711 30.0353C15.9281 30.2265 15.8581 30.4667 15.8747 30.7091C15.8914 30.9514 15.9934 31.1786 16.161 31.3464C16.3236 31.5192 16.541 31.6233 16.7719 31.6389C17.0028 31.6546 17.2312 31.5807 17.4136 31.4313C17.745 31.1333 18.0545 30.8096 18.3395 30.4629C18.4673 30.3152 18.5471 30.1288 18.5676 29.9306C18.5881 29.7323 18.5481 29.5323 18.4534 29.3593C18.3719 29.1936 18.251 29.0527 18.1025 28.9503C17.9539 28.8478 17.7827 28.7873 17.6054 28.7745H17.5994Z" fill="white"/>
<path d="M33.5145 9.39129C33.4269 9.59091 33.3183 9.77966 33.1909 9.95408C31.7924 11.4213 30.394 12.8885 28.9956 14.3558C28.9407 14.426 28.8723 14.4833 28.7949 14.524C28.7176 14.5648 28.6329 14.5879 28.5464 14.5921C28.4599 14.5962 28.3736 14.5813 28.293 14.5481C28.2124 14.515 28.1394 14.4645 28.0786 14.3998C28.013 14.3392 27.9609 14.2642 27.9258 14.1803C27.8908 14.0963 27.8736 14.0053 27.8756 13.9136C27.8776 13.822 27.8987 13.7319 27.9374 13.6497C27.9761 13.5674 28.0314 13.4951 28.0996 13.4377C29.51 11.9495 30.9234 10.4655 32.3398 8.98571C32.4225 8.87689 32.5396 8.80277 32.6699 8.77681C32.8002 8.75085 32.9351 8.77477 33.05 8.84423C33.2298 9.00146 33.3863 9.18582 33.5145 9.39129Z" fill="white"/>
<path d="M22.3611 13.8025C22.3611 14.4125 21.8697 14.7457 21.4621 14.5194C21.3629 14.4596 21.273 14.3843 21.1954 14.2961L17.102 10.0076C16.9928 9.92271 16.9103 9.80555 16.8649 9.67113C16.8195 9.53672 16.8134 9.39116 16.8473 9.25307C16.8739 9.15247 16.9233 9.06011 16.9912 8.98386C17.0592 8.9076 17.1437 8.84972 17.2376 8.81513C17.3315 8.78055 17.432 8.77029 17.5304 8.78523C17.6289 8.80017 17.7225 8.83986 17.8032 8.90093C17.8864 8.9667 17.9636 9.04038 18.0339 9.12102C19.3684 10.5191 20.701 11.9192 22.0315 13.3215C22.1545 13.4714 22.2648 13.6324 22.3611 13.8025Z" fill="white"/>
<path d="M25.7503 12.0668C25.7503 12.6579 25.7503 13.2459 25.7503 13.8369C25.7503 14.3023 25.4896 14.6041 25.109 14.5915C25.0209 14.5867 24.9348 14.5628 24.856 14.5213C24.7772 14.4798 24.7074 14.4216 24.6511 14.3504C24.5948 14.2792 24.5532 14.1966 24.5288 14.1076C24.5045 14.0187 24.4979 13.9255 24.5097 13.8338C24.5097 12.6548 24.5097 11.4726 24.5097 10.2936C24.4972 10.1997 24.5042 10.104 24.5299 10.0132C24.5557 9.92229 24.5998 9.83827 24.6591 9.76677C24.7185 9.69527 24.7918 9.63795 24.874 9.59867C24.9563 9.55939 25.0456 9.53906 25.136 9.53906C25.2263 9.53906 25.3156 9.55939 25.3979 9.59867C25.4802 9.63795 25.5534 9.69527 25.6128 9.76677C25.6721 9.83827 25.7162 9.92229 25.742 10.0132C25.7677 10.104 25.7747 10.1997 25.7623 10.2936C25.7533 10.8878 25.7503 11.4757 25.7503 12.0668Z" fill="white"/>
<path d="M25.124 8.22809C24.9998 8.22736 24.8787 8.18776 24.7762 8.11435C24.6736 8.04094 24.5943 7.93707 24.5484 7.81605C24.5024 7.69503 24.492 7.56238 24.5184 7.4351C24.5448 7.30782 24.6068 7.1917 24.6965 7.10165C24.7862 7.01159 24.8995 6.95169 25.0219 6.92962C25.1442 6.90755 25.2701 6.92432 25.3833 6.97779C25.4965 7.03125 25.5919 7.11897 25.6573 7.22969C25.7227 7.34042 25.7551 7.46911 25.7503 7.59927C25.7433 7.7686 25.6743 7.92856 25.5576 8.04573C25.4409 8.16291 25.2855 8.22824 25.124 8.22809Z" fill="white"/>
</svg>
