<svg width="60" height="51" viewBox="0 0 60 51" fill="none" xmlns="http://www.w3.org/2000/svg">
<path d="M13.2923 41.0216C13.2582 41.1435 13.2275 41.2331 13.2036 41.3263C12.8622 42.6273 11.8928 43.3047 10.6434 43.061C9.56131 42.8495 8.48946 42.6058 7.41419 42.3657C7.32116 42.3579 7.23064 42.3301 7.14823 42.2841C7.06582 42.2381 6.99326 42.1749 6.93504 42.0983C6.87681 42.0217 6.83416 41.9334 6.80972 41.8389C6.78528 41.7443 6.77956 41.6455 6.79292 41.5485C6.86461 41.1255 7.19231 40.9141 7.67703 41.0108C8.7011 41.2223 9.72516 41.4553 10.7697 41.6775C11.4524 41.8245 11.7938 41.5843 11.9474 40.8711C12.6096 37.4875 13.2707 34.1028 13.9307 30.7169C14.0638 30.0288 13.8453 29.6775 13.1797 29.527C12.2273 29.3119 11.2681 29.1112 10.3157 28.9069C10.1784 28.8828 10.0427 28.8492 9.9095 28.8065C9.82929 28.787 9.75368 28.7505 9.6872 28.6995C9.62073 28.6485 9.56477 28.5838 9.52269 28.5095C9.4806 28.4352 9.45325 28.3527 9.44229 28.267C9.43133 28.1813 9.43698 28.0942 9.45891 28.0108C9.468 27.9239 9.49439 27.84 9.53637 27.7645C9.57834 27.689 9.63497 27.6237 9.70256 27.5726C9.77015 27.5216 9.84721 27.4861 9.92873 27.4683C10.0102 27.4506 10.0944 27.451 10.1758 27.4696C11.4217 27.7205 12.6745 27.9607 13.8965 28.3119C14.3749 28.4725 14.7803 28.8121 15.0359 29.2661C15.2914 29.7201 15.3791 30.2568 15.2824 30.7743C15.2381 31.0431 15.1834 31.3119 15.122 31.6273C17.1326 30.6186 19.3572 30.1717 21.5804 30.3298C23.3013 30.5097 25.0109 30.7933 26.7008 31.1793C28.428 31.5377 30.1382 32.0216 31.8416 32.4983C34.1116 33.1327 34.8694 34.0789 35.1322 36.5306C35.972 36.2402 36.8083 35.9678 37.631 35.6632C40.5757 34.5664 43.5205 33.4636 46.4652 32.3549C47.021 32.1158 47.6329 32.0601 48.2195 32.1952C48.8061 32.3303 49.3397 32.6498 49.7491 33.1112C50.0317 33.4268 50.237 33.81 50.3471 34.2275C50.4573 34.6451 50.469 35.0845 50.3813 35.5079C50.2936 35.9312 50.1091 36.3258 49.8438 36.6576C49.5784 36.9894 49.2401 37.2484 48.8581 37.4123C46.2479 38.6429 43.6217 39.8376 40.9796 40.9965C38.9719 41.9379 36.8897 42.6935 34.7567 43.2546C30.9277 44.1249 26.9613 44.0808 23.1507 43.1255C19.9317 42.3728 16.6956 41.7133 13.4664 41.0108L13.2923 41.0216ZM13.562 39.6094C13.7327 39.656 13.8487 39.699 13.9716 39.7241C17.5183 40.4911 21.065 41.2653 24.6185 42.018C28.4246 42.8245 32.2205 42.7564 35.9174 41.4875C38.4127 40.6309 40.8431 39.5485 43.2804 38.509C44.9872 37.7922 46.6257 36.9714 48.2915 36.1829C48.5597 36.0884 48.7886 35.8993 48.9391 35.6478C49.0897 35.3962 49.1527 35.0977 49.1176 34.8029C49.0955 34.5078 48.98 34.2289 48.7895 34.0106C48.5989 33.7924 48.3443 33.6474 48.0662 33.5986C47.6596 33.5332 47.244 33.5713 46.8544 33.7098C42.8287 35.1626 38.8098 36.6309 34.7977 38.1148C34.6116 38.1851 34.4426 38.2977 34.3027 38.4445C33.8679 38.9486 33.3127 39.3217 32.6946 39.5252C32.0765 39.7287 31.4179 39.7553 30.7868 39.6022C29.7968 39.4087 28.8137 39.1793 27.8306 38.9642C26.3287 38.6381 24.8267 38.3155 23.3282 37.9857C23.2409 37.9737 23.1568 37.9433 23.0808 37.8965C23.0049 37.8497 22.9387 37.7874 22.886 37.7133C22.8334 37.6392 22.7955 37.5547 22.7745 37.4649C22.7535 37.3752 22.7498 37.2819 22.7638 37.1906C22.7777 37.0993 22.8089 37.0118 22.8555 36.9334C22.9022 36.855 22.9633 36.7872 23.0354 36.734C23.1074 36.6809 23.1888 36.6434 23.2749 36.6238C23.361 36.6043 23.4499 36.603 23.5364 36.6202C23.6286 36.6202 23.7207 36.656 23.8095 36.6739C26.2194 37.1972 28.6294 37.7277 31.0428 38.2402C32.4526 38.5413 33.7054 37.6381 33.7736 36.2868C33.8317 35.2438 33.149 34.3083 32.0669 33.9786C28.948 33.0112 25.7661 32.2841 22.5465 31.803C19.9759 31.4238 17.3574 31.9267 15.081 33.2366C14.9283 33.3273 14.8146 33.4761 14.7636 33.6524C14.3471 35.6058 13.9614 37.5915 13.562 39.6094Z" fill="white"/>
<path d="M28.7252 16.7956L28.831 16.8673C29.4932 17.3799 29.855 17.9426 29.4079 18.8566C29.2764 19.2579 29.1983 19.6765 29.1757 20.1003H32.7907C32.7019 18.9928 33.8352 18.9103 34.2688 18.2078C34.2278 18.8315 34.1868 19.4551 34.1459 20.1146H40.2903C40.2049 19.2938 40.1537 18.473 40.0308 17.6666C39.856 16.259 39.4224 14.9005 38.7542 13.6666C38.7287 13.6106 38.7155 13.5494 38.7155 13.4874C38.7155 13.4254 38.7287 13.3641 38.7542 13.3082C39.0614 12.6738 39.3891 12.0537 39.7134 11.4121C42.8368 11.9103 45.9226 15.5626 46.4756 19.4587C46.7573 21.5435 46.3934 23.6682 45.4375 25.5193C44.4816 27.3704 42.9844 28.8498 41.1667 29.7394C39.3491 30.629 37.3072 30.8817 35.3424 30.46C33.3776 30.0384 31.5939 28.9649 30.2544 27.3978C27.4826 24.1971 27.2949 19.7204 28.7252 16.7956ZM34.1322 21.5734C34.1868 22.2221 34.2141 22.8207 34.2892 23.4157C34.4941 25.068 34.8388 26.6845 35.7059 28.1146C36.648 29.6666 37.7199 29.663 38.6791 28.1146C39.2823 27.1066 39.6863 25.9816 39.867 24.8064C40.0547 23.7311 40.1606 22.6558 40.3108 21.5806L34.1322 21.5734ZM29.2235 21.5734C29.384 25.0824 32.1489 28.1182 34.4736 28.6809C33.2584 26.473 32.9443 24.0214 32.7975 21.5734H29.2235ZM39.9079 28.7168C42.5535 28.0537 45.3969 24.1075 45.1273 21.5877H41.5772C41.4714 24.0859 41.1061 26.4766 39.9148 28.7239L39.9079 28.7168ZM45.158 20.1146C45.0044 16.5949 42.2121 13.5519 40.065 13.0573C40.4063 14.1325 40.8569 15.2616 41.1232 16.4336C41.3894 17.6057 41.4645 18.8601 41.6557 20.1146H45.158Z" fill="white"/>
<path d="M38.5083 9.73475C38.5182 10.3472 38.4099 10.9554 38.1899 11.5228C37.9699 12.0901 37.6427 12.6048 37.2282 13.0358C35.7399 14.6272 34.2311 16.1971 32.7257 17.7706C32.3298 18.1828 31.9748 18.1935 31.5959 17.7957C30.0256 16.1505 28.4281 14.534 26.9022 12.8459C26.4222 12.3315 26.076 11.6964 25.8968 11.0012C25.7177 10.3061 25.7116 9.57427 25.8791 8.87595C26.0467 8.17763 26.3823 7.5362 26.8537 7.01315C27.3251 6.49011 27.9166 6.10298 28.5714 5.88887C29.1037 5.70356 29.6679 5.6422 30.225 5.70905C30.7821 5.7759 31.3186 5.96935 31.7973 6.27597C31.8987 6.35428 32.0213 6.39652 32.1471 6.39652C32.273 6.39652 32.3956 6.35428 32.497 6.27597C33.1083 5.87899 33.8128 5.6687 34.5315 5.6687C35.2502 5.6687 35.9547 5.87899 36.566 6.27597C37.1575 6.61395 37.6506 7.11417 37.9927 7.72331C38.3348 8.33244 38.513 9.02763 38.5083 9.73475ZM32.1693 16.3477C33.5962 14.8638 35.0174 13.3823 36.4329 11.9032C36.896 11.3781 37.1523 10.6882 37.1502 9.97253C37.148 9.25685 36.8875 8.56865 36.4211 8.0467C35.9548 7.52475 35.3173 7.20788 34.6372 7.15996C33.9571 7.11205 33.285 7.33666 32.7565 7.78851C32.2786 8.21503 32.0499 8.21862 31.5822 7.81002C31.0684 7.32669 30.3978 7.06848 29.7082 7.08848C29.0187 7.10848 28.3627 7.40518 27.8751 7.91754C27.3841 8.42978 27.1024 9.12263 27.0896 9.84925C27.0769 10.5759 27.3341 11.2791 27.8068 11.81C29.2098 13.3548 30.7015 14.8244 32.1693 16.3477Z" fill="white"/>
</svg>
