<svg width="129" height="131" viewBox="0 0 129 131" fill="none" xmlns="http://www.w3.org/2000/svg">
<rect width="129" height="130.112" rx="64.5" fill="#B9D3F9"/>
<path d="M64.9997 41.8003C61.9232 41.8003 58.9727 43.0224 56.7973 45.1979C54.6218 47.3733 53.3997 50.3238 53.3997 53.4003C53.3997 56.4768 54.6218 59.4273 56.7973 61.6027C58.9727 63.7782 61.9232 65.0003 64.9997 65.0003C68.0762 65.0003 71.0267 63.7782 73.2021 61.6027C75.3776 59.4273 76.5997 56.4768 76.5997 53.4003C76.5997 50.3238 75.3776 47.3733 73.2021 45.1979C71.0267 43.0224 68.0762 41.8003 64.9997 41.8003ZM50.5258 67.9003C49.7619 67.8969 49.0049 68.0443 48.2982 68.3343C47.5915 68.6242 46.9491 69.0509 46.4077 69.5898C45.8664 70.1287 45.4368 70.7693 45.1437 71.4747C44.8506 72.1801 44.6997 72.9364 44.6997 73.7003C44.6997 78.6042 47.1154 82.3017 50.8912 84.7116C54.609 87.0809 59.6202 88.2003 64.9997 88.2003C70.3792 88.2003 75.3904 87.0809 79.1082 84.7116C82.884 82.3046 85.2997 78.6013 85.2997 73.7003C85.2997 72.162 84.6886 70.6868 83.6009 69.5991C82.5132 68.5114 81.038 67.9003 79.4997 67.9003H50.5258Z" fill="#3E3E3E"/>
</svg>
