<svg width="33" height="34" viewBox="0 0 33 34" fill="none" xmlns="http://www.w3.org/2000/svg">
<rect width="33" height="33.2845" rx="16.5" fill="#B9D3F9"/>
<path d="M16.6281 10.6934C15.8411 10.6934 15.0863 11.006 14.5298 11.5625C13.9733 12.119 13.6606 12.8738 13.6606 13.6608C13.6606 14.4478 13.9733 15.2026 14.5298 15.7591C15.0863 16.3156 15.8411 16.6282 16.6281 16.6282C17.4151 16.6282 18.1699 16.3156 18.7264 15.7591C19.2829 15.2026 19.5955 14.4478 19.5955 13.6608C19.5955 12.8738 19.2829 12.119 18.7264 11.5625C18.1699 11.006 17.4151 10.6934 16.6281 10.6934ZM12.9255 17.3701C12.7301 17.3692 12.5364 17.407 12.3556 17.4811C12.1748 17.5553 12.0105 17.6644 11.872 17.8023C11.7335 17.9402 11.6236 18.104 11.5486 18.2845C11.4737 18.4649 11.4351 18.6584 11.4351 18.8538C11.4351 20.1083 12.053 21.0542 13.0189 21.6707C13.97 22.2768 15.2519 22.5631 16.6281 22.5631C18.0042 22.5631 19.2862 22.2768 20.2372 21.6707C21.2031 21.0549 21.8211 20.1076 21.8211 18.8538C21.8211 18.4603 21.6648 18.0829 21.3865 17.8047C21.1083 17.5264 20.7309 17.3701 20.3374 17.3701H12.9255Z" fill="#3E3E3E"/>
</svg>
