<svg width="54" height="49" viewBox="0 0 54 49" fill="none" xmlns="http://www.w3.org/2000/svg">
<path d="M44.7241 18.8495H11.8137C11.6444 18.8656 11.474 18.8656 11.3047 18.8495C11.1265 18.8278 10.9624 18.7416 10.8434 18.6073C10.7244 18.4729 10.6587 18.2996 10.6587 18.1201C10.6587 17.9406 10.7244 17.7673 10.8434 17.6329C10.9624 17.4985 11.1265 17.4124 11.3047 17.3907C11.4741 17.3763 11.6443 17.3763 11.8137 17.3907H44.6882C44.8962 16.0639 44.5747 14.7085 43.7931 13.6164C43.0114 12.5243 41.832 11.783 40.509 11.552C39.5019 11.3907 38.4481 11.5269 37.3406 11.5269C37.3406 11.6237 37.3406 11.8029 37.3406 11.9785C37.3676 12.6876 37.3461 13.3978 37.276 14.104C37.1795 14.6428 36.8827 15.1251 36.4452 15.4542C36.0078 15.7832 35.4621 15.9347 34.9176 15.8781C34.3659 15.8257 33.8533 15.5698 33.4797 15.1605C33.1061 14.7511 32.8981 14.2173 32.8961 13.6631C32.8961 12.9462 32.8961 12.2294 32.8961 11.4373H23.6596C23.5198 11.4373 23.38 11.4373 23.2438 11.4373C23.0573 11.4243 22.8827 11.341 22.7552 11.2043C22.6277 11.0676 22.5569 10.8877 22.5569 10.7007C22.5569 10.5138 22.6277 10.3338 22.7552 10.1971C22.8827 10.0604 23.0573 9.97719 23.2438 9.96417C23.3823 9.95698 23.5211 9.95698 23.6596 9.96417H32.8961C32.828 9.02152 32.9212 8.17205 33.6775 7.53048C34.0915 7.17488 34.6229 6.98583 35.1685 7.00001C36.5269 7.02869 37.1793 7.8889 37.3692 9.96417C38.0861 9.96417 38.8316 9.96417 39.5664 9.96417C40.6189 9.95934 41.6571 10.2083 42.593 10.69C43.5289 11.1717 44.3349 11.8718 44.9427 12.7312C45.7692 13.8262 46.2137 15.1621 46.2079 16.5341C46.2079 23.0215 46.2079 29.5078 46.2079 35.9928C46.1902 37.7291 45.4921 39.3892 44.2636 40.6163C43.0351 41.8434 41.3743 42.5397 39.6381 42.5556C31.1936 42.5747 22.748 42.5747 14.3011 42.5556C12.5521 42.5452 10.8777 41.8453 9.64163 40.6079C8.40552 39.3704 7.70745 37.6953 7.69899 35.9463C7.68465 29.4946 7.68465 23.043 7.69899 16.5914C7.7046 14.8385 8.40146 13.1586 9.63824 11.9165C10.875 10.6743 12.5519 9.97021 14.3047 9.957C15.0431 9.957 15.785 9.957 16.5915 9.957C16.5915 9.68102 16.5915 9.42295 16.5915 9.16847C16.6145 8.59501 16.8585 8.05271 17.2724 7.65511C17.6863 7.25752 18.238 7.03548 18.8119 7.03548C19.3858 7.03548 19.9375 7.25752 20.3514 7.65511C20.7653 8.05271 21.0093 8.59501 21.0323 9.16847C21.0323 10.681 21.0538 12.1971 21.0323 13.7097C21.029 14.2981 20.7921 14.8611 20.3736 15.2748C19.9552 15.6886 19.3896 15.9191 18.8011 15.9158C18.2127 15.9125 17.6497 15.6755 17.236 15.2571C16.8223 14.8387 16.5917 14.273 16.595 13.6846C16.595 12.9678 16.595 12.2509 16.595 11.4445C15.0036 11.4445 13.4122 11.2222 11.9355 12.043C11.3442 12.3497 10.8202 12.7714 10.3942 13.2836C9.96827 13.7957 9.64903 14.3878 9.45526 15.0251C9.28787 15.57 9.19976 16.1361 9.19361 16.7061C9.1745 23.0693 9.1745 29.4325 9.19361 35.7957C9.17703 36.4932 9.30181 37.1867 9.56045 37.8347C9.81908 38.4826 10.2062 39.0715 10.6985 39.5658C11.1908 40.0601 11.7781 40.4496 12.425 40.7109C13.0718 40.9722 13.7649 41.0998 14.4624 41.086C22.8256 41.086 31.1793 41.086 39.5234 41.086C40.2053 41.0979 40.8827 40.9741 41.5164 40.7219C42.15 40.4697 42.7273 40.0941 43.2145 39.6169C43.7017 39.1396 44.0892 38.5703 44.3546 37.9421C44.6199 37.3138 44.7577 36.639 44.7599 35.957C44.7886 30.3369 44.7599 24.7133 44.7599 19.0932C44.7528 19.0323 44.742 18.9749 44.7241 18.8495ZM18.0717 11.4373C18.0717 12.1326 18.0717 12.828 18.0717 13.5233C18.0717 14.0681 18.3621 14.4014 18.8101 14.4014C19.2581 14.4014 19.5484 14.0681 19.5484 13.5233C19.5484 12.1326 19.5484 10.7431 19.5484 9.35485C19.5484 8.81005 19.2581 8.47671 18.8065 8.47671C18.3549 8.47671 18.0897 8.81005 18.0682 9.35485C18.0682 10.0466 18.0717 10.7419 18.0717 11.4373ZM35.8603 11.4373C35.8603 10.7204 35.8603 10.0036 35.8603 9.30467C35.8733 9.20125 35.8646 9.09625 35.8349 8.99634C35.8052 8.89643 35.7551 8.80378 35.6877 8.72426C35.6203 8.64473 35.5371 8.58008 35.4434 8.53438C35.3497 8.48868 35.2476 8.46294 35.1434 8.45879C34.6918 8.45879 34.3907 8.78137 34.3907 9.31901C34.3907 10.724 34.3907 12.129 34.3907 13.5341C34.3778 13.6375 34.3864 13.7425 34.4161 13.8424C34.4458 13.9423 34.496 14.035 34.5633 14.1145C34.6307 14.194 34.7139 14.2587 34.8076 14.3044C34.9013 14.3501 35.0034 14.3758 35.1076 14.3799C35.5556 14.3799 35.8567 14.0538 35.8639 13.5197C35.8639 12.8423 35.8603 12.147 35.8603 11.4516V11.4373Z" fill="white"/>
<path d="M24.0716 26.0969C24.3297 25.3012 24.577 24.5377 24.8279 23.7779C24.9641 23.3174 25.2455 22.9134 25.6302 22.626C26.0148 22.3386 26.4821 22.1833 26.9623 22.1833C27.4425 22.1833 27.9097 22.3386 28.2944 22.626C28.6791 22.9134 28.9605 23.3174 29.0967 23.7779C29.3189 24.4338 29.5376 25.0933 29.7383 25.7564C29.7448 25.8121 29.7625 25.8659 29.7906 25.9145C29.8186 25.9631 29.8562 26.0055 29.9012 26.0391C29.9461 26.0726 29.9975 26.0967 30.0521 26.1097C30.1066 26.1227 30.1633 26.1244 30.2186 26.1148C30.896 26.0933 31.577 26.1148 32.2544 26.1148C32.7451 26.091 33.23 26.2294 33.6341 26.5087C34.0383 26.7879 34.3393 27.1925 34.4906 27.6599C34.6419 28.1273 34.6351 28.6314 34.4713 29.0946C34.3074 29.5577 33.9957 29.954 33.5842 30.2223C33.0644 30.6094 32.5483 31.0073 32.0071 31.3549C31.9433 31.3851 31.8864 31.4282 31.8401 31.4814C31.7939 31.5347 31.7592 31.5971 31.7383 31.6645C31.7174 31.7319 31.7107 31.8029 31.7187 31.873C31.7268 31.9431 31.7493 32.0108 31.7849 32.0718C32.0071 32.6775 32.1971 33.2976 32.3942 33.9141C32.5625 34.3714 32.5764 34.8712 32.4337 35.3372C32.291 35.8031 31.9996 36.2094 31.604 36.494C31.2085 36.7786 30.7306 36.9257 30.2434 36.9129C29.7563 36.9001 29.2868 36.728 28.9067 36.423C28.3548 36.0252 27.7992 35.6381 27.2652 35.2187C27.2266 35.1775 27.18 35.1446 27.1282 35.1221C27.0764 35.0997 27.0205 35.0881 26.9641 35.0881C26.9076 35.0881 26.8518 35.0997 26.8 35.1221C26.7482 35.1446 26.7016 35.1775 26.663 35.2187C26.1254 35.6345 25.5877 36.0252 25.0178 36.4195C24.6352 36.7261 24.1618 36.8973 23.6716 36.9064C23.1813 36.9154 22.7019 36.7619 22.3082 36.4696C21.9162 36.1765 21.6308 35.7632 21.4955 35.2927C21.3603 34.8223 21.3826 34.3205 21.5591 33.8639C21.7634 33.2187 21.9605 32.5664 22.1899 31.9284C22.2151 31.8821 22.2306 31.8311 22.2355 31.7786C22.2405 31.7261 22.2348 31.6731 22.2187 31.6229C22.2026 31.5726 22.1765 31.5262 22.142 31.4863C22.1075 31.4464 22.0653 31.4139 22.0178 31.3908C21.448 30.9965 20.8924 30.5807 20.3333 30.1686C19.9296 29.8978 19.6254 29.5025 19.4672 29.0429C19.3089 28.5833 19.3052 28.0846 19.4566 27.6227C19.608 27.1608 19.9062 26.761 20.3058 26.4843C20.7054 26.2075 21.1845 26.069 21.6702 26.0897C22.4515 26.0897 23.2365 26.0969 24.0716 26.0969ZM23.1146 27.5772C22.6523 27.5772 22.1899 27.5772 21.7275 27.5772C21.3225 27.5772 20.982 27.6811 20.853 28.104C20.8011 28.284 20.8144 28.4764 20.8904 28.6475C20.9665 28.8186 21.1004 28.9574 21.2687 29.0395C22.0107 29.5664 22.7419 30.1148 23.4802 30.6381C23.6579 30.7382 23.7926 30.9002 23.8587 31.0931C23.9248 31.2861 23.9177 31.4966 23.8386 31.6847C23.5411 32.5592 23.2723 33.4445 22.9784 34.3191C22.8946 34.4821 22.8722 34.6699 22.9154 34.8481C22.9586 35.0262 23.0644 35.1829 23.2136 35.2895C23.3628 35.396 23.5453 35.4454 23.7279 35.4284C23.9104 35.4115 24.0808 35.3294 24.2078 35.1972C24.9247 34.6668 25.6415 34.1435 26.3763 33.6202C26.8566 33.2618 27.0931 33.2618 27.5842 33.6202C28.301 34.1363 29.0178 34.6488 29.7132 35.1721C30.0501 35.423 30.3906 35.5664 30.7669 35.2833C31.1433 35.0001 31.1003 34.6632 30.9712 34.2797C30.6845 33.4338 30.4264 32.5772 30.1361 31.7349C30.0441 31.5381 30.0299 31.3139 30.0964 31.1071C30.1629 30.9004 30.3051 30.7264 30.4945 30.6202C31.2401 30.1005 31.9641 29.5449 32.706 29.0216C32.871 28.9329 32.9982 28.7874 33.0641 28.6121C33.13 28.4368 33.1301 28.2436 33.0644 28.0682C32.9976 27.9014 32.876 27.7624 32.7197 27.6738C32.5634 27.5852 32.3816 27.5524 32.2042 27.5807C31.2938 27.5807 30.3834 27.5807 29.473 27.5807C29.2643 27.6021 29.0551 27.5454 28.8857 27.4216C28.7163 27.2979 28.5987 27.1158 28.5555 26.9105C28.2831 26.0431 27.9928 25.1829 27.7204 24.3155C27.5985 23.9248 27.387 23.6488 26.9426 23.6596C26.4981 23.6703 26.3261 23.9392 26.2257 24.3119C25.9462 25.1936 25.6558 26.0682 25.3727 26.9499C25.3315 27.1405 25.222 27.3095 25.0649 27.4251C24.9078 27.5406 24.7139 27.5947 24.5196 27.5772C24.0393 27.57 23.577 27.5772 23.1146 27.5772Z" fill="white"/>
</svg>
