<svg width="46" height="39" viewBox="0 0 46 39" fill="none" xmlns="http://www.w3.org/2000/svg">
<path d="M28.2553 6.625H39.7036C40.5026 6.62492 41.2929 6.79136 42.024 7.11372C42.7551 7.43608 43.411 7.90728 43.9498 8.49726C44.4887 9.08724 44.8987 9.78304 45.1536 10.5403C45.4086 11.2976 45.5029 12.0996 45.4306 12.8954L43.5992 33.0204C43.4694 34.449 42.8102 35.7775 41.7512 36.7451C40.6921 37.7127 39.3096 38.2494 37.8751 38.25H8.12171C6.6872 38.2494 5.3047 37.7127 4.24563 36.7451C3.18656 35.7775 2.52741 34.449 2.39759 33.0204L0.566212 12.8954C0.446144 11.5638 0.793828 10.2321 1.54946 9.12913L1.43734 6.625C1.43734 5.10001 2.04314 3.63747 3.12147 2.55914C4.19981 1.4808 5.66234 0.875 7.18734 0.875H17.7443C19.2692 0.875326 20.7315 1.48134 21.8096 2.55975L24.1901 4.94025C25.2682 6.01866 26.7305 6.62467 28.2553 6.625ZM4.32959 6.97C4.94675 6.74192 5.60225 6.62692 6.29609 6.625H21.8096L19.777 4.59238C19.2379 4.05317 18.5068 3.75016 17.7443 3.75H7.18734C6.43421 3.74986 5.7111 4.04525 5.17348 4.57266C4.63585 5.10007 4.32665 5.81738 4.31234 6.57037L4.32959 6.97Z" fill="#0C1E8A" fill-opacity="0.5"/>
</svg>
