<svg width="415" height="444" viewBox="0 0 415 444" fill="none" xmlns="http://www.w3.org/2000/svg">
<path d="M162.421 292.254H164.497V310.306H162.421V292.254Z" fill="white"/>
<path d="M169.806 292.254H171.737L183.08 306.734V292.254H185.059V310.306H183.466L171.785 295.488V310.306H169.806V292.254Z" fill="white"/>
<path d="M194.906 294.136H189.114V292.254H203.305V294.136H197.223V310.306H195.147L194.906 294.136Z" fill="white"/>
<path d="M206.876 292.254H219.909V294.088H208.904V300.267H218.557V302.101H208.904V308.231H220.054V310.113H206.876V292.254Z" fill="white"/>
<path d="M224.156 292.254H231.927C233.801 292.154 235.639 292.795 237.043 294.04C237.508 294.508 237.872 295.066 238.113 295.68C238.354 296.295 238.466 296.952 238.443 297.611C238.447 298.935 237.953 300.211 237.059 301.186C236.164 302.161 234.935 302.763 233.616 302.873L239.167 310.258H236.657L231.348 303.404H226.231V310.402H224.156V292.254ZM231.782 301.473C234.437 301.473 236.609 300.073 236.609 297.756C236.609 295.536 234.871 294.184 231.782 294.184H226.231V301.521L231.782 301.473Z" fill="white"/>
<path d="M242.836 292.254H244.767L256.11 306.734V292.254H258.089V310.306H256.689L245.057 295.488V310.306H243.078L242.836 292.254Z" fill="white"/>
<path d="M269.914 292.109H271.796L280.05 310.306H277.83L275.706 305.479H266.052L263.929 310.306H261.515L269.914 292.109ZM274.741 303.693L270.638 294.474L266.535 303.693H274.741Z" fill="white"/>
<path d="M286.036 294.136H280.002V292.254H294.193V294.136H288.111V310.306H286.036V294.136Z" fill="white"/>
<path d="M298.199 292.254H300.13V310.306H298.103L298.199 292.254Z" fill="white"/>
<path d="M304.957 301.328C304.957 298.883 305.928 296.538 307.657 294.809C309.386 293.08 311.731 292.109 314.176 292.109C316.621 292.109 318.966 293.08 320.695 294.809C322.424 296.538 323.395 298.883 323.395 301.328C323.415 302.553 323.189 303.769 322.73 304.905C322.272 306.041 321.591 307.073 320.727 307.942C319.863 308.81 318.834 309.496 317.701 309.961C316.567 310.425 315.353 310.657 314.128 310.644C312.908 310.657 311.697 310.425 310.569 309.959C309.44 309.494 308.418 308.806 307.561 307.936C306.705 307.067 306.033 306.033 305.586 304.898C305.138 303.762 304.924 302.548 304.957 301.328ZM321.271 301.328C321.31 300.366 321.155 299.406 320.813 298.506C320.472 297.605 319.952 296.783 319.284 296.089C318.617 295.394 317.816 294.842 316.93 294.465C316.044 294.088 315.091 293.894 314.128 293.895C313.175 293.901 312.234 294.098 311.359 294.476C310.484 294.853 309.694 295.403 309.037 296.092C308.379 296.781 307.867 297.596 307.531 298.487C307.195 299.378 307.042 300.328 307.081 301.28C307.081 303.162 307.828 304.967 309.159 306.297C310.489 307.628 312.294 308.375 314.176 308.375C316.058 308.375 317.863 307.628 319.193 306.297C320.524 304.967 321.271 303.162 321.271 301.28V301.328Z" fill="white"/>
<path d="M327.45 292.254H329.381L340.723 306.734V292.254H342.751V310.306H341.11L329.477 295.488V310.306H327.45V292.254Z" fill="white"/>
<path d="M354.528 292.109H356.459L364.664 310.306H362.492L360.369 305.479H350.715L348.591 310.306H346.516L354.528 292.109ZM359.355 303.693L355.252 294.474L351.149 303.693H359.355Z" fill="white"/>
<path d="M368.236 292.254H370.264V308.231H380.448V310.113H368.236V292.254Z" fill="white"/>
<path d="M162.856 316.919H171.689C177.047 316.919 180.522 319.767 180.522 324.449C180.522 329.517 176.274 332.172 171.255 332.172H165.511V340.474H162.856V316.919ZM171.351 329.807C175.261 329.807 177.819 327.683 177.819 324.594C177.819 321.215 175.309 319.477 171.496 319.477H165.511V329.855L171.351 329.807Z" fill="white"/>
<path d="M185.397 316.919H195.533C196.755 316.861 197.977 317.044 199.128 317.458C200.279 317.872 201.337 318.509 202.242 319.332C202.864 319.965 203.345 320.722 203.653 321.554C203.961 322.386 204.089 323.274 204.029 324.159C204.034 325.901 203.38 327.581 202.198 328.861C201.016 330.141 199.394 330.927 197.657 331.061L204.897 340.715H201.615L194.761 331.544H188.052V340.715H185.397V316.919ZM195.051 328.986C198.574 328.986 201.132 327.151 201.132 324.159C201.132 321.263 198.912 319.332 195.099 319.332H187.81V328.986H195.051Z" fill="white"/>
<path d="M208.71 328.793C208.678 327.193 208.967 325.602 209.56 324.115C210.153 322.629 211.039 321.276 212.164 320.137C213.289 318.999 214.631 318.098 216.11 317.487C217.59 316.876 219.177 316.568 220.777 316.581C222.367 316.561 223.945 316.862 225.416 317.466C226.887 318.069 228.221 318.963 229.338 320.094C230.455 321.225 231.333 322.57 231.919 324.048C232.505 325.526 232.787 327.107 232.748 328.696C232.748 331.897 231.476 334.966 229.213 337.229C226.95 339.492 223.881 340.763 220.681 340.763C217.48 340.763 214.411 339.492 212.148 337.229C209.885 334.966 208.614 331.897 208.614 328.696L208.71 328.793ZM229.996 328.793C229.998 326.29 229.028 323.885 227.29 322.084C225.552 320.283 223.182 319.227 220.681 319.139C219.435 319.145 218.202 319.401 217.058 319.894C215.913 320.387 214.88 321.105 214.019 322.006C213.158 322.907 212.488 323.973 212.049 325.139C211.609 326.305 211.41 327.548 211.462 328.793C211.462 331.251 212.438 333.608 214.176 335.346C215.914 337.084 218.271 338.06 220.729 338.06C223.187 338.06 225.544 337.084 227.282 335.346C229.02 333.608 229.996 331.251 229.996 328.793Z" fill="white"/>
<path d="M238.396 316.919H241.099L249.69 329.807L258.282 316.919H260.985V340.522H258.33V321.215L249.69 333.861L241.099 321.263V340.329H238.492L238.396 316.919Z" fill="white"/>
<path d="M266.583 328.793C266.583 325.592 267.855 322.523 270.118 320.26C272.381 317.997 275.45 316.726 278.65 316.726C281.851 316.726 284.92 317.997 287.183 320.26C289.446 322.523 290.717 325.592 290.717 328.793C290.717 331.993 289.446 335.062 287.183 337.325C284.92 339.588 281.851 340.86 278.65 340.86C275.45 340.86 272.381 339.588 270.118 337.325C267.855 335.062 266.583 331.993 266.583 328.793ZM287.87 328.793C287.908 327.547 287.698 326.306 287.251 325.142C286.803 323.979 286.128 322.917 285.265 322.018C284.402 321.118 283.368 320.401 282.224 319.906C281.08 319.412 279.848 319.151 278.602 319.139C277.352 319.138 276.115 319.39 274.964 319.879C273.814 320.369 272.775 321.087 271.909 321.988C271.043 322.89 270.369 323.958 269.926 325.127C269.484 326.297 269.283 327.543 269.335 328.793C269.333 331.295 270.304 333.701 272.042 335.502C273.78 337.303 276.149 338.359 278.65 338.446C279.897 338.441 281.129 338.184 282.274 337.691C283.418 337.199 284.452 336.481 285.312 335.579C286.173 334.678 286.843 333.613 287.283 332.446C287.722 331.28 287.922 330.038 287.87 328.793Z" fill="white"/>
<path d="M300.902 319.429H292.986V316.919H311.521V319.429H303.605V340.522H300.902V319.429Z" fill="white"/>
<path d="M316.493 316.919H333.532V319.381H319.051V327.538H331.939V329.951H319.051V338.205H333.532V340.619H316.3L316.493 316.919Z" fill="white"/>
<path d="M339.083 316.919H349.219C350.441 316.861 351.662 317.044 352.813 317.458C353.965 317.872 355.023 318.509 355.928 319.332C356.556 319.962 357.044 320.718 357.36 321.55C357.676 322.381 357.813 323.271 357.762 324.159C357.755 325.906 357.091 327.586 355.901 328.865C354.712 330.144 353.084 330.928 351.342 331.061L358.583 340.715H355.3L348.495 331.544H341.737V340.715H339.083V316.919ZM348.736 328.986C352.26 328.986 354.818 327.151 354.818 324.159C354.818 321.263 352.598 319.332 348.784 319.332H341.496V328.986H348.736Z" fill="white"/>
<path d="M361.865 337.192L363.506 335.261C364.569 336.326 365.833 337.169 367.226 337.741C368.618 338.313 370.11 338.602 371.615 338.591C374.801 338.591 376.876 336.902 376.876 334.585C376.876 332.413 375.718 331.158 370.746 330.096C365.775 329.034 362.83 327.2 362.83 323.29C362.896 322.354 363.15 321.441 363.578 320.606C364.006 319.771 364.599 319.031 365.321 318.431C366.042 317.832 366.878 317.384 367.777 317.116C368.676 316.848 369.621 316.764 370.553 316.871C373.585 316.767 376.546 317.8 378.855 319.767L377.311 321.794C375.427 320.145 373.009 319.236 370.505 319.236C367.464 319.236 365.678 320.925 365.678 323.049C365.678 325.27 366.885 326.524 372.098 327.876C377.31 329.227 379.772 330.965 379.772 334.585C379.772 338.64 376.394 341.246 371.712 341.246C369.884 341.251 368.074 340.895 366.385 340.199C364.695 339.503 363.159 338.481 361.865 337.192Z" fill="white"/>
<path d="M171.69 346.266H173.958L183.612 367.89H180.957L178.447 362.242H166.911L164.353 367.89H161.891L171.69 346.266ZM177.675 360.022L172.848 349.065L168.021 360.022H177.675Z" fill="white"/>
<path d="M186.121 364.752L187.617 362.966C188.583 363.94 189.734 364.711 191.002 365.233C192.271 365.755 193.631 366.018 195.002 366.007C197.898 366.007 199.829 364.511 199.829 362.387C199.829 360.408 198.767 359.298 194.23 358.332C189.693 357.367 187.038 355.678 187.038 352.106C187.098 351.252 187.33 350.419 187.721 349.658C188.111 348.897 188.652 348.223 189.311 347.677C189.97 347.131 190.733 346.724 191.554 346.481C192.374 346.239 193.236 346.165 194.085 346.265C196.853 346.178 199.555 347.125 201.663 348.92L200.215 350.754C198.492 349.28 196.305 348.46 194.037 348.437C191.238 348.437 189.21 349.982 189.21 351.913C189.21 353.94 190.32 355.098 195.051 356.112C199.781 357.126 202.049 358.863 202.049 362.146C202.049 365.814 198.96 368.179 194.713 368.179C191.516 368.177 188.441 366.951 186.121 364.752Z" fill="white"/>
<path d="M205.429 364.752L206.973 362.966C207.93 363.938 209.073 364.709 210.333 365.231C211.593 365.753 212.946 366.017 214.31 366.007C217.206 366.007 219.137 364.511 219.137 362.387C219.137 360.408 218.075 359.298 213.586 358.332C209.097 357.367 206.346 355.678 206.346 352.106C206.405 351.252 206.637 350.419 207.028 349.658C207.419 348.897 207.96 348.223 208.619 347.677C209.278 347.131 210.041 346.724 210.861 346.481C211.682 346.239 212.543 346.165 213.393 346.265C216.162 346.174 218.865 347.121 220.971 348.92L219.571 350.754C217.835 349.27 215.629 348.449 213.345 348.437C210.545 348.437 208.518 349.982 208.518 351.913C208.518 353.94 209.628 355.098 214.358 356.112C219.088 357.126 221.357 358.863 221.357 362.146C221.357 365.814 218.316 368.179 214.02 368.179C210.825 368.167 207.754 366.942 205.429 364.752Z" fill="white"/>
<path d="M225.556 357.223C225.556 354.317 226.71 351.53 228.765 349.475C230.82 347.42 233.607 346.266 236.513 346.266C239.419 346.266 242.206 347.42 244.261 349.475C246.315 351.53 247.47 354.317 247.47 357.223C247.496 358.679 247.229 360.127 246.687 361.479C246.144 362.831 245.336 364.061 244.31 365.096C243.284 366.131 242.062 366.949 240.714 367.504C239.367 368.058 237.922 368.337 236.465 368.324C235.01 368.345 233.567 368.07 232.221 367.517C230.876 366.963 229.657 366.143 228.637 365.106C227.618 364.068 226.819 362.834 226.289 361.48C225.76 360.125 225.51 358.676 225.556 357.223ZM244.863 357.223C244.909 356.081 244.724 354.941 244.321 353.872C243.918 352.802 243.305 351.824 242.517 350.996C241.73 350.168 240.784 349.507 239.736 349.05C238.688 348.594 237.559 348.353 236.416 348.341C235.28 348.34 234.156 348.569 233.111 349.015C232.066 349.461 231.122 350.115 230.337 350.936C229.552 351.757 228.941 352.729 228.543 353.793C228.144 354.857 227.966 355.991 228.018 357.126C227.93 358.286 228.082 359.451 228.466 360.549C228.849 361.647 229.456 362.654 230.246 363.507C231.037 364.36 231.995 365.04 233.061 365.505C234.127 365.971 235.278 366.211 236.441 366.211C237.604 366.211 238.754 365.971 239.82 365.505C240.886 365.04 241.844 364.36 242.635 363.507C243.426 362.654 244.032 361.647 244.415 360.549C244.799 359.451 244.951 358.286 244.863 357.126V357.223Z" fill="white"/>
<path d="M251.862 357.223C251.823 355.774 252.076 354.333 252.605 352.985C253.134 351.636 253.929 350.408 254.942 349.372C255.955 348.337 257.165 347.515 258.502 346.957C259.839 346.398 261.274 346.114 262.723 346.121C264.274 346.066 265.819 346.339 267.257 346.921C268.696 347.503 269.996 348.382 271.073 349.5L269.432 351.286C268.57 350.354 267.525 349.611 266.362 349.105C265.199 348.598 263.943 348.338 262.674 348.341C261.546 348.353 260.432 348.592 259.399 349.044C258.365 349.496 257.433 350.151 256.658 350.971C255.883 351.791 255.281 352.758 254.889 353.816C254.496 354.873 254.32 355.999 254.372 357.126C254.321 358.255 254.496 359.383 254.888 360.444C255.28 361.504 255.881 362.475 256.655 363.298C257.429 364.122 258.361 364.782 259.395 365.239C260.429 365.696 261.544 365.941 262.674 365.959C263.985 365.962 265.282 365.689 266.479 365.156C267.677 364.624 268.749 363.845 269.625 362.87L271.218 364.463C270.145 365.677 268.821 366.643 267.337 367.293C265.853 367.943 264.246 368.262 262.626 368.228C261.19 368.235 259.768 367.953 258.443 367.399C257.118 366.846 255.917 366.031 254.913 365.005C253.909 363.978 253.122 362.76 252.598 361.423C252.074 360.087 251.823 358.658 251.862 357.223Z" fill="white"/>
<path d="M275.417 346.411H277.83V367.89H275.417V346.411Z" fill="white"/>
<path d="M292.069 346.266H294.338L303.991 367.89H301.385L298.875 362.242H287.194L284.636 367.89H282.126L292.069 346.266ZM298.054 360.022L293.228 349.065L288.401 360.022H298.054Z" fill="white"/>
<path d="M311.28 348.679H304.04V346.411H320.933V348.679H313.741V367.986H311.28V348.679Z" fill="white"/>
<path d="M325.712 346.411H328.125V367.89H325.712V346.411Z" fill="white"/>
<path d="M333.436 357.223C333.436 354.317 334.59 351.53 336.645 349.475C338.699 347.42 341.486 346.266 344.392 346.266C347.298 346.266 350.085 347.42 352.14 349.475C354.195 351.53 355.349 354.317 355.349 357.223C355.349 360.128 354.195 362.915 352.14 364.97C350.085 367.025 347.298 368.179 344.392 368.179C341.486 368.179 338.699 367.025 336.645 364.97C334.59 362.915 333.436 360.128 333.436 357.223ZM352.743 357.223C352.788 356.081 352.604 354.941 352.201 353.872C351.798 352.802 351.184 351.824 350.397 350.996C349.609 350.168 348.663 349.507 347.615 349.05C346.567 348.594 345.439 348.353 344.296 348.341C343.158 348.34 342.031 348.57 340.983 349.015C339.936 349.46 338.989 350.113 338.2 350.933C337.411 351.754 336.796 352.726 336.392 353.79C335.988 354.854 335.803 355.989 335.849 357.126C335.81 358.268 336.001 359.406 336.41 360.473C336.819 361.54 337.438 362.514 338.23 363.338C339.022 364.162 339.971 364.818 341.021 365.268C342.072 365.718 343.201 365.953 344.344 365.959C345.482 365.966 346.61 365.743 347.66 365.304C348.709 364.864 349.66 364.217 350.453 363.401C351.247 362.585 351.867 361.617 352.277 360.555C352.687 359.494 352.878 358.36 352.839 357.223H352.743Z" fill="white"/>
<path d="M360.465 346.411H362.878L376.393 363.642V346.411H378.758V367.89H376.828L362.878 350.272V367.89H360.513L360.465 346.411Z" fill="white"/>
<path d="M309.397 127.95C290.707 127.95 272.783 135.374 259.567 148.59C246.351 161.806 238.926 179.731 238.926 198.421C238.926 217.111 246.351 235.036 259.567 248.252C272.783 261.468 290.707 268.892 309.397 268.892H322.188V225.451H309.397C302.486 225.503 295.814 222.92 290.739 218.226C285.665 213.533 282.571 207.082 282.085 200.187C281.599 193.292 283.758 186.472 288.124 181.113C292.49 175.754 298.734 172.26 305.584 171.343C307.274 171.343 308.963 171.053 310.701 171.005H336.572V268.699H380.013V127.757L309.397 127.95Z" fill="white"/>
<path d="M161.022 127.95H90.5507V225.644H61.9279V175.639C61.2721 163.977 56.5781 152.908 48.6515 144.329C40.725 135.751 30.0601 130.199 18.4867 128.626C16.6345 128.335 14.7623 128.19 12.8875 128.191L0 171.632H13.7079C15.3169 171.632 16.9258 171.777 18.5347 172.067V269.23H90.5024V369H133.944V268.94H161.118C170.531 269.187 179.898 267.546 188.666 264.114C197.435 260.682 205.427 255.529 212.171 248.958C218.916 242.388 224.277 234.533 227.937 225.857C231.597 217.182 233.483 207.861 233.483 198.445C233.483 189.029 231.597 179.709 227.937 171.033C224.277 162.358 218.916 154.503 212.171 147.932C205.427 141.362 197.435 136.209 188.666 132.777C179.898 129.345 170.531 127.703 161.118 127.95H161.022ZM159.719 225.644H133.847V171.246H161.022C167.934 171.194 174.606 173.777 179.68 178.471C184.754 183.164 187.849 189.615 188.335 196.51C188.821 203.405 186.661 210.226 182.295 215.584C177.929 220.943 171.686 224.437 164.835 225.355C163.136 225.549 161.428 225.645 159.719 225.644Z" fill="white"/>
<path d="M40.2547 125.923C47.0267 125.923 53.5213 123.232 58.3098 118.444C63.0984 113.655 65.7887 107.161 65.7887 100.389C65.7789 97.5123 65.2896 94.6575 64.3407 91.942C63.7038 90.2546 62.8951 88.6371 61.9273 87.1152C59.5876 83.3274 56.2981 80.2172 52.3854 78.0932C48.4726 75.9692 44.0723 74.9051 39.6213 75.0066C35.1704 75.1081 30.8236 76.3716 27.0117 78.6718C23.1998 80.972 20.0556 84.2288 17.891 88.1193C15.7264 92.0098 14.6167 96.3986 14.6719 100.85C14.7271 105.302 15.9452 109.662 18.2057 113.498C20.4661 117.333 23.6901 120.511 27.5579 122.716C31.4256 124.921 35.8026 126.076 40.2547 126.067V125.923Z" fill="white"/>
</svg>
