<svg width="24" height="24" viewBox="0 0 24 24" fill="none" xmlns="http://www.w3.org/2000/svg">
<path d="M13.498 21.5C13.4968 21.501 13.4954 21.502 13.4941 21.5029C13.0623 21.8244 12.5383 21.998 12 21.998C11.4617 21.998 10.9377 21.8244 10.5059 21.5029C10.5046 21.502 10.5032 21.501 10.502 21.5H13.498ZM12 2.5C12.7879 2.5 13.568 2.65552 14.2959 2.95703C15.0239 3.25856 15.685 3.70066 16.2422 4.25781C16.7993 4.81496 17.2414 5.47615 17.543 6.2041C17.8445 6.93204 18 7.71209 18 8.5V13.8027L20 16.8027V18.5H4V16.8027L6 13.8027V8.5C6 7.71209 6.15552 6.93204 6.45703 6.2041C6.75856 5.47615 7.20066 4.81496 7.75781 4.25781C8.31496 3.70066 8.97615 3.25856 9.7041 2.95703C10.3411 2.69319 11.0179 2.54065 11.7051 2.50684L12 2.5Z" stroke="#F7F7F7" stroke-width="2"/>
</svg>
