<svg width="25" height="25" viewBox="0 0 25 25" fill="none" xmlns="http://www.w3.org/2000/svg">
<path d="M14.6129 21.7311C13.4329 21.7311 11.7629 20.9011 10.4429 16.9311L9.72295 14.7711L7.56295 14.0511C3.60295 12.7311 2.77295 11.0611 2.77295 9.88115C2.77295 8.71114 3.60295 7.03115 7.56295 5.70115L16.0529 2.87115C18.1729 2.16115 19.9429 2.37115 21.0329 3.45115C22.1229 4.53115 22.3329 6.31115 21.6229 8.43115L18.7929 16.9211C17.4629 20.9011 15.7929 21.7311 14.6129 21.7311ZM8.03295 7.13115C5.25295 8.06115 4.26295 9.16115 4.26295 9.88115C4.26295 10.6011 5.25295 11.7011 8.03295 12.6211L10.5529 13.4611C10.7729 13.5311 10.9529 13.7111 11.0229 13.9311L11.8629 16.4511C12.7829 19.2311 13.8929 20.2211 14.6129 20.2211C15.3329 20.2211 16.4329 19.2311 17.3629 16.4511L20.1929 7.96115C20.7029 6.42115 20.6129 5.16115 19.9629 4.51115C19.3129 3.86115 18.0529 3.78115 16.5229 4.29115L8.03295 7.13115Z" fill="#292D32"/>
<path d="M10.5029 14.5011C10.3129 14.5011 10.1229 14.4311 9.97287 14.2811C9.68287 13.9911 9.68287 13.5111 9.97287 13.2211L13.5529 9.63107C13.8429 9.34107 14.3229 9.34107 14.6129 9.63107C14.9029 9.92107 14.9029 10.4011 14.6129 10.6911L11.0329 14.2811C10.8929 14.4311 10.6929 14.5011 10.5029 14.5011Z" fill="#292D32"/>
</svg>
