<svg width="51" height="50" viewBox="0 0 51 50" fill="none" xmlns="http://www.w3.org/2000/svg">
<path d="M8.93915 19.2652C10.5879 17.1146 12.2378 14.9641 13.889 12.8136C14.0647 12.5868 14.2866 12.3999 14.5399 12.2652C14.7932 12.1306 15.0722 12.0511 15.3585 12.0322C15.429 12.0286 15.4995 12.0286 15.57 12.0322C17.9392 12.0107 20.3083 11.9749 22.6775 11.9749C23.8173 11.9749 24.9571 12.0573 26.0969 12.0788C26.6668 12.0788 27.2402 12.0394 27.8101 12.0322C28.2868 12.0322 28.4983 12.2042 28.5055 12.5734C28.5126 12.9426 28.2976 13.1326 27.8316 13.1505H27.57C27.8639 15.0609 28.1578 16.9533 28.4589 18.8852H30.4051C30.8675 18.8852 31.0861 19.0645 31.0933 19.4408C31.1004 19.8171 30.8961 20.0179 30.4015 20.025H28.5951C28.0646 21.6809 28.9284 23.4157 30.466 23.81C30.7996 23.8988 31.1487 23.9127 31.4883 23.8507C31.8278 23.7887 32.1495 23.6524 32.4302 23.4516C32.8101 23.1971 33.147 23.258 33.3263 23.5913C33.3634 23.658 33.3865 23.7317 33.3939 23.8077C33.4013 23.8837 33.393 23.9605 33.3695 24.0331C33.3459 24.1058 33.3077 24.1728 33.2571 24.23C33.2065 24.2872 33.1446 24.3333 33.0754 24.3655C32.3303 24.8899 31.4122 25.1078 30.511 24.9744C29.6098 24.841 28.7943 24.3664 28.2331 23.6487C28.1435 23.5412 28.061 23.4265 27.9571 23.2903C27.1972 24.3369 26.2187 24.9892 24.8997 24.9964C23.5807 25.0035 22.5879 24.3727 21.8173 23.3369C20.2976 25.4874 17.3263 25.6164 15.6632 23.301C15.2751 23.9017 14.7223 24.378 14.0708 24.6729C13.4194 24.9678 12.6967 25.0689 11.9893 24.9641V38.5555H25.6094V38.1612C25.6094 35.3464 25.6094 32.5316 25.6094 29.7168C25.6094 28.7168 26.0897 28.043 26.9499 27.8279C27.1666 27.7813 27.3878 27.7596 27.6094 27.7634C29.2438 27.7634 30.8818 27.7634 32.5162 27.7634C33.828 27.7634 34.5807 28.5232 34.5807 29.8351C34.5807 32.5901 34.5807 35.3476 34.5807 38.1075V38.5555H37.828V27.663C37.828 27.1648 38.0323 26.9462 38.4409 26.9677C38.5655 26.9688 38.6852 27.0159 38.7772 27.0999C38.8691 27.184 38.9268 27.299 38.9392 27.4229C38.9504 27.5421 38.9504 27.6621 38.9392 27.7813V38.6272C39.2474 38.6272 39.5449 38.6272 39.846 38.6272C40.147 38.6272 40.423 38.663 40.5306 38.9856C40.5819 39.1306 40.5768 39.2895 40.5164 39.431C40.456 39.5724 40.3446 39.6859 40.2044 39.749H9.49829C9.36416 39.6772 9.26053 39.5592 9.20652 39.4169C9.15251 39.2747 9.15175 39.1176 9.20439 38.9749C9.337 38.6164 9.62733 38.6164 9.92123 38.6164C10.2151 38.6164 10.5162 38.6164 10.8101 38.6164C10.8128 38.5639 10.8128 38.5113 10.8101 38.4587C10.8101 33.9187 10.8101 29.3667 10.8101 24.8028C10.8041 24.7318 10.7827 24.663 10.7474 24.6011C10.7122 24.5392 10.6638 24.4857 10.6058 24.4444C9.90062 23.9749 9.37018 23.2857 9.09686 22.4838C9.02876 22.2759 8.97499 22.0645 8.91406 21.853C8.93915 20.9928 8.93915 20.129 8.93915 19.2652ZM33.4517 38.5913V29.9211C33.4517 29.1576 33.2116 28.9175 32.4445 28.9175H27.6811C26.9033 28.9175 26.7241 29.1003 26.7241 29.896V38.5949L33.4517 38.5913ZM26.3979 13.1433C25.423 13.1433 24.4875 13.1433 23.5556 13.1433C23.3298 13.1433 23.3298 13.2795 23.3047 13.4372C23.1291 14.5878 22.9463 15.7419 22.7635 16.8924C22.6596 17.5555 22.5664 18.215 22.466 18.8781H27.3012C27.0001 16.9749 26.7026 15.086 26.3979 13.1576V13.1433ZM21.2761 18.8781L22.1685 13.1433C21.2653 13.1433 20.3764 13.1433 19.5198 13.1433C19.4189 13.1282 19.3159 13.1495 19.2292 13.2033C19.1426 13.2572 19.0779 13.3401 19.0467 13.4372C18.2797 15.1827 17.484 16.8852 16.7205 18.6021C16.6775 18.6917 16.6524 18.7921 16.6094 18.9032L21.2761 18.8781ZM10.6381 18.8781H10.975C12.3047 18.8781 13.6381 18.8781 14.9678 18.8781C15.0626 18.8913 15.1589 18.87 15.2393 18.818C15.3196 18.766 15.3784 18.6868 15.4051 18.5949C16.0682 17.1075 16.7492 15.6272 17.4266 14.1469C17.5736 13.8207 17.7241 13.4946 17.8961 13.1182H15.6166C15.4153 13.1188 15.2175 13.1712 15.0424 13.2704C14.8673 13.3696 14.7206 13.5122 14.6166 13.6845C13.5413 15.1182 12.466 16.5304 11.3908 17.9533C11.1399 18.2473 10.9141 18.5519 10.6381 18.9175V18.8781ZM10.061 20.0358C10.061 20.4874 10.061 20.9175 10.061 21.3476C10.0752 21.965 10.3094 22.557 10.7215 23.017C11.1335 23.477 11.6962 23.7747 12.3083 23.8566C12.9357 23.9233 13.5652 23.7512 14.0713 23.3745C14.5775 22.9979 14.9232 22.4444 15.0395 21.8243C15.1074 21.2294 15.1385 20.6309 15.1327 20.0322L10.061 20.0358ZM16.2331 20.0358C16.2331 20.5232 16.2331 20.9892 16.2331 21.4516C16.2402 21.6026 16.2618 21.7526 16.2976 21.8996C16.4294 22.4415 16.7333 22.9261 17.1636 23.2808C17.5939 23.6355 18.1276 23.8413 18.6847 23.8673C19.2437 23.8854 19.7923 23.7129 20.2404 23.3782C20.6885 23.0434 21.0095 22.5663 21.1506 22.025C21.2238 21.3631 21.2322 20.6957 21.1757 20.0322L16.2331 20.0358ZM22.423 20.0358C22.3636 20.6764 22.3708 21.3214 22.4445 21.9605C22.5424 22.3802 22.7482 22.7671 23.0416 23.0827C23.335 23.3984 23.7058 23.6319 24.1173 23.7601C24.5287 23.8883 24.9665 23.9068 25.3873 23.8137C25.8081 23.7206 26.1973 23.5192 26.5162 23.2293C27.5234 22.344 27.4087 21.1935 27.3513 20.0358H22.423Z" fill="white"/>
<path d="M29.509 11.3513C29.544 9.44411 30.29 7.61878 31.6009 6.23304C32.9117 4.8473 34.6928 4.00108 36.5951 3.86024C40.3836 3.54124 43.9893 6.3692 44.7062 10.1398C44.9786 11.5735 44.7062 12.9212 44.2223 14.2581C43.2223 17.1255 41.8209 19.7706 40.3836 22.4194C39.9427 23.2294 39.4804 24.0251 39.0252 24.828C38.8506 25.182 38.579 25.4792 38.2421 25.6848C37.9051 25.8904 37.5166 25.996 37.1219 25.9893C36.7397 25.9875 36.3659 25.8771 36.0441 25.6708C35.7224 25.4645 35.4659 25.171 35.3047 24.8244C33.5929 21.9192 32.0596 18.9124 30.7133 15.8208C30.1973 14.675 29.8194 13.4718 29.5879 12.2366C29.5449 11.9355 29.5341 11.6416 29.509 11.3513ZM30.656 11.3513C30.656 11.4696 30.656 11.5843 30.656 11.7097C30.79 12.8236 31.0909 13.9111 31.5485 14.9355C32.871 18.2366 34.6022 21.3334 36.3943 24.3943C36.469 24.5493 36.5865 24.6797 36.7329 24.77C36.8794 24.8602 37.0487 24.9066 37.2207 24.9036C37.3928 24.9006 37.5603 24.8483 37.7035 24.7529C37.8467 24.6576 37.9596 24.5232 38.0287 24.3656C38.3872 23.7814 38.7026 23.1936 39.0323 22.5986C40.5449 19.8602 42.0216 17.1076 43.0933 14.1577C43.5556 12.8853 43.8746 11.6058 43.5843 10.2151C42.9212 7.06096 39.846 4.72046 36.656 4.98927C35.0451 5.11202 33.5378 5.83075 32.4283 7.00514C31.3189 8.17953 30.687 9.72526 30.656 11.3405V11.3513Z" fill="white"/>
<path d="M18.7098 28.0859C19.6668 28.0859 20.6237 28.0859 21.5771 28.0859C22.7492 28.0859 23.3944 28.7347 23.3979 29.9067C23.3979 31.1899 23.3979 32.4742 23.3979 33.7598C23.3979 34.9462 22.7349 35.5985 21.5521 35.5985H15.8173C14.6668 35.5985 13.9929 34.9211 13.9929 33.7669C13.9929 32.473 13.9929 31.1755 13.9929 29.8816C13.9929 28.7634 14.656 28.0895 15.785 28.0895C16.7671 28.0859 17.7277 28.0859 18.7098 28.0859ZM18.7098 29.2078H15.803C15.2761 29.2078 15.1112 29.3798 15.1076 29.8996C15.1076 31.197 15.1076 32.491 15.1076 33.7884C15.1076 34.2974 15.2904 34.4802 15.8245 34.4802H21.6022C22.1148 34.4802 22.2904 34.301 22.294 33.7813C22.294 32.4838 22.294 31.1899 22.294 29.8924C22.294 29.3655 22.1327 29.2114 21.5951 29.2078H18.7098Z" fill="white"/>
<path d="M30.0611 33.7848H28.1006C27.6275 33.7848 27.4482 33.602 27.4482 33.1253C27.4482 32.3189 27.4482 31.516 27.4482 30.7096C27.4482 30.2257 27.6203 30.0429 28.0898 30.0393C29.4208 30.0393 30.7505 30.0393 32.0791 30.0393C32.5378 30.0393 32.7099 30.2221 32.7099 30.6809C32.7099 31.51 32.7099 32.338 32.7099 33.1648C32.7099 33.5984 32.5271 33.7777 32.0898 33.7812C31.4124 33.7884 30.7457 33.7848 30.0611 33.7848ZM31.5594 32.645V31.1863H28.5952V32.645H31.5594Z" fill="white"/>
<path d="M28.5019 35.889C28.5091 36.0287 28.5091 36.1687 28.5019 36.3084C28.5025 36.3761 28.4892 36.4432 28.4628 36.5056C28.4364 36.568 28.3974 36.6243 28.3484 36.671C28.2993 36.7177 28.2412 36.7539 28.1775 36.7772C28.1139 36.8005 28.0462 36.8105 27.9786 36.8066C27.9115 36.8183 27.8427 36.8158 27.7767 36.7993C27.7106 36.7828 27.6488 36.7526 27.5951 36.7107C27.5414 36.6689 27.4971 36.6162 27.465 36.5562C27.4329 36.4961 27.4137 36.43 27.4087 36.3621C27.3729 36.0489 27.3729 35.7327 27.4087 35.4195C27.4421 35.2989 27.5155 35.1933 27.6168 35.1199C27.7181 35.0465 27.8414 35.0097 27.9664 35.0155C28.0913 35.0213 28.2106 35.0694 28.3047 35.152C28.3987 35.2345 28.4619 35.3465 28.484 35.4696C28.5091 35.613 28.5019 35.7492 28.5019 35.889Z" fill="white"/>
<path d="M37.1971 16.3978C36.221 16.3935 35.2681 16.0999 34.4588 15.554C33.6495 15.0082 33.0203 14.2346 32.6507 13.3312C32.2811 12.4277 32.1877 11.4349 32.3823 10.4784C32.5769 9.52184 33.0508 8.64448 33.744 7.95725C34.4373 7.27003 35.3187 6.80381 36.2769 6.61754C37.2351 6.43128 38.227 6.53334 39.1272 6.91081C40.0275 7.28829 40.7955 7.92423 41.3343 8.73821C41.8731 9.5522 42.1584 10.5077 42.1541 11.4838C42.1575 12.1337 42.0313 12.7778 41.7829 13.3783C41.5344 13.9788 41.1687 14.5238 40.7072 14.9814C40.2456 15.4389 39.6975 15.7998 39.0948 16.043C38.4921 16.2862 37.847 16.4068 37.1971 16.3978ZM33.3979 11.448C33.3943 12.2015 33.6143 12.9392 34.03 13.5677C34.4457 14.1962 35.0385 14.6873 35.7333 14.979C36.4281 15.2706 37.1938 15.3497 37.9336 15.2061C38.6733 15.0626 39.3539 14.7029 39.8892 14.1726C40.4246 13.6423 40.7906 12.9651 40.9411 12.2267C41.0916 11.4883 41.0198 10.7219 40.7347 10.0244C40.4496 9.32685 39.9641 8.72951 39.3395 8.30792C38.7149 7.88632 37.9794 7.6594 37.2258 7.65584C36.2173 7.65767 35.2501 8.05665 34.5337 8.76639C33.8172 9.47614 33.4092 10.4395 33.3979 11.448Z" fill="white"/>
</svg>
