<svg width="24" height="25" viewBox="0 0 24 25" fill="none" xmlns="http://www.w3.org/2000/svg">
<rect x="-0.000488281" y="0.13028" width="24.0008" height="24.0008" rx="12.0004" fill="url(#paint0_radial_3702_181435)" fill-opacity="0.5"/>
<rect x="-0.000488281" y="0.13028" width="24.0008" height="24.0008" rx="12.0004" fill="url(#paint1_radial_3702_181435)" fill-opacity="0.8"/>
<rect x="0.213802" y="0.34457" width="23.5722" height="23.5722" rx="11.7861" stroke="white" stroke-opacity="0.24" stroke-width="0.428581"/>
<g filter="url(#filter0_d_3702_181435)">
<path d="M16.6846 10.1404C17.8844 10.1405 18.8572 11.032 18.8574 12.1307C18.8572 13.2293 17.8844 14.1198 16.6846 14.1199C16.5254 14.1199 16.3701 14.1038 16.2207 14.074C14.4879 13.8784 12.4073 12.4478 12.04 12.1873C12.2857 12.5324 13.5744 14.399 13.8848 16.0604C13.9664 16.2969 14.0136 16.5526 14.0137 16.8201C14.0136 18.0166 13.1207 18.9874 12.0195 18.9881C10.9179 18.9881 10.0245 18.017 10.0244 16.8201C10.0244 16.6626 10.0409 16.5091 10.0703 16.3611C10.2656 14.6273 11.7076 12.5422 11.9629 12.1844C11.6046 12.4388 9.51718 13.8778 7.7793 14.074C7.62996 14.1038 7.47449 14.1199 7.31543 14.1199C6.1158 14.1196 5.1429 13.2291 5.14258 12.1307C5.14283 11.0322 6.11575 10.1407 7.31543 10.1404C7.58279 10.1405 7.83864 10.1874 8.0752 10.2684C9.81487 10.5907 11.7807 11.9783 11.998 12.1346C11.9996 12.1325 12.0007 12.1311 12.001 12.1307L12.002 12.1326C12.2228 11.9739 14.1863 10.5906 15.9238 10.2684C16.1607 10.1872 16.4168 10.1404 16.6846 10.1404ZM11.9834 5.27325C13.0848 5.27369 13.9785 6.2445 13.9785 7.44122C13.9785 7.60036 13.9626 7.7557 13.9326 7.90508C13.7176 9.79202 12.0296 12.0931 12.002 12.1307C12.002 12.1307 10.4576 10.0354 10.1162 8.19512C10.0358 7.96012 9.98933 7.70663 9.98926 7.44122C9.98926 6.24438 10.8819 5.27348 11.9834 5.27325Z" fill="url(#paint2_radial_3702_181435)"/>
</g>
<defs>
<filter id="filter0_d_3702_181435" x="2.57109" y="4.41609" width="18.8578" height="18.8578" filterUnits="userSpaceOnUse" color-interpolation-filters="sRGB">
<feFlood flood-opacity="0" result="BackgroundImageFix"/>
<feColorMatrix in="SourceAlpha" type="matrix" values="0 0 0 0 0 0 0 0 0 0 0 0 0 0 0 0 0 0 127 0" result="hardAlpha"/>
<feOffset dy="1.71432"/>
<feGaussianBlur stdDeviation="1.28574"/>
<feComposite in2="hardAlpha" operator="out"/>
<feColorMatrix type="matrix" values="0 0 0 0 0 0 0 0 0 0 0 0 0 0 0 0 0 0 0.1 0"/>
<feBlend mode="normal" in2="BackgroundImageFix" result="effect1_dropShadow_3702_181435"/>
<feBlend mode="normal" in="SourceGraphic" in2="effect1_dropShadow_3702_181435" result="shape"/>
</filter>
<radialGradient id="paint0_radial_3702_181435" cx="0" cy="0" r="1" gradientUnits="userSpaceOnUse" gradientTransform="translate(11.9999 7.44302) rotate(-90) scale(12.1879 16.0575)">
<stop stop-color="#F3F3F7" stop-opacity="0"/>
<stop offset="1" stop-color="white" stop-opacity="0.3"/>
</radialGradient>
<radialGradient id="paint1_radial_3702_181435" cx="0" cy="0" r="1" gradientUnits="userSpaceOnUse" gradientTransform="translate(11.9999 7.63052) rotate(-90) scale(12.3754 16.3045)">
<stop stop-color="#F3F3F7" stop-opacity="0"/>
<stop offset="1" stop-color="white" stop-opacity="0.3"/>
</radialGradient>
<radialGradient id="paint2_radial_3702_181435" cx="0" cy="0" r="1" gradientUnits="userSpaceOnUse" gradientTransform="translate(12 12.1307) rotate(90) scale(22.9987)">
<stop stop-color="white"/>
<stop offset="1" stop-color="white"/>
</radialGradient>
</defs>
</svg>
